<?xml version="1.0" encoding="utf-8"?>
<!-- Generator: Adobe Illustrator 23.0.3, SVG Export Plug-In . SVG Version: 6.00 Build 0)  -->
<svg version="1.1" id="Layer_1" xmlns="http://www.w3.org/2000/svg" xmlns:xlink="http://www.w3.org/1999/xlink" x="0px" y="0px"
	 viewBox="0 0 25 25" style="enable-background:new 0 0 25 25;" xml:space="preserve">
<style type="text/css">
	.st0{fill:#FFFFFF;}
</style>
<title>Asset 3</title>
<g>
	<path class="st0" d="M6.2,6.7H0.5C0.2,6.7,0,6.5,0,6.2V0.5C0,0.2,0.2,0,0.5,0h5.7c0.3,0,0.5,0.2,0.5,0.5v5.7
		C6.7,6.5,6.5,6.7,6.2,6.7z M1,5.7h4.7V1H1V5.7z"/>
</g>
<g>
	<path class="st0" d="M15.4,6.7H9.6c-0.3,0-0.5-0.2-0.5-0.5V0.5C9.1,0.2,9.4,0,9.6,0h5.7c0.3,0,0.5,0.2,0.5,0.5v5.7
		C15.9,6.5,15.6,6.7,15.4,6.7z M10.1,5.7h4.7V1h-4.7V5.7z"/>
</g>
<g>
	<path class="st0" d="M24.5,6.7h-5.7c-0.3,0-0.5-0.2-0.5-0.5V0.5c0-0.3,0.2-0.5,0.5-0.5h5.7C24.8,0,25,0.2,25,0.5v5.7
		C25,6.5,24.8,6.7,24.5,6.7z M19.3,5.7H24V1h-4.7V5.7z"/>
</g>
<g>
	<path class="st0" d="M6.2,15.9H0.5c-0.3,0-0.5-0.2-0.5-0.5V9.6c0-0.3,0.2-0.5,0.5-0.5h5.7c0.3,0,0.5,0.2,0.5,0.5v5.7
		C6.7,15.6,6.5,15.9,6.2,15.9z M1,14.9h4.7v-4.7H1V14.9z"/>
</g>
<g>
	<path class="st0" d="M15.4,15.9H9.6c-0.3,0-0.5-0.2-0.5-0.5V9.6c0-0.3,0.2-0.5,0.5-0.5h5.7c0.3,0,0.5,0.2,0.5,0.5v5.7
		C15.9,15.6,15.6,15.9,15.4,15.9z M10.1,14.9h4.7v-4.7h-4.7V14.9z"/>
</g>
<g>
	<path class="st0" d="M24.5,15.9h-5.7c-0.3,0-0.5-0.2-0.5-0.5V9.6c0-0.3,0.2-0.5,0.5-0.5h5.7c0.3,0,0.5,0.2,0.5,0.5v5.7
		C25,15.6,24.8,15.9,24.5,15.9z M19.3,14.9H24v-4.7h-4.7V14.9z"/>
</g>
<g>
	<path class="st0" d="M6.2,25H0.5C0.2,25,0,24.8,0,24.5v-5.7c0-0.3,0.2-0.5,0.5-0.5h5.7c0.3,0,0.5,0.2,0.5,0.5v5.7
		C6.7,24.8,6.5,25,6.2,25z M1,24h4.7v-4.7H1V24z"/>
</g>
<g>
	<path class="st0" d="M15.4,25H9.6c-0.3,0-0.5-0.2-0.5-0.5v-5.7c0-0.3,0.2-0.5,0.5-0.5h5.7c0.3,0,0.5,0.2,0.5,0.5v5.7
		C15.9,24.8,15.6,25,15.4,25z M10.1,24h4.7v-4.7h-4.7V24z"/>
</g>
<g>
	<path class="st0" d="M24.5,25h-5.7c-0.3,0-0.5-0.2-0.5-0.5v-5.7c0-0.3,0.2-0.5,0.5-0.5h5.7c0.3,0,0.5,0.2,0.5,0.5v5.7
		C25,24.8,24.8,25,24.5,25z M19.3,24H24v-4.7h-4.7V24z"/>
</g>
</svg>
