<?xml version="1.0" encoding="utf-8"?>
<!-- Generator: Adobe Illustrator 23.0.3, SVG Export Plug-In . SVG Version: 6.00 Build 0)  -->
<svg version="1.1" id="Layer_1" xmlns="http://www.w3.org/2000/svg" xmlns:xlink="http://www.w3.org/1999/xlink" x="0px" y="0px"
	 viewBox="0 0 20 20" style="enable-background:new 0 0 20 20;" xml:space="preserve">
<style type="text/css">
	.st0{fill:#4D41FF;}
</style>
<g>
	<path class="st0" d="M15,20H5c-2.8,0-5-2.2-5-5V5c0-2.8,2.2-5,5-5h10c2.8,0,5,2.2,5,5v10C20,17.8,17.8,20,15,20z M5,1
		C2.8,1,1,2.8,1,5v10c0,2.2,1.8,4,4,4h10c2.2,0,4-1.8,4-4V5c0-2.2-1.8-4-4-4H5z"/>
</g>
<g id="Path_1237">
	<path class="st0" d="M8.5,14.4L8.5,14.4c-0.3,0-0.5-0.1-0.7-0.3l-3-3.1c-0.4-0.4-0.4-1,0-1.4s1-0.4,1.4,0L8.5,12l6.3-6.2
		c0.4-0.4,1-0.4,1.4,0s0.4,1,0,1.4l-7,6.9C9,14.3,8.8,14.4,8.5,14.4z"/>
</g>
</svg>
