<?xml version="1.0" encoding="utf-8"?>
<!-- Generator: Adobe Illustrator 23.0.3, SVG Export Plug-In . SVG Version: 6.00 Build 0)  -->
<svg version="1.1" id="Layer_1" xmlns="http://www.w3.org/2000/svg" xmlns:xlink="http://www.w3.org/1999/xlink" x="0px" y="0px"
	 viewBox="0 0 20 20" style="enable-background:new 0 0 20 20;" xml:space="preserve">
<style type="text/css">
	.st0{fill:#4D41FF;}
</style>
<path class="st0" d="M10,1c-5,0-9,4-9,9s4,9,9,9s9-4,9-9S15,1,10,1 M10,0c5.5,0,10,4.5,10,10s-4.5,10-10,10S0,15.5,0,10S4.5,0,10,0z
	"/>
<g id="Path_1858">
	<path class="st0" d="M8,14.1L8,14.1c-0.2,0-0.4-0.1-0.5-0.2L5,11.3c-0.3-0.3-0.3-0.8,0-1.1c0.3-0.3,0.8-0.3,1.1,0l2,2.1L13.5,7
		c0.3-0.3,0.8-0.3,1.1,0s0.3,0.8,0,1.1l-5.9,5.8C8.4,14,8.2,14.1,8,14.1z"/>
</g>
</svg>
