<?xml version="1.0" encoding="utf-8"?>
<!-- Generator: Adobe Illustrator 23.0.3, SVG Export Plug-In . SVG Version: 6.00 Build 0)  -->
<svg version="1.1" id="Layer_1" xmlns="http://www.w3.org/2000/svg" xmlns:xlink="http://www.w3.org/1999/xlink" x="0px" y="0px"
	 viewBox="0 0 20 20" style="enable-background:new 0 0 20 20;" xml:space="preserve">
<style type="text/css">
	.st0{fill:#4D41FF;}
</style>
<path class="st0" d="M11.1,10l2.7-2.6c0.3-0.3,0.3-0.8,0-1.1S13,6,12.7,6.3L10,8.9L7.4,6.3C7.1,6,6.6,6,6.3,6.3S6,7.1,6.3,7.4
	L8.9,10l-2.7,2.6C6,13,6,13.5,6.3,13.8C6.4,13.9,6.6,14,6.8,14s0.4-0.1,0.5-0.2l2.7-2.7l2.7,2.7c0.2,0.1,0.4,0.2,0.5,0.2
	c0.2,0,0.4-0.1,0.6-0.2c0.3-0.3,0.3-0.8,0-1.1L11.1,10z"/>
<path class="st0" d="M10,1c-5,0-9,4-9,9s4,9,9,9s9-4,9-9S15,1,10,1 M10,0c5.5,0,10,4.5,10,10s-4.5,10-10,10S0,15.5,0,10S4.5,0,10,0z
	"/>
</svg>
