<?xml version="1.0" encoding="utf-8"?>
<!-- Generator: Adobe Illustrator 23.0.3, SVG Export Plug-In . SVG Version: 6.00 Build 0)  -->
<svg version="1.1" id="Layer_1" xmlns="http://www.w3.org/2000/svg" xmlns:xlink="http://www.w3.org/1999/xlink" x="0px" y="0px"
	 viewBox="0 0 13 15.2" style="enable-background:new 0 0 13 15.2;" xml:space="preserve">
<style type="text/css">
	.st0{fill:#FF4141;}
</style>
<g id="Group_4956" transform="translate(1740.704 184.671)">
	<g id="Line_776">
		<path class="st0" d="M-1736-172.4c-0.3,0-0.5-0.2-0.5-0.5v-5.9c0-0.3,0.2-0.5,0.5-0.5s0.5,0.2,0.5,0.5v5.9
			C-1735.5-172.6-1735.7-172.4-1736-172.4z"/>
	</g>
	<g id="Line_777">
		<path class="st0" d="M-1732.7-172.4c-0.3,0-0.5-0.2-0.5-0.5v-5.9c0-0.3,0.2-0.5,0.5-0.5s0.5,0.2,0.5,0.5v5.9
			C-1732.2-172.6-1732.4-172.4-1732.7-172.4z"/>
	</g>
</g>
<path class="st0" d="M12.5,2.2H11H9.7l-0.9-2C8.8,0.1,8.6,0,8.4,0H4.2C4.1,0,3.9,0.1,3.8,0.3l-0.9,2H2H0.5C0.2,2.2,0,2.5,0,2.7
	s0.2,0.5,0.5,0.5H1v9.9c0,1.1,0.9,2,2,2h7c1.1,0,2-0.9,2-2V3.2h0.5C12.8,3.2,13,3,13,2.7S12.8,2.2,12.5,2.2z M4.6,1h3.5l0.6,1.3H4
	L4.6,1z M11,13.2c0,0.6-0.4,1-1,1H3c-0.6,0-1-0.4-1-1v-10h9V13.2z"/>
</svg>
