<?xml version="1.0" encoding="utf-8"?>
<!-- Generator: Adobe Illustrator 23.0.6, SVG Export Plug-In . SVG Version: 6.00 Build 0)  -->
<svg version="1.1" id="Layer_1" xmlns="http://www.w3.org/2000/svg" xmlns:xlink="http://www.w3.org/1999/xlink" x="0px" y="0px"
	 viewBox="0 0 25 25" style="enable-background:new 0 0 25 25;" xml:space="preserve">
<style type="text/css">
	.st0{fill:#FFFFFF;}
</style>
<g>
	<path class="st0" d="M23.3,0.1H1.7c-0.3,0-0.5,0.2-0.5,0.5v23.8c0,0.3,0.2,0.5,0.5,0.5h21.6c0.3,0,0.5-0.2,0.5-0.5V0.6
		C23.8,0.3,23.6,0.1,23.3,0.1z M22.8,4.3h-9.7V1.1h9.7V4.3z M13.1,9.3h9.7v3h-9.7C13.1,12.3,13.1,9.3,13.1,9.3z M13.1,8.3v-3h9.7v3
		H13.1z M2.2,1.1h9.9v22.8H2.2V1.1z M13.1,23.9V13.3h9.7v10.6H13.1z"/>
	<rect x="9.1" y="11.8" class="st0" width="1" height="3"/>
	<rect x="15.1" y="15.8" class="st0" width="1" height="3"/>
</g>
</svg>
