<?xml version="1.0" encoding="utf-8"?>
<!-- Generator: Adobe Illustrator 23.0.3, SVG Export Plug-In . SVG Version: 6.00 Build 0)  -->
<svg version="1.1" id="Layer_1" xmlns="http://www.w3.org/2000/svg" xmlns:xlink="http://www.w3.org/1999/xlink" x="0px" y="0px"
	 viewBox="0 0 28.8 22.4" style="enable-background:new 0 0 28.8 22.4;" xml:space="preserve">
<style type="text/css">
	.st0{fill:#FFFFFF;}
</style>
<path class="st0" d="M19.3,7.9c-0.2,0-0.4,0-0.6,0c0.1-0.4,0.2-0.9,0.2-1.3c0-1.9-1.1-3.6-3-4.9C14.1,0.6,11.8,0,9.4,0
	S4.7,0.6,3,1.8C1.1,3,0,4.7,0,6.6c0,1.6,0.8,3.1,2.2,4.3c0.1,0.1,0.2,0.2,0.3,0.4l1.4,2.9c0.2,0.5,0.7,0.8,1.2,0.8
	c0.2,0,0.4,0,0.6-0.1l2.9-1.4c0.2-0.1,0.3-0.1,0.5-0.1c0.2,0,0.5,0,0.7,0c-0.1,0.4-0.2,0.7-0.2,1.1c0,3.5,4.3,6.4,9.5,6.4
	c0.3,0,0.5,0,0.8,0l3.2,1.6c0.6,0.3,1.3,0,1.5-0.5l1.4-2.9c0.1-0.2,0.2-0.3,0.3-0.4c1.5-1.2,2.3-2.6,2.3-4.2
	C28.8,10.8,24.5,7.9,19.3,7.9z M8.8,12.3l-0.1,0l-3.4,1.6c-0.2,0.1-0.5,0-0.6-0.2l-1.6-3.3L3,10.4C1.7,9.3,0.9,8,0.9,6.6
	c0-1.6,0.9-3,2.6-4.1c1.6-1,3.7-1.6,5.9-1.6s4.3,0.6,5.9,1.6c1.7,1.1,2.6,2.5,2.6,4.1c0,0.4,0,0.7-0.1,1.1C17.7,7.9,17.6,8,17.4,8
	c-1.7,0.2-3.2,0.6-4.5,1.4c-1.2,0.7-2.1,1.6-2.5,2.6c-0.1,0.2-0.2,0.3-0.4,0.3C9.6,12.3,9.2,12.3,8.8,12.3z M25.7,18L25.7,18
	l-1.8,3.6l-3.6-1.8l-0.1,0c-0.3,0-0.6,0-0.9,0c-4.7,0-8.6-2.5-8.6-5.5s3.8-5.5,8.6-5.5s8.6,2.5,8.6,5.5C27.8,15.7,27.1,16.9,25.7,18
	z"/>
</svg>
