<?xml version="1.0" encoding="utf-8"?>
<!-- Generator: Adobe Illustrator 23.0.6, SVG Export Plug-In . SVG Version: 6.00 Build 0)  -->
<svg version="1.1" id="Layer_1" xmlns="http://www.w3.org/2000/svg" xmlns:xlink="http://www.w3.org/1999/xlink" x="0px" y="0px"
	 viewBox="0 0 22.8 21.5" style="enable-background:new 0 0 22.8 21.5;" xml:space="preserve">
<style type="text/css">
	.st0{opacity:0.3;fill:#FFFFFF;}
</style>
<path class="st0" d="M20.3,14.4c0.3,0,0.6,0.1,0.8,0.3c0.1,0.1,0.4,0.2,0.5,0.1c0.2-0.1,0.3-0.3,0.3-0.5v-3.8c0-0.3-0.2-0.5-0.5-0.5
	h-9.5V6.9c0-0.2-0.1-0.4-0.3-0.5c-0.2-0.1-0.4,0-0.6,0.1c-0.2,0.3-0.5,0.4-0.9,0.4C9.5,6.9,9,6.4,9,5.8c0-0.6,0.5-1.2,1.2-1.2
	c0.3,0,0.6,0.1,0.9,0.4c0.1,0.2,0.4,0.2,0.6,0.1c0.2-0.1,0.3-0.3,0.3-0.5V0.8c0-0.3-0.2-0.5-0.5-0.5h-10c-0.3,0-0.5,0.2-0.5,0.5v3.8
	C0.9,4.8,1,5,1.2,5c0.2,0.1,0.4,0,0.6-0.1C2,4.7,2.2,4.6,2.5,4.6c0.6,0,1.2,0.5,1.2,1.2c0,0.6-0.5,1.2-1.2,1.2
	C2.2,6.9,2,6.8,1.7,6.6C1.6,6.5,1.4,6.4,1.2,6.5C1,6.6,0.9,6.8,0.9,7v3.5c0,0,0,0,0,0.1v10c0,0.3,0.2,0.5,0.5,0.5h3.8
	c0.2,0,0.4-0.1,0.5-0.3c0.1-0.2,0-0.4-0.1-0.6c-0.2-0.2-0.3-0.5-0.3-0.8c0-0.6,0.5-1.2,1.2-1.2c0.6,0,1.2,0.5,1.2,1.2
	c0,0.3-0.1,0.6-0.3,0.8c-0.1,0.1-0.2,0.4-0.1,0.6c0.1,0.2,0.3,0.3,0.5,0.3h3.8h10c0.3,0,0.5-0.2,0.5-0.5v-3.8c0-0.2-0.1-0.4-0.3-0.5
	c-0.2-0.1-0.4,0-0.6,0.1c-0.2,0.2-0.5,0.3-0.8,0.3c-0.6,0-1.2-0.5-1.2-1.2C19.1,15,19.7,14.4,20.3,14.4z M1.9,7.9
	C2.1,7.9,2.3,8,2.5,8c1.2,0,2.2-1,2.2-2.2c0-1.2-1-2.2-2.2-2.2c-0.2,0-0.4,0-0.6,0.1V1.3h9v2.5c-0.2-0.1-0.5-0.1-0.7-0.1
	C9,3.6,8,4.6,8,5.8C8,7,9,8,10.2,8c0.3,0,0.5,0,0.7-0.1v2.3H7.7H7.5c-0.2,0-0.4,0.1-0.5,0.3c-0.1,0.2,0,0.4,0.1,0.6
	c0.3,0.2,0.4,0.5,0.4,0.9c0,0.1,0,0.3-0.1,0.4c-0.2,0.4-0.6,0.7-1.1,0.7c-0.6,0-1.2-0.5-1.2-1.2c0,0,0,0,0,0c0-0.3,0.1-0.6,0.4-0.8
	c0.2-0.1,0.2-0.4,0.1-0.6c-0.1-0.2-0.3-0.3-0.5-0.3H5.1H1.9V7.9z M6.4,17.3c-1.2,0-2.2,1-2.2,2.2c0,0.2,0,0.4,0.1,0.6H1.9v-9h2.4
	c0,0.1,0,0.2-0.1,0.3c0,0.1,0,0.3,0,0.4c0,1.2,1,2.2,2.2,2.2c0.9,0,1.7-0.6,2-1.4c0.1-0.3,0.2-0.5,0.2-0.9c0-0.2,0-0.4-0.1-0.7h2.4
	v3.2v0c0,0.2,0.1,0.4,0.3,0.5c0.2,0.1,0.4,0.1,0.5,0c0.2-0.2,0.4-0.2,0.7-0.2c0.6,0,1.2,0.5,1.2,1.1c0,0.6-0.5,1.1-1.2,1.1
	c-0.2,0-0.5-0.1-0.7-0.2c-0.2-0.1-0.4-0.1-0.5,0c-0.2,0.1-0.3,0.3-0.3,0.5v0v3.1H8.5c0.1-0.2,0.1-0.4,0.1-0.6
	C8.6,18.3,7.6,17.3,6.4,17.3z M20.3,17.8c0.2,0,0.4,0,0.6-0.1v2.4h-9v-2.3c0.2,0,0.3,0.1,0.5,0.1c1.2,0,2.2-1,2.2-2.2c0,0,0,0,0,0
	c0,0,0,0,0,0c0-1.2-1-2.2-2.2-2.2c-0.2,0-0.3,0-0.5,0.1v-2.4h9v2.4c-0.2-0.1-0.4-0.1-0.6-0.1c-1.2,0-2.2,1-2.2,2.2
	C18.1,16.8,19.1,17.8,20.3,17.8z"/>
</svg>
