<?xml version="1.0" encoding="utf-8"?>
<!-- Generator: Adobe Illustrator 23.0.6, SVG Export Plug-In . SVG Version: 6.00 Build 0)  -->
<svg version="1.1" id="Layer_1" xmlns="http://www.w3.org/2000/svg" xmlns:xlink="http://www.w3.org/1999/xlink" x="0px" y="0px"
	 viewBox="0 0 22.8 21.5" style="enable-background:new 0 0 22.8 21.5;" xml:space="preserve">
<style type="text/css">
	.st0{opacity:0.3;}
	.st1{fill:#FFFFFF;}
</style>
<g class="st0">
	<path class="st1" d="M12.7,14.1c-0.3,0-0.5,0.2-0.5,0.5v3.1h-11V3.7h11v2.9c0,0.3,0.2,0.5,0.5,0.5s0.5-0.2,0.5-0.5V3.2
		c0-0.3-0.2-0.5-0.5-0.5H0.6c-0.3,0-0.5,0.2-0.5,0.5v15.1c0,0.3,0.2,0.5,0.5,0.5h12.1c0.3,0,0.5-0.2,0.5-0.5v-3.7
		C13.2,14.4,13,14.1,12.7,14.1z"/>
	<path class="st1" d="M22.6,11.3c0-0.1,0-0.1,0-0.2c0,0,0,0,0,0c0,0,0,0,0-0.1c0,0,0-0.1,0-0.1c0,0,0-0.1-0.1-0.1c0,0,0-0.1,0-0.1
		l-5.3-6c-0.2-0.2-0.5-0.2-0.8,0c-0.2,0.2-0.2,0.5,0,0.8l4.5,5.1H9.7c-0.3,0-0.5,0.2-0.5,0.5c0,0.3,0.2,0.5,0.5,0.5h11.1L16.4,16
		c-0.2,0.2-0.2,0.5,0,0.8c0.1,0.1,0.2,0.2,0.4,0.2s0.3-0.1,0.4-0.2l5.3-5.3C22.5,11.4,22.5,11.4,22.6,11.3
		C22.5,11.3,22.6,11.3,22.6,11.3C22.6,11.3,22.6,11.3,22.6,11.3z"/>
</g>
</svg>
