<?xml version="1.0" encoding="utf-8"?>
<!-- Generator: Adobe Illustrator 23.0.6, SVG Export Plug-In . SVG Version: 6.00 Build 0)  -->
<svg version="1.1" id="Layer_1" xmlns="http://www.w3.org/2000/svg" xmlns:xlink="http://www.w3.org/1999/xlink" x="0px" y="0px"
	 viewBox="0 0 25 25" style="enable-background:new 0 0 25 25;" xml:space="preserve">
<style type="text/css">
	.st0{fill:#FFFFFF;}
</style>
<g>
	<path class="st0" d="M15.5,14.8c0-1.6-1.4-2.8-3-2.8c-1.1,0-1.9-0.8-1.9-1.7s0.9-1.7,1.9-1.7s1.9,0.8,1.9,1.7
		c0,0.3,0.2,0.6,0.6,0.6c0.3,0,0.6-0.2,0.6-0.6c0-1.2-0.9-2.3-2.2-2.7l-0.3-0.1V7c0-0.3-0.2-0.6-0.6-0.6c-0.3,0-0.6,0.2-0.6,0.6v0.5
		l-0.3,0.1c-1.3,0.4-2.2,1.5-2.2,2.7c0,1.6,1.4,2.8,3,2.8c1.1,0,1.9,0.8,1.9,1.7c0,0.9-0.9,1.7-1.9,1.7s-1.9-0.8-1.9-1.7
		c0-0.3-0.2-0.6-0.6-0.6s-0.6,0.2-0.6,0.6c0,1.2,0.9,2.3,2.2,2.7l0.3,0.1v0.3c0,0.4,0.2,0.6,0.6,0.6c0.3,0,0.6-0.2,0.6-0.6v-0.3
		l0.3-0.2C14.7,17.1,15.5,16,15.5,14.8z"/>
	<g>
		<path class="st0" d="M12.5,2.1c1.7,0,3.4,0.5,4.9,1.3l-1.5,0.5c-0.3,0.1-0.4,0.4-0.3,0.6c0.1,0.2,0.3,0.3,0.5,0.3
			c0.1,0,0.1,0,0.2,0l2.7-0.9c0.1,0,0.2-0.1,0.3-0.3s0.1-0.3,0-0.4l-0.9-2.7c-0.1-0.3-0.4-0.4-0.6-0.3c-0.3,0.1-0.4,0.4-0.3,0.6
			l0.5,1.6c-1.6-0.9-3.5-1.4-5.4-1.4c-6.1,0-11.1,5-11.1,11.1c0,2.4,0.8,4.7,2.2,6.6C3.8,18.9,3.9,19,4.1,19c0.1,0,0.2,0,0.3-0.1
			c0.2-0.2,0.3-0.5,0.1-0.7c-1.3-1.8-2-3.8-2-6C2.4,6.6,7,2.1,12.5,2.1z"/>
		<path class="st0" d="M22.5,7.4C22.3,7.1,22,7,21.8,7.1c-0.2,0.1-0.4,0.4-0.2,0.7c0.7,1.4,1,2.8,1,4.4c0,5.5-4.5,10.1-10.1,10.1
			c-1.2,0-2.3-0.2-3.4-0.6l1.5-0.7c0.2-0.1,0.3-0.4,0.2-0.7s-0.4-0.3-0.7-0.2l-2.6,1.3c-0.1,0.1-0.2,0.2-0.3,0.3c0,0.1,0,0.3,0,0.4
			l1.3,2.5c0.1,0.2,0.3,0.3,0.4,0.3c0.1,0,0.2,0,0.2-0.1c0.2-0.1,0.3-0.4,0.2-0.7l-0.7-1.4c1.2,0.4,2.4,0.6,3.7,0.6
			c6.1,0,11.1-5,11.1-11.1C23.6,10.5,23.2,8.9,22.5,7.4z"/>
	</g>
</g>
</svg>
