<?xml version="1.0" encoding="utf-8"?>
<!-- Generator: Adobe Illustrator 23.0.3, SVG Export Plug-In . SVG Version: 6.00 Build 0)  -->
<svg version="1.1" id="Layer_1" xmlns="http://www.w3.org/2000/svg" xmlns:xlink="http://www.w3.org/1999/xlink" x="0px" y="0px"
	 viewBox="0 0 22.8 21.5" style="enable-background:new 0 0 22.8 21.5;" xml:space="preserve">
<style type="text/css">
	.st0{opacity:0.3;}
	.st1{fill:#FFFFFF;}
</style>
<g class="st0">
	<rect x="10.2" y="-4" transform="matrix(0.7071 -0.7071 0.7071 0.7071 -4.4062 10.7292)" class="st1" width="1" height="29.4"/>
	<rect x="10.9" y="4.6" transform="matrix(0.7071 -0.7071 0.7071 0.7071 1.5392 13.9778)" class="st1" width="13.5" height="1"/>
	<rect x="7.7" y="2.3" transform="matrix(0.7071 -0.7071 0.7071 0.7071 -7.0209 9.6875)" class="st1" width="1" height="22.1"/>
	<rect x="9" y="3.4" transform="matrix(0.7071 -0.7071 0.7071 0.7071 1.321 11.0869)" class="st1" width="10.1" height="1"/>
	<rect x="13.8" y="8.2" transform="matrix(0.7071 -0.7071 0.7071 0.7071 -0.6429 15.8865)" class="st1" width="10.1" height="1"/>
	<rect x="5.1" y="8.6" transform="matrix(0.7071 -0.7071 0.7071 0.7071 -9.6205 8.6105)" class="st1" width="1" height="14.7"/>
	<rect x="7.2" y="2.2" transform="matrix(0.7071 -0.7071 0.7071 0.7071 1.1737 8.2251)" class="st1" width="6.7" height="1"/>
	<rect x="16.7" y="11.8" transform="matrix(0.7071 -0.7071 0.7071 0.7071 -2.8249 17.796)" class="st1" width="6.7" height="1"/>
	<rect x="2.5" y="14.9" transform="matrix(0.7071 -0.7071 0.7071 0.7071 -12.2355 7.569)" class="st1" width="1" height="7.4"/>
	<rect x="5.3" y="1" transform="matrix(0.7071 -0.7071 0.7071 0.7071 0.9913 5.3489)" class="st1" width="3.4" height="1"/>
	<rect x="19.6" y="15.4" transform="matrix(0.7071 -0.7071 0.7071 0.7071 -4.9714 19.7196)" class="st1" width="3.4" height="1"/>
</g>
</svg>
