<?xml version="1.0" encoding="utf-8"?>
<!-- Generator: Adobe Illustrator 23.0.6, SVG Export Plug-In . SVG Version: 6.00 Build 0)  -->
<svg version="1.1" id="Layer_1" xmlns="http://www.w3.org/2000/svg" xmlns:xlink="http://www.w3.org/1999/xlink" x="0px" y="0px"
	 viewBox="0 0 20 24.8" style="enable-background:new 0 0 20 24.8;" xml:space="preserve">
<style type="text/css">
	.st0{fill:#FFFFFF;}
</style>
<g>
	<path class="st0" d="M8.1,9.5L5.8,12l-1.3-1.2c-0.2-0.2-0.5-0.2-0.7,0s-0.2,0.5,0,0.7l1.6,1.6c0.1,0.1,0.2,0.1,0.4,0.1c0,0,0,0,0,0
		c0.1,0,0.3-0.1,0.4-0.2l2.6-2.9C9,9.9,9,9.6,8.8,9.4C8.5,9.2,8.2,9.3,8.1,9.5z"/>
	<path class="st0" d="M8.1,16.3l-2.2,2.5l-1.3-1.3c-0.2-0.2-0.5-0.2-0.7,0s-0.2,0.5,0,0.7L5.5,20c0.1,0.1,0.2,0.1,0.4,0.1
		c0,0,0,0,0,0c0.1,0,0.3-0.1,0.4-0.2L8.8,17c0.2-0.2,0.2-0.5,0-0.7C8.5,16.1,8.2,16.1,8.1,16.3z"/>
	<path class="st0" d="M19.5,2.4h-7.4V0.5c0-0.3-0.2-0.5-0.5-0.5H8.4C8.1,0,7.9,0.2,7.9,0.5v1.9H0.5C0.2,2.4,0,2.6,0,2.9v21.4
		c0,0.3,0.2,0.5,0.5,0.5h19c0.3,0,0.5-0.2,0.5-0.5V2.9C20,2.6,19.8,2.4,19.5,2.4z M8.9,1h2.2v3H8.9V1z M19,23.8H1V3.4h6.9v1.1
		C7.9,4.8,8.1,5,8.4,5h3.2c0.3,0,0.5-0.2,0.5-0.5V3.4H19V23.8z"/>
	<path class="st0" d="M14.7,17.6h-2.9c-0.3,0-0.5,0.2-0.5,0.5s0.2,0.5,0.5,0.5h2.9c0.3,0,0.5-0.2,0.5-0.5S15,17.6,14.7,17.6z"/>
	<path class="st0" d="M11.8,11.3c-0.3,0-0.5,0.2-0.5,0.5s0.2,0.5,0.5,0.5h4.4c0.3,0,0.5-0.2,0.5-0.5s-0.2-0.5-0.5-0.5H11.8z"/>
</g>
</svg>
