<svg xmlns="http://www.w3.org/2000/svg" width="27.172" height="22.555" viewBox="0 0 27.172 22.555">
  <path id="icon_statistics" d="M116.2-142.107h-2.209v-21.055a.5.5,0,0,0-.5-.5H108.55a.5.5,0,0,0-.5.5v21.055h-2.125v-9.235a.5.5,0,0,0-.5-.5h-4.939a.5.5,0,0,0-.5.5v9.235H97.862v-14.45a.5.5,0,0,0-.5-.5h-4.94a.5.5,0,0,0-.5.5v14.45h-1.9a.5.5,0,0,0-.5.5.5.5,0,0,0,.5.5H116.2a.5.5,0,0,0,.5-.5A.5.5,0,0,0,116.2-142.107Zm-23.276,0v-13.95h3.94v13.95Zm8.064,0v-8.735h3.939v8.735Zm8.064,0v-20.555h3.939v20.555Z" transform="translate(-89.526 163.662)" fill="#fff"/>
</svg>
