<?xml version="1.0" encoding="utf-8"?>
<!-- Generator: Adobe Illustrator 23.0.6, SVG Export Plug-In . SVG Version: 6.00 Build 0)  -->
<svg version="1.1" id="Layer_1" xmlns="http://www.w3.org/2000/svg" xmlns:xlink="http://www.w3.org/1999/xlink" x="0px" y="0px"
	 viewBox="0 0 26.5 25" style="enable-background:new 0 0 26.5 25;" xml:space="preserve">
<style type="text/css">
	.st0{fill:#FFFFFF;}
</style>
<g>
	<path class="st0" d="M14.7,16.2c-0.3,0-0.6,0.2-0.6,0.6v3.4H2V4.7h12.2v3.2c0,0.3,0.2,0.6,0.6,0.6s0.6-0.2,0.6-0.6V4.1
		c0-0.3-0.2-0.6-0.6-0.6H1.3C1,3.6,0.7,3.8,0.7,4.1v16.7c0,0.3,0.2,0.6,0.6,0.6h13.4c0.3,0,0.6-0.2,0.6-0.6v-4.1
		C15.3,16.5,15,16.2,14.7,16.2z"/>
	<path class="st0" d="M25.7,13.1c0-0.1,0-0.1,0-0.2l0,0c0,0,0,0,0-0.1v-0.1c0,0,0-0.1-0.1-0.1v-0.1l-5.9-6.6c-0.2-0.2-0.6-0.2-0.9,0
		c-0.2,0.2-0.2,0.6,0,0.9l5,5.6H11.4c-0.3,0-0.6,0.2-0.6,0.6c0,0.3,0.2,0.6,0.6,0.6h12.3l-4.9,4.9c-0.2,0.2-0.2,0.6,0,0.9
		c0.1,0.1,0.2,0.2,0.4,0.2s0.3-0.1,0.4-0.2l5.9-5.9C25.6,13.2,25.6,13.2,25.7,13.1C25.6,13.1,25.7,13.1,25.7,13.1L25.7,13.1z"/>
</g>
</svg>
