<?xml version="1.0" encoding="utf-8"?>
<!-- Generator: Adobe Illustrator 23.0.6, SVG Export Plug-In . SVG Version: 6.00 Build 0)  -->
<svg version="1.1" id="Layer_1" xmlns="http://www.w3.org/2000/svg" xmlns:xlink="http://www.w3.org/1999/xlink" x="0px" y="0px"
	 viewBox="0 0 22.6 24.8" style="enable-background:new 0 0 22.6 24.8;" xml:space="preserve">
<style type="text/css">
	.st0{fill:#FFFFFF;}
</style>
<g>
	<path class="st0" d="M22.1,0H0.5C0.2,0,0,0.2,0,0.5v23.8c0,0.3,0.2,0.5,0.5,0.5h21.6c0.3,0,0.5-0.2,0.5-0.5V0.5
		C22.6,0.2,22.4,0,22.1,0z M21.6,4.2h-9.7V1h9.7V4.2z M11.9,9.2h9.7v3h-9.7V9.2z M11.9,8.2v-3h9.7v3H11.9z M1,1h9.9v22.8H1V1z
		 M11.9,23.8V13.2h9.7v10.6H11.9z"/>
	<rect x="7.9" y="11.7" class="st0" width="1" height="3"/>
	<rect x="13.9" y="15.7" class="st0" width="1" height="3"/>
</g>
</svg>
