<?xml version="1.0" encoding="utf-8"?>
<!-- Generator: Adobe Illustrator 23.0.3, SVG Export Plug-In . SVG Version: 6.00 Build 0)  -->
<svg version="1.1" id="Layer_1" xmlns="http://www.w3.org/2000/svg" xmlns:xlink="http://www.w3.org/1999/xlink" x="0px" y="0px"
	 viewBox="0 0 20.6 25" style="enable-background:new 0 0 20.6 25;" xml:space="preserve">
<style type="text/css">
	.st0{fill:#FFFFFF;}
</style>
<g id="venues_active" transform="translate(-53.5 -520.1)">
	<g id="Path_1182">
		<path class="st0" d="M63.7,545.1c-0.1,0-0.2,0-0.3-0.1c-0.4-0.2-9.1-5.7-9.9-13.6l0-1.1c0-5.7,4.6-10.3,10.3-10.3c0,0,0,0,0,0
			c2.8,0,5.3,1.1,7.3,3c1.9,1.9,3,4.5,3,7.3v0.9c0,0.1-0.1,0.3-0.1,0.4l-0.1,0.1c-0.9,7.7-9.5,13.1-9.9,13.3
			C63.9,545.1,63.8,545.1,63.7,545.1z M63.8,521.1C63.8,521.1,63.8,521.1,63.8,521.1c-5.1,0-9.3,4.2-9.3,9.3v1
			c0.7,6.6,7.7,11.6,9.2,12.6c1.5-1,8.5-6,9.2-12.6c0-0.1,0.1-0.2,0.1-0.3l0.1-0.1v-0.7c0-2.5-1-4.8-2.7-6.6
			C68.6,522.1,66.3,521.1,63.8,521.1z M73.6,531.3L73.6,531.3L73.6,531.3z"/>
	</g>
	<g id="Ellipse_108">
		<path class="st0" d="M63.9,535.8c-3,0-5.4-2.4-5.4-5.4s2.4-5.4,5.4-5.4c3,0,5.4,2.4,5.4,5.4S66.9,535.8,63.9,535.8z M63.9,526
			c-2.4,0-4.4,2-4.4,4.4s2,4.4,4.4,4.4s4.4-2,4.4-4.4S66.3,526,63.9,526z"/>
	</g>
</g>
</svg>
