<?xml version="1.0" encoding="utf-8"?>
<!-- Generator: Adobe Illustrator 23.0.6, SVG Export Plug-In . SVG Version: 6.00 Build 0)  -->
<svg version="1.1" id="Layer_1" xmlns="http://www.w3.org/2000/svg" xmlns:xlink="http://www.w3.org/1999/xlink" x="0px" y="0px"
	 viewBox="0 0 20 20" style="enable-background:new 0 0 20 20;" xml:space="preserve">
<style type="text/css">
	.st0{fill:#FFFFFF;}
</style>
<g>
	<path class="st0" d="M10,4.1C4.5,4.1,0,8.5,0,14c0,0.3,0.2,0.5,0.5,0.5S1,14.3,1,14c0-0.3,0-0.5,0-0.8h2.5C3.8,13.2,4,13,4,12.7
		s-0.2-0.5-0.5-0.5H1.2c0.4-1.8,1.2-3.3,2.5-4.6l1.7,1.7c0.1,0.1,0.2,0.1,0.4,0.1S6,9.4,6,9.3c0.2-0.2,0.2-0.5,0-0.7L4.4,7
		c1.4-1.1,3.1-1.8,5-1.9v2.2c0,0.3,0.2,0.5,0.5,0.5s0.5-0.2,0.5-0.5V5.1c1.9,0.1,3.6,0.8,5,1.9l-1.6,1.6c-0.2,0.2-0.2,0.5,0,0.7
		c0.1,0.1,0.2,0.1,0.4,0.1s0.3,0,0.4-0.1l1.6-1.7c1.2,1.2,2.1,2.8,2.5,4.6h-2.3c-0.3,0-0.5,0.2-0.5,0.5s0.2,0.5,0.5,0.5h2.4
		c0,0.3,0,0.5,0,0.8c0,0.3,0.2,0.5,0.5,0.5s0.5-0.2,0.5-0.5C19.9,8.5,15.5,4.1,10,4.1z"/>
	<path class="st0" d="M12.3,7.5c-0.3-0.1-0.5,0-0.7,0.3l-1.3,2.9c-0.1,0-0.2,0-0.4,0c-1.1,0-2.1,0.9-2.1,2.1s0.9,2.1,2.1,2.1
		c1.1,0,2.1-0.9,2.1-2.1c0-0.7-0.3-1.2-0.8-1.6l1.3-2.9C12.7,7.9,12.5,7.6,12.3,7.5z M10,13.8c-0.6,0-1.1-0.5-1.1-1.1
		c0-0.6,0.5-1.1,1.1-1.1s1.1,0.5,1.1,1.1C11.1,13.3,10.6,13.8,10,13.8z"/>
</g>
</svg>
