<svg xmlns="http://www.w3.org/2000/svg" width="25.12" height="25.12" viewBox="0 0 25.12 25.12">
  <g id="icon_optimisations" transform="translate(-16.4 192.831)">
    <path id="Path_2244" data-name="Path 2244" d="M29.782-191.831a.877.877,0,0,1,.876.876v1.133a.767.767,0,0,0,.576.743,9.057,9.057,0,0,1,2.344.973.762.762,0,0,0,.39.107.766.766,0,0,0,.543-.225l.8-.8a.869.869,0,0,1,.618-.256.877.877,0,0,1,.621.257l1.162,1.162a.875.875,0,0,1,0,1.239l-.8.8a.766.766,0,0,0-.118.933,9.077,9.077,0,0,1,.973,2.344.767.767,0,0,0,.743.576h1.133a.877.877,0,0,1,.876.876v1.644a.877.877,0,0,1-.876.876H38.511a.767.767,0,0,0-.743.576,9.092,9.092,0,0,1-.973,2.344.766.766,0,0,0,.118.933l.8.8a.875.875,0,0,1,0,1.239l-1.162,1.163a.88.88,0,0,1-.621.256.87.87,0,0,1-.618-.257l-.8-.8a.766.766,0,0,0-.543-.225.762.762,0,0,0-.39.107,9.057,9.057,0,0,1-2.344.973.767.767,0,0,0-.576.743v1.133a.877.877,0,0,1-.876.876H28.138a.877.877,0,0,1-.876-.876v-1.133a.767.767,0,0,0-.576-.743,9.043,9.043,0,0,1-2.344-.973.746.746,0,0,0-.384-.108.8.8,0,0,0-.549.226l-.8.8a.868.868,0,0,1-.618.257.875.875,0,0,1-.621-.257L20.2-172.678a.877.877,0,0,1,0-1.239l.8-.8a.767.767,0,0,0,.118-.933A9.057,9.057,0,0,1,20.152-178a.768.768,0,0,0-.743-.576H18.276a.877.877,0,0,1-.876-.876v-1.644a.877.877,0,0,1,.876-.876h1.133a.768.768,0,0,0,.743-.576,9.043,9.043,0,0,1,.973-2.344.767.767,0,0,0-.118-.933l-.8-.8a.876.876,0,0,1,0-1.239l1.162-1.163a.875.875,0,0,1,.62-.256.868.868,0,0,1,.619.257l.8.8a.764.764,0,0,0,.542.225.768.768,0,0,0,.391-.107,9.042,9.042,0,0,1,2.344-.973.767.767,0,0,0,.576-.743v-1.133a.877.877,0,0,1,.876-.876h1.644m0-1H28.138a1.878,1.878,0,0,0-1.876,1.876V-190a10.042,10.042,0,0,0-2.273.944l-.676-.676a1.86,1.86,0,0,0-1.326-.55,1.863,1.863,0,0,0-1.328.55L19.5-188.571a1.864,1.864,0,0,0-.549,1.328,1.858,1.858,0,0,0,.55,1.325l.675.676a10.085,10.085,0,0,0-.943,2.273h-.954a1.878,1.878,0,0,0-1.876,1.876v1.644a1.878,1.878,0,0,0,1.876,1.876h.954a10.058,10.058,0,0,0,.943,2.272l-.676.676a1.863,1.863,0,0,0-.549,1.326,1.866,1.866,0,0,0,.549,1.328l1.163,1.162a1.863,1.863,0,0,0,1.328.55,1.859,1.859,0,0,0,1.325-.55l.676-.676a9.993,9.993,0,0,0,2.273.943v.955a1.878,1.878,0,0,0,1.876,1.876h1.644a1.879,1.879,0,0,0,1.876-1.876v-.955a10.011,10.011,0,0,0,2.272-.943l.676.676a1.86,1.86,0,0,0,1.326.55,1.861,1.861,0,0,0,1.328-.55l1.162-1.162a1.863,1.863,0,0,0,.55-1.328,1.86,1.86,0,0,0-.55-1.326l-.676-.676a10.012,10.012,0,0,0,.943-2.272h.955a1.879,1.879,0,0,0,1.876-1.876v-1.644a1.878,1.878,0,0,0-1.876-1.876h-.955a10.012,10.012,0,0,0-.943-2.272l.676-.677a1.858,1.858,0,0,0,.55-1.325,1.861,1.861,0,0,0-.55-1.328l-1.162-1.162a1.861,1.861,0,0,0-1.328-.55,1.86,1.86,0,0,0-1.326.55l-.676.676A9.967,9.967,0,0,0,31.658-190v-.955a1.879,1.879,0,0,0-1.876-1.876Z" fill="#fff"/>
    <path id="Path_2245" data-name="Path 2245" d="M28.96-186.862a6.59,6.59,0,0,1,6.59,6.591,6.59,6.59,0,0,1-6.59,6.591,6.591,6.591,0,0,1-6.591-6.591,6.591,6.591,0,0,1,6.591-6.591m0-1a7.6,7.6,0,0,0-7.591,7.591,7.6,7.6,0,0,0,7.591,7.591,7.6,7.6,0,0,0,7.59-7.591,7.6,7.6,0,0,0-7.59-7.591Z" fill="#fff"/>
    <path id="Path_2246" data-name="Path 2246" d="M28.96-181.994a1.723,1.723,0,0,1,1.723,1.723,1.723,1.723,0,0,1-1.723,1.723,1.722,1.722,0,0,1-1.723-1.723,1.722,1.722,0,0,1,1.723-1.723m0-1a2.725,2.725,0,0,0-2.723,2.723,2.726,2.726,0,0,0,2.723,2.723,2.727,2.727,0,0,0,2.723-2.723,2.726,2.726,0,0,0-2.723-2.723Z" fill="#fff"/>
  </g>
</svg>
