<?xml version="1.0" encoding="utf-8"?>
<!-- Generator: Adobe Illustrator 23.0.3, SVG Export Plug-In . SVG Version: 6.00 Build 0)  -->
<svg version="1.1" id="Layer_1" xmlns="http://www.w3.org/2000/svg" xmlns:xlink="http://www.w3.org/1999/xlink" x="0px" y="0px"
	 viewBox="0 0 23.9 24.9" style="enable-background:new 0 0 23.9 24.9;" xml:space="preserve">
<style type="text/css">
	.st0{opacity:0.3;fill:#FFFFFF;}
</style>
<path class="st0" d="M18.6,10.8c1.9-0.9,3.3-2.9,3.3-5.1c0-3.1-2.6-5.7-5.7-5.7s-5.7,2.6-5.7,5.7c0,0.4,0,0.8,0.1,1.2
	C9.8,6.4,8.8,6.1,7.7,6.1C4.6,6.1,2,8.7,2,11.8c0,2.3,1.4,4.3,3.4,5.2C2.3,18,0,21,0,24.4c0,0.3,0.2,0.5,0.5,0.5S1,24.7,1,24.4
	c0-3.8,3.1-6.8,6.8-6.8s6.8,3.1,6.8,6.8c0,0.3,0.2,0.5,0.5,0.5s0.5-0.2,0.5-0.5c0-3.5-2.3-6.5-5.5-7.4c1.9-0.9,3.3-2.9,3.3-5.2
	c0-0.4,0-0.8-0.1-1.2c0.8,0.5,1.8,0.8,2.8,0.8l0,0c3.7,0,6.8,3.1,6.8,6.8c0,0.3,0.2,0.5,0.5,0.5l0,0c0.3,0,0.5-0.2,0.5-0.5
	C23.9,14.8,21.7,11.9,18.6,10.8z M16.2,1c2.6,0,4.7,2.1,4.7,4.7s-2.1,4.7-4.7,4.7s-4.7-2.1-4.7-4.7C11.5,3.1,13.6,1,16.2,1z
	 M7.7,16.5c-2.6,0-4.7-2.1-4.7-4.7s2.1-4.7,4.7-4.7s4.7,2.1,4.7,4.7S10.3,16.5,7.7,16.5z"/>
</svg>
