<?xml version="1.0" encoding="utf-8"?>
<!-- Generator: Adobe Illustrator 23.0.6, SVG Export Plug-In . SVG Version: 6.00 Build 0)  -->
<svg version="1.1" id="Layer_1" xmlns="http://www.w3.org/2000/svg" xmlns:xlink="http://www.w3.org/1999/xlink" x="0px" y="0px"
	 viewBox="0 0 22 22" style="enable-background:new 0 0 22 22;" xml:space="preserve">
<style type="text/css">
	.st0{opacity:0.3;}
	.st1{fill:none;}
	.st2{fill:#FFFFFF;}
</style>
<g class="st0">
	<rect y="13" class="st1" width="9" height="9"/>
	<g>
		<path class="st2" d="M8.5,22h-8C0.2,22,0,21.8,0,21.5v-8C0,13.2,0.2,13,0.5,13h8C8.8,13,9,13.2,9,13.5v8C9,21.8,8.8,22,8.5,22z
			 M1,21h7v-7H1V21z"/>
	</g>
	<circle class="st1" cx="17.5" cy="17.5" r="4.5"/>
	<g>
		<path class="st2" d="M17.5,22C15,22,13,20,13,17.5s2-4.5,4.5-4.5s4.5,2,4.5,4.5S20,22,17.5,22z M17.5,14c-1.9,0-3.5,1.6-3.5,3.5
			s1.6,3.5,3.5,3.5s3.5-1.6,3.5-3.5S19.4,14,17.5,14z"/>
	</g>
	<path class="st1" d="M11,0l5,9H6L11,0z"/>
	<path class="st2" d="M11,2.1L7.7,8h6.6L11,2.1 M11.4,0.6l4.3,7.8c0.2,0.3,0,0.6-0.4,0.6H6.7C6.4,9,6.2,8.7,6.3,8.4l4.3-7.8
		C10.8,0.4,11.2,0.4,11.4,0.6z"/>
</g>
</svg>
