<svg xmlns="http://www.w3.org/2000/svg" width="24.999" height="19.603" viewBox="0 0 24.999 19.603">
  <g id="icon_material_packages" data-name="icon_material packages" transform="translate(160.166 70.085)">
    <g id="Group_5714" data-name="Group 5714">
      <path id="Path_2252" data-name="Path 2252" d="M-138.366-50.482h-18.6a.5.5,0,0,1-.5-.5v-11.47l-2.664-6.955a.5.5,0,0,1,.288-.645.5.5,0,0,1,.645.288l2.7,7.041a.5.5,0,0,1,.033.179v11.062h17.6V-62.544a.52.52,0,0,1,.033-.179l2.7-7.041a.5.5,0,0,1,.646-.288.5.5,0,0,1,.288.645l-2.665,6.955v11.47A.5.5,0,0,1-138.366-50.482Z" fill="#fff"/>
    </g>
    <g id="Group_5719" data-name="Group 5719">
      <g id="Group_5715" data-name="Group 5715">
        <path id="Path_2253" data-name="Path 2253" d="M-148.653-52.357H-155a.5.5,0,0,1-.5-.5v-6.35a.5.5,0,0,1,.5-.5h6.349a.5.5,0,0,1,.5.5v6.35A.5.5,0,0,1-148.653-52.357Zm-5.849-1h5.349v-5.35H-154.5Z" fill="#fff"/>
      </g>
      <g id="Group_5716" data-name="Group 5716">
        <path id="Path_2254" data-name="Path 2254" d="M-140.332-52.357h-6.35a.5.5,0,0,1-.5-.5v-6.35a.5.5,0,0,1,.5-.5h6.35a.5.5,0,0,1,.5.5v6.35A.5.5,0,0,1-140.332-52.357Zm-5.85-1h5.35v-5.35h-5.35Z" fill="#fff"/>
      </g>
      <g id="Group_5717" data-name="Group 5717">
        <path id="Path_2255" data-name="Path 2255" d="M-140.332-60.86h-6.35a.5.5,0,0,1-.5-.5v-6.35a.5.5,0,0,1,.5-.5h6.35a.5.5,0,0,1,.5.5v6.35A.5.5,0,0,1-140.332-60.86Zm-5.85-1h5.35v-5.35h-5.35Z" fill="#fff"/>
      </g>
      <g id="Group_5718" data-name="Group 5718">
        <path id="Path_2256" data-name="Path 2256" d="M-148.653-60.86H-155a.5.5,0,0,1-.5-.5v-6.35a.5.5,0,0,1,.5-.5h6.349a.5.5,0,0,1,.5.5v6.35A.5.5,0,0,1-148.653-60.86Zm-5.849-1h5.349v-5.35H-154.5Z" fill="#fff"/>
      </g>
    </g>
  </g>
</svg>
