<svg xmlns="http://www.w3.org/2000/svg" width="26.746" height="21.911" viewBox="0 0 26.746 21.911">
  <g id="icon_cameras" transform="translate(-31.084 152.201)">
    <path id="Path_2241" data-name="Path 2241" d="M31.084-152.2v5.141a2.656,2.656,0,0,0,2.612,2.651v3.357A10.774,10.774,0,0,0,44.457-130.29a10.774,10.774,0,0,0,10.762-10.762v-3.357a2.656,2.656,0,0,0,2.611-2.651V-152.2ZM44.457-131.29a9.773,9.773,0,0,1-9.761-9.762V-144.4H54.219v3.352A9.773,9.773,0,0,1,44.457-131.29ZM56.83-147.06a1.658,1.658,0,0,1-1.655,1.656H33.74a1.658,1.658,0,0,1-1.656-1.656V-151.2H56.83Z" fill="#fff"/>
    <path id="Path_2242" data-name="Path 2242" d="M44.457-143.41a4.943,4.943,0,0,0-4.937,4.937,4.942,4.942,0,0,0,4.937,4.937,4.942,4.942,0,0,0,4.937-4.937A4.943,4.943,0,0,0,44.457-143.41Zm0,8.874a3.941,3.941,0,0,1-3.937-3.937,3.941,3.941,0,0,1,3.937-3.937,3.941,3.941,0,0,1,3.937,3.937A3.941,3.941,0,0,1,44.457-134.536Z" fill="#fff"/>
    <path id="Path_2243" data-name="Path 2243" d="M44.457-140.733a2.263,2.263,0,0,0-2.26,2.26,2.263,2.263,0,0,0,2.26,2.26,2.263,2.263,0,0,0,2.26-2.26A2.263,2.263,0,0,0,44.457-140.733Zm0,3.52a1.261,1.261,0,0,1-1.26-1.26,1.262,1.262,0,0,1,1.26-1.26,1.262,1.262,0,0,1,1.26,1.26A1.261,1.261,0,0,1,44.457-137.213Z" fill="#fff"/>
  </g>
</svg>
