<?xml version="1.0" encoding="utf-8"?>
<!-- Generator: Adobe Illustrator 23.0.6, SVG Export Plug-In . SVG Version: 6.00 Build 0)  -->
<svg version="1.1" id="Layer_1" xmlns="http://www.w3.org/2000/svg" xmlns:xlink="http://www.w3.org/1999/xlink" x="0px" y="0px"
	 viewBox="0 0 21.7 21.7" style="enable-background:new 0 0 21.7 21.7;" xml:space="preserve">
<style type="text/css">
	.st0{fill:#FFFFFF;}
</style>
<path class="st0" d="M21,15h-2.5V6.6H21c0.3,0,0.5-0.2,0.5-0.5S21.3,5.6,21,5.6h-2.5V0.8c0-0.3-0.2-0.5-0.5-0.5s-0.5,0.2-0.5,0.5
	v4.9H4.4V0.8c0-0.3-0.2-0.5-0.5-0.5S3.4,0.5,3.4,0.8v4.9H0.8c-0.3,0-0.5,0.2-0.5,0.5s0.2,0.5,0.5,0.5h2.5V15H0.8
	c-0.3,0-0.5,0.2-0.5,0.5S0.6,16,0.8,16h2.5v4.9c0,0.3,0.2,0.5,0.5,0.5s0.5-0.2,0.5-0.5V16h13.1v4.9c0,0.3,0.2,0.5,0.5,0.5
	s0.5-0.2,0.5-0.5V16H21c0.3,0,0.5-0.2,0.5-0.5S21.3,15,21,15z M17.4,10.3H13V6.6h4.4V10.3z M4.4,6.6H12v4.2c0,0,0,0,0,0s0,0,0,0V15
	H4.4V6.6z M13,15v-3.7h4.4V15H13z"/>
</svg>
