<svg xmlns="http://www.w3.org/2000/svg" width="23.546" height="29.085" viewBox="0 0 23.546 29.085">
  <g id="icon_general_fee_rules" data-name="icon_general fee rules" transform="translate(89.341 72.998)">
    <path id="Path_2247" data-name="Path 2247" d="M-85.078-67.817H-73.6a.5.5,0,0,0,.5-.5.5.5,0,0,0-.5-.5H-85.078a.5.5,0,0,0-.5.5A.5.5,0,0,0-85.078-67.817Z" fill="#fff"/>
    <path id="Path_2248" data-name="Path 2248" d="M-85.078-64.051H-73.6a.5.5,0,0,0,.5-.5.5.5,0,0,0-.5-.5H-85.078a.5.5,0,0,0-.5.5A.5.5,0,0,0-85.078-64.051Z" fill="#fff"/>
    <path id="Path_2249" data-name="Path 2249" d="M-85.078-60.284H-73.6a.5.5,0,0,0,.5-.5.5.5,0,0,0-.5-.5H-85.078a.5.5,0,0,0-.5.5A.5.5,0,0,0-85.078-60.284Z" fill="#fff"/>
    <path id="Path_2250" data-name="Path 2250" d="M-73.6-54.906a1.488,1.488,0,0,1,1.571,1.384.451.451,0,0,0,.45.45.45.45,0,0,0,.448-.45,2.331,2.331,0,0,0-1.747-2.183l-.273-.077v-.407a.45.45,0,0,0-.449-.449.45.45,0,0,0-.45.449v.407l-.273.077a2.332,2.332,0,0,0-1.748,2.183A2.386,2.386,0,0,0-73.6-51.238a1.488,1.488,0,0,1,1.571,1.384A1.489,1.489,0,0,1-73.6-48.469a1.489,1.489,0,0,1-1.572-1.385.45.45,0,0,0-.449-.449.45.45,0,0,0-.45.449,2.33,2.33,0,0,0,1.748,2.183l.273.078v.283a.464.464,0,0,0,.45.5.45.45,0,0,0,.449-.449v-.284l.273-.13a2.329,2.329,0,0,0,1.747-2.183A2.385,2.385,0,0,0-73.6-52.137a1.489,1.489,0,0,1-1.572-1.385A1.489,1.489,0,0,1-73.6-54.906Z" fill="#fff"/>
    <path id="Path_2251" data-name="Path 2251" d="M-69.341-58.258V-72.5a.5.5,0,0,0-.5-.5h-19a.5.5,0,0,0-.5.5V-49.07a.5.5,0,0,0,.5.5h8.1A7.816,7.816,0,0,0-73.6-43.913a7.819,7.819,0,0,0,7.809-7.81A7.806,7.806,0,0,0-69.341-58.258Zm-19,8.688V-72h18v13.19a7.753,7.753,0,0,0-3.263-.724,7.769,7.769,0,0,0-5.218,2.015h-6.256a.5.5,0,0,0-.5.5.5.5,0,0,0,.5.5h5.322a7.794,7.794,0,0,0-1.382,2.767h-3.94a.5.5,0,0,0-.5.5.5.5,0,0,0,.5.5h3.739a7.9,7.9,0,0,0-.075,1.027,7.769,7.769,0,0,0,.309,2.153ZM-73.6-44.913a6.818,6.818,0,0,1-6.81-6.81,6.817,6.817,0,0,1,6.81-6.809,6.817,6.817,0,0,1,6.809,6.809A6.818,6.818,0,0,1-73.6-44.913Z" fill="#fff"/>
  </g>
</svg>
