<?xml version="1.0" encoding="utf-8"?>
<!-- Generator: Adobe Illustrator 23.0.6, SVG Export Plug-In . SVG Version: 6.00 Build 0)  -->
<svg version="1.1" id="Layer_1" xmlns="http://www.w3.org/2000/svg" xmlns:xlink="http://www.w3.org/1999/xlink" x="0px" y="0px"
	 viewBox="0 0 25 25" style="enable-background:new 0 0 25 25;" xml:space="preserve">
<style type="text/css">
	.st0{fill:#FFFFFF;}
</style>
<path class="st0" d="M24,10C24,10,24,10,24,10C24,9.9,24,9.8,24,9.8c0-0.1-0.1-0.1-0.1-0.2c0,0,0,0,0,0c0,0,0,0,0,0
	c0,0-0.1-0.1-0.1-0.1l-5.8-2.3c-0.1-0.1-0.3-0.1-0.4,0l-3.8,1.5V4.8v0v0c0,0,0-0.1,0-0.1c0-0.1,0-0.1-0.1-0.2c0-0.1-0.1-0.1-0.1-0.2
	c0,0,0,0,0,0c0,0,0,0,0,0c0,0-0.1-0.1-0.1-0.1L7.5,2C7.4,1.9,7.2,1.9,7.1,2L1.3,4.3c0,0,0,0,0,0c0,0,0,0-0.1,0c0,0-0.1,0.1-0.1,0.1
	c0,0,0,0-0.1,0.1C1,4.6,0.9,4.7,0.9,4.8v6.8c0,0.2,0.1,0.5,0.4,0.5l0.9,0.4l-0.9,0.4c0,0,0,0,0,0c0,0,0,0-0.1,0c0,0-0.1,0.1-0.1,0.1
	c0,0,0,0-0.1,0.1c-0.1,0.1-0.1,0.2-0.1,0.3v6.8c0,0.2,0.1,0.5,0.4,0.5L7.1,23c0.1,0.1,0.3,0.1,0.4,0l5.8-2.3
	c0.2-0.1,0.4-0.3,0.4-0.5v-2.1l3.8,1.5c0.1,0,0.1,0,0.2,0c0.1,0,0.1,0,0.2,0l5.8-2.3c0.2-0.1,0.4-0.3,0.4-0.5L24,10L24,10L24,10z
	 M12.5,9.2l-0.8,0.3c0,0,0,0,0,0c0,0,0,0-0.1,0c0,0-0.1,0.1-0.1,0.1c0,0,0,0-0.1,0.1c-0.1,0.1-0.1,0.2-0.1,0.3v2l-3.5-1.4V7.5
	l4.6-1.8V9.2z M7.3,3.1l4.2,1.6L7.3,6.4L3.1,4.8L7.3,3.1z M3.5,11.8l-1.4-0.5V5.7l1.7,0.7l2.9,1.1v3.3l-3,1.2
	C3.7,11.8,3.6,11.8,3.5,11.8z M6.7,21.6l-4.6-1.8v-5.5l4.6,1.8V21.6z M7.3,15L7.3,15l-4.2-1.6l4.2-1.7l4,1.6c0,0,0,0.1,0,0.1L7.3,15
	z M12.5,19.8l-4.6,1.8v-5.5l4.6-1.8V19.8z M17.1,18.3l-3.4-1.4v-3.5v0v0c0,0,0-0.1,0-0.1c0-0.1,0-0.1-0.1-0.2c0-0.1-0.1-0.1-0.1-0.2
	c0,0,0,0,0,0s0,0,0,0c0,0-0.1-0.1-0.1-0.1l-0.8-0.3v-1.6l4.6,1.8V18.3z M17.7,11.7l-4.2-1.6l4.2-1.7l4.2,1.6L17.7,11.7z M18.3,18.3
	v-5.5l4.6-1.8l0,5.5L18.3,18.3z"/>
</svg>
