<?xml version="1.0" encoding="utf-8"?>
<!-- Generator: Adobe Illustrator 23.0.3, SVG Export Plug-In . SVG Version: 6.00 Build 0)  -->
<svg version="1.1" id="Layer_1" xmlns="http://www.w3.org/2000/svg" xmlns:xlink="http://www.w3.org/1999/xlink" x="0px" y="0px"
	 viewBox="0 0 17.6 24.8" style="enable-background:new 0 0 17.6 24.8;" xml:space="preserve">
<style type="text/css">
	.st0{opacity:0.3;}
	.st1{fill:#FFFFFF;}
</style>
<g class="st0">
	<path class="st1" d="M17.1,0H0.5C0.2,0,0,0.2,0,0.5v23.8c0,0.3,0.2,0.5,0.5,0.5h16.6c0.3,0,0.5-0.2,0.5-0.5V0.5
		C17.6,0.2,17.4,0,17.1,0z M6.4,23.7v-6.3H11v6.3H6.4z M16.6,23.8H12v-6.9c0-0.3-0.2-0.5-0.5-0.5H5.9c-0.3,0-0.5,0.2-0.5,0.5v6.9H1
		V1h15.6V23.8z"/>
	<path class="st1" d="M3.5,7.4H7c0.3,0,0.5-0.2,0.5-0.5V3.4c0-0.3-0.2-0.5-0.5-0.5H3.5C3.2,2.9,3,3.1,3,3.4v3.5
		C3,7.2,3.2,7.4,3.5,7.4z M4,3.9h2.5v2.5H4V3.9z"/>
	<path class="st1" d="M10.6,7.4h3.5c0.3,0,0.5-0.2,0.5-0.5V3.4c0-0.3-0.2-0.5-0.5-0.5h-3.5c-0.3,0-0.5,0.2-0.5,0.5v3.5
		C10.1,7.2,10.3,7.4,10.6,7.4z M11.1,3.9h2.5v2.5h-2.5V3.9z"/>
	<path class="st1" d="M3.5,13.3H7c0.3,0,0.5-0.2,0.5-0.5V9.3C7.5,9,7.3,8.8,7,8.8H3.5C3.2,8.8,3,9,3,9.3v3.5
		C3,13.1,3.2,13.3,3.5,13.3z M4,9.8h2.5v2.5H4V9.8z"/>
	<path class="st1" d="M10.6,13.3h3.5c0.3,0,0.5-0.2,0.5-0.5V9.3c0-0.3-0.2-0.5-0.5-0.5h-3.5c-0.3,0-0.5,0.2-0.5,0.5v3.5
		C10.1,13.1,10.3,13.3,10.6,13.3z M11.1,9.8h2.5v2.5h-2.5V9.8z"/>
</g>
</svg>
