<?xml version="1.0" encoding="utf-8"?>
<!-- Generator: Adobe Illustrator 23.0.6, SVG Export Plug-In . SVG Version: 6.00 Build 0)  -->
<svg version="1.1" id="Layer_1" xmlns="http://www.w3.org/2000/svg" xmlns:xlink="http://www.w3.org/1999/xlink" x="0px" y="0px"
	 viewBox="0 0 22.8 21.5" style="enable-background:new 0 0 22.8 21.5;" xml:space="preserve">
<style type="text/css">
	.st0{fill:#FFFFFF;}
</style>
<g>
	<g>
		<path class="st0" d="M20.8,21.4c-0.1,0-0.3,0-0.4-0.1L0.2,1C0,0.8,0,0.4,0.2,0.2c0.2-0.2,0.5-0.2,0.7,0l20.3,20.3
			c0.2,0.2,0.2,0.5,0,0.7C21.1,21.4,21,21.4,20.8,21.4z"/>
	</g>
	<g>
		<path class="st0" d="M15.8,21.4c-0.1,0-0.3,0-0.4-0.1L0.2,6.1C0,5.9,0,5.5,0.2,5.3s0.5-0.2,0.7,0l15.2,15.2c0.2,0.2,0.2,0.5,0,0.7
			C16.1,21.4,15.9,21.4,15.8,21.4z"/>
	</g>
	<g>
		<path class="st0" d="M10.5,21.4c-0.1,0-0.3-0.1-0.4-0.2L0.2,11.1c-0.2-0.2-0.2-0.5,0-0.7c0.2-0.2,0.5-0.2,0.7,0l9.9,10.1
			c0.2,0.2,0.2,0.5,0,0.7C10.7,21.4,10.6,21.4,10.5,21.4z"/>
	</g>
	<g>
		<path class="st0" d="M5.7,21.4c-0.1,0-0.3,0-0.4-0.1l-5.2-5.2c-0.2-0.2-0.2-0.5,0-0.7s0.5-0.2,0.7,0l5.2,5.2
			c0.2,0.2,0.2,0.5,0,0.7C6,21.4,5.9,21.4,5.7,21.4z"/>
	</g>
	<g>
		<path class="st0" d="M12.8,10.5c-0.1,0-0.3,0-0.4-0.1c-0.2-0.2-0.2-0.5,0-0.7l9.3-9.3c0.2-0.2,0.5-0.2,0.7,0s0.2,0.5,0,0.7
			l-9.3,9.3C13.1,10.4,12.9,10.5,12.8,10.5z"/>
	</g>
	<g>
		<path class="st0" d="M10.4,8.1c-0.1,0-0.3,0-0.4-0.1c-0.2-0.2-0.2-0.5,0-0.7l7-7c0.2-0.2,0.5-0.2,0.7,0s0.2,0.5,0,0.7l-7,7
			C10.7,8,10.5,8.1,10.4,8.1z"/>
	</g>
	<g>
		<path class="st0" d="M15.1,12.8c-0.1,0-0.3,0-0.4-0.1c-0.2-0.2-0.2-0.5,0-0.7l7-7c0.2-0.2,0.5-0.2,0.7,0s0.2,0.5,0,0.7l-7,7
			C15.4,12.8,15.3,12.8,15.1,12.8z"/>
	</g>
	<g>
		<path class="st0" d="M8,5.7c-0.1,0-0.3,0-0.4-0.1c-0.2-0.2-0.2-0.5,0-0.7l4.7-4.7c0.2-0.2,0.5-0.2,0.7,0s0.2,0.5,0,0.7L8.4,5.6
			C8.3,5.7,8.2,5.7,8,5.7z"/>
	</g>
	<g>
		<path class="st0" d="M17.5,15.2c-0.1,0-0.3,0-0.4-0.1c-0.2-0.2-0.2-0.5,0-0.7l4.7-4.7c0.2-0.2,0.5-0.2,0.7,0s0.2,0.5,0,0.7
			L17.8,15C17.7,15.1,17.6,15.2,17.5,15.2z"/>
	</g>
	<g>
		<path class="st0" d="M5.9,3.6c-0.1,0-0.3,0-0.4-0.1c-0.2-0.2-0.2-0.5,0-0.7l2.4-2.4c0.2-0.2,0.5-0.2,0.7,0s0.2,0.5,0,0.7L6.2,3.4
			C6.1,3.5,6,3.6,5.9,3.6z"/>
	</g>
	<g>
		<path class="st0" d="M19.8,17.5c-0.1,0-0.3,0-0.4-0.1c-0.2-0.2-0.2-0.5,0-0.7l2.4-2.4c0.2-0.2,0.5-0.2,0.7,0s0.2,0.5,0,0.7
			l-2.4,2.4C20.1,17.5,19.9,17.5,19.8,17.5z"/>
	</g>
</g>
</svg>
