<?xml version="1.0" encoding="utf-8"?>
<!-- Generator: Adobe Illustrator 23.0.6, SVG Export Plug-In . SVG Version: 6.00 Build 0)  -->
<svg version="1.1" id="Layer_1" xmlns="http://www.w3.org/2000/svg" xmlns:xlink="http://www.w3.org/1999/xlink" x="0px" y="0px"
	 viewBox="0 0 25 25" style="enable-background:new 0 0 25 25;" xml:space="preserve">
<style type="text/css">
	.st0{fill:#FFFFFF;}
</style>
<path class="st0" d="M23.4,8L13.1,1.4c-0.2-0.1-0.4-0.1-0.6,0L1.6,8C1.5,8.2,1.4,8.4,1.4,8.5v14.6c0,0.3,0.2,0.6,0.6,0.6h21.2
	c0.3,0,0.6-0.2,0.6-0.6V8.5C23.6,8.4,23.5,8.2,23.4,8z M7.1,16.4h10.7V19H7.1V16.4z M17.9,15.3H7.1v-2.6h10.7
	C17.9,12.7,17.9,15.3,17.9,15.3z M7.1,20h10.7v2.6H7.1V20z M22.5,22.5H19V12.2c0-0.3-0.2-0.6-0.6-0.6H6.6c-0.3,0-0.6,0.2-0.6,0.6
	v10.4H2.5V8.8l10.4-6.4l9.8,6.2v13.8H22.5z"/>
</svg>
