<svg xmlns="http://www.w3.org/2000/svg" width="25" height="23.348" viewBox="0 0 25 23.348">
  <g id="Symbol_30_12" data-name="Symbol 30 – 12" transform="translate(-961 -556)">
    <g id="Group_3961" data-name="Group 3961" transform="translate(961.565 556.363)" opacity="0.5">
      <path id="Path_1710" data-name="Path 1710" d="M1.4,19.387l11.935-4.032V1L1.4,5.032Z" transform="translate(-1.4 -1)" fill="#202020"/>
    </g>
    <g id="Group_3962" data-name="Group 3962" transform="translate(961.001 556)">
      <path id="Path_1711" data-name="Path 1711" d="M25,4.374h0c0-.04-.04-.081-.081-.121l-.04-.04c-.04-.04-.04-.04-.081-.04a.039.039,0,0,1-.04-.04h-.04L12.621.1h-.242L.282,4.132H.242a.039.039,0,0,0-.04.04c-.04,0-.04.04-.081.04l-.04.04c-.04.04-.04.081-.081.121H0q0,.06,0,.121V19.011a.387.387,0,0,0,.282.363l12.1,4.032c.04,0,.081.04.121.04a.148.148,0,0,0,.121-.04l12.1-4.032A.387.387,0,0,0,25,19.011V4.374ZM3.065,17.963a.4.4,0,0,0-.524-.242l-1.734.565V5.06L12.1,8.81v5.766l-2.137.685a.4.4,0,0,0-.242.524.387.387,0,0,0,.363.282.148.148,0,0,0,.121-.04l1.855-.6v7.056l-10.6-3.548,1.371-.444A.4.4,0,0,0,3.065,17.963ZM12.5,5.7a.381.381,0,0,0-.4.4V7.963L1.694,4.5,12.1,1.027V2.882a.4.4,0,0,0,.806,0V1.027L23.306,4.5,12.9,7.963V6.108A.381.381,0,0,0,12.5,5.7Zm.4,16.774V8.81l11.29-3.75V18.729Z" transform="translate(0 -0.1)" fill="#202020"/>
      <path id="Path_1712" data-name="Path 1712" d="M12.166,41.276a.148.148,0,0,0,.121-.04l2.46-.806a.408.408,0,1,0-.282-.766L12,40.469a.4.4,0,0,0-.242.524A.42.42,0,0,0,12.166,41.276Z" transform="translate(-7.005 -23.695)" fill="#202020"/>
    </g>
  </g>
</svg>
