<?xml version="1.0" encoding="utf-8"?>
<!-- Generator: Adobe Illustrator 23.0.3, SVG Export Plug-In . SVG Version: 6.00 Build 0)  -->
<svg version="1.1" id="Layer_1" xmlns="http://www.w3.org/2000/svg" xmlns:xlink="http://www.w3.org/1999/xlink" x="0px" y="0px"
	 viewBox="0 0 25 25" style="enable-background:new 0 0 25 25;" xml:space="preserve">
<style type="text/css">
	.st0{opacity:0.3;}
	.st1{fill:#F8F7FF;}
</style>
<g class="st0">
	<path class="st1" d="M20.1,11.5V6.3V6.2V6.1c0-0.2-0.1-0.4-0.3-0.5l-3.5-5.4C16.1,0.1,16,0,15.8,0H4.3C4.1,0,4,0.1,3.9,0.2L0.3,5.7
		C0.2,5.8,0.1,5.9,0.1,6v0.1C0,6.1,0,6.2,0,6.3v13.4c0,0.3,0.2,0.5,0.5,0.5h11C12.4,23,15,25,18.1,25c3.8,0,6.9-3.1,6.9-6.9
		C25,15,22.9,12.4,20.1,11.5z M10.6,1h4.9l3,4.6h-7.9V1z M4.6,1h5v4.6h-8L4.6,1z M1,19.2V6.6h18.1v4.7c-0.3,0-0.7-0.1-1-0.1
		c-3.8,0-6.9,3.1-6.9,6.9c0,0.4,0,0.7,0.1,1.1C11.3,19.2,1,19.2,1,19.2z M18.1,24c-3.3,0-5.9-2.6-5.9-5.9s2.6-5.9,5.9-5.9
		c0.4,0,0.9,0.1,1.3,0.1c0.1,0,0.1,0.1,0.2,0.1c2.5,0.7,4.4,3,4.4,5.7C24,21.4,21.4,24,18.1,24z"/>
	<path class="st1" d="M20.5,16.3l-2.8,3.2l-1.6-1.6c-0.2-0.2-0.5-0.2-0.7,0s-0.2,0.5,0,0.7l2,2c0.1,0.1,0.2,0.1,0.4,0.1l0,0
		c0.1,0,0.3-0.1,0.4-0.2l3.2-3.6c0.2-0.2,0.2-0.5,0-0.7C21,16,20.7,16.1,20.5,16.3z"/>
</g>
</svg>
