<svg xmlns="http://www.w3.org/2000/svg" xmlns:xlink="http://www.w3.org/1999/xlink" width="78" height="25.205" viewBox="0 0 78 25.205">
  <defs>
    <linearGradient id="linear-gradient" x1="-2.251" y1="0.518" x2="0.982" y2="0.498" gradientUnits="objectBoundingBox">
      <stop offset="0" stop-color="#121e4e"/>
      <stop offset="1" stop-color="#1b338a"/>
    </linearGradient>
    <linearGradient id="linear-gradient-2" x1="-1.738" y1="0.511" x2="2.08" y2="0.492" xlink:href="#linear-gradient"/>
    <linearGradient id="linear-gradient-3" x1="0.147" y1="0.502" x2="2.623" y2="0.482" xlink:href="#linear-gradient"/>
    <linearGradient id="linear-gradient-4" x1="-1.967" y1="0.508" x2="4.38" y2="0.488" xlink:href="#linear-gradient"/>
  </defs>
  <g id="payment_visa" transform="translate(-48.269 -18.077)">
    <path id="Path_1972" data-name="Path 1972" d="M455.492,45.458H449.62c-.215-1.032-.445-2.042-.627-3.061-.075-.423-.211-.587-.683-.581-2.355.03-4.71.023-7.064,0a.532.532,0,0,0-.607.44c-.324.971-.679,1.931-1.042,2.889-.049.13-.213.308-.324.309-2.122.019-4.245.014-6.429.014.4-.958.775-1.873,1.157-2.786q4.105-9.794,8.212-19.587a2.891,2.891,0,0,1,3.011-2.006h5.155c.17.8.342,1.58.506,2.366q2.02,9.679,4.04,19.357c.173.826.377,1.646.566,2.469ZM447.807,36.8l-1.861-8.92-.076-.015L442.631,36.8Z" transform="translate(-329.223 -2.581)" fill="url(#linear-gradient)"/>
    <path id="Path_1973" data-name="Path 1973" d="M324.9,18.077c.775.144,1.556.262,2.323.439.7.162,1.386.387,2.13.6l-1.1,5.141c-.982-.288-1.92-.619-2.885-.832a8.182,8.182,0,0,0-3.991-.034,4.046,4.046,0,0,0-1.5.8,1.37,1.37,0,0,0-.042,2.166,9.361,9.361,0,0,0,1.608,1.158c1.285.772,2.634,1.444,3.882,2.27A5.75,5.75,0,0,1,328.09,33.9a7.336,7.336,0,0,1-3.468,7.493,11.888,11.888,0,0,1-5.588,1.805,19.969,19.969,0,0,1-8.158-.925c-.178-.058-.351-.132-.525-.2a1.452,1.452,0,0,1-.176-.108l1.137-5.324c.453.2.878.4,1.312.571a11.367,11.367,0,0,0,6.437.8,4.576,4.576,0,0,0,1.656-.692,1.754,1.754,0,0,0,.2-2.887,15.508,15.508,0,0,0-2.125-1.4c-1.132-.689-2.334-1.277-3.4-2.048a5.709,5.709,0,0,1-2.555-4.06,6.943,6.943,0,0,1,2.706-6.411,11.374,11.374,0,0,1,6.05-2.348,3.194,3.194,0,0,0,.364-.087Z" transform="translate(-224.21)" fill="url(#linear-gradient-2)"/>
    <path id="Path_1974" data-name="Path 1974" d="M77.854,21.065c-.33.794-.642,1.551-.959,2.305Q72.363,34.185,67.838,45a.6.6,0,0,1-.667.431c-1.907-.016-3.815-.022-5.722,0-.4.005-.536-.136-.629-.5-1.617-6.3-3.261-12.6-4.86-18.9A3.319,3.319,0,0,0,53.978,23.6a31.551,31.551,0,0,0-5.466-1.767l-.243-.061c.009-.731.009-.731.7-.731H58.988a2.9,2.9,0,0,1,3.025,2.487q1.271,6.654,2.514,13.314c.037.194.078.387.134.66.086-.163.147-.254.186-.354q3.11-7.866,6.21-15.735a.5.5,0,0,1,.561-.381c1.936.015,3.873.007,5.809.008C77.552,21.046,77.677,21.057,77.854,21.065Z" transform="translate(0 -2.535)" fill="url(#linear-gradient-3)"/>
    <path id="Path_1975" data-name="Path 1975" d="M236.258,45.627l5.211-24.354h6.325c-.263,1.236-.521,2.447-.78,3.659q-2.149,10.051-4.288,20.1c-.1.466-.263.614-.747.6-1.733-.033-3.468-.013-5.2-.013Z" transform="translate(-160.932 -2.736)" fill="url(#linear-gradient-4)"/>
  </g>
</svg>
