<svg xmlns="http://www.w3.org/2000/svg" width="61.654" height="47.909" viewBox="0 0 61.654 47.909">
  <g id="payment_mastercard" transform="translate(-164.862 -473.875)">
    <g id="Group_5623" data-name="Group 5623" transform="translate(164.862 473.875)">
      <g id="Group_5620" data-name="Group 5620" transform="translate(3.111 40.527)">
        <path id="Path_1958" data-name="Path 1958" d="M185.076,648.56a1.865,1.865,0,0,0-.629-.413,2.106,2.106,0,0,0-.8-.147,3.014,3.014,0,0,0-.476.039,2.092,2.092,0,0,0-.484.139,1.832,1.832,0,0,0-.451.276,1.658,1.658,0,0,0-.372.445,1.814,1.814,0,0,0-.69-.661,2.033,2.033,0,0,0-1-.24,2.318,2.318,0,0,0-.39.034,1.776,1.776,0,0,0-.4.118,1.583,1.583,0,0,0-.708.595v-.616h-1.06v5.043h1.07v-2.795a1.507,1.507,0,0,1,.1-.571,1.234,1.234,0,0,1,.273-.419,1.135,1.135,0,0,1,.4-.255,1.367,1.367,0,0,1,.489-.087,1.053,1.053,0,0,1,.838.342,1.447,1.447,0,0,1,.3.979v2.805h1.07v-2.795a1.5,1.5,0,0,1,.1-.571,1.23,1.23,0,0,1,.273-.419,1.135,1.135,0,0,1,.4-.255,1.368,1.368,0,0,1,.489-.087,1.053,1.053,0,0,1,.838.342,1.447,1.447,0,0,1,.3.979v2.805h1.07V650a2.194,2.194,0,0,0-.145-.811A1.847,1.847,0,0,0,185.076,648.56Z" transform="translate(-177.623 -646.081)" fill="#161615"/>
        <path id="Path_1959" data-name="Path 1959" d="M218.6,648.741a1.974,1.974,0,0,0-.653-.539,2,2,0,0,0-.932-.2,2.458,2.458,0,0,0-1.79.748,2.549,2.549,0,0,0-.537.839,3.014,3.014,0,0,0,0,2.132,2.553,2.553,0,0,0,.537.84,2.46,2.46,0,0,0,1.79.747,2.017,2.017,0,0,0,.932-.2,1.943,1.943,0,0,0,.653-.537v.605h1.1v-5.043h-1.1Zm-.042,2.553a1.533,1.533,0,0,1-.311.511,1.444,1.444,0,0,1-.479.34,1.637,1.637,0,0,1-1.261-.005,1.423,1.423,0,0,1-.476-.347,1.539,1.539,0,0,1-.3-.513,1.915,1.915,0,0,1,0-1.253,1.538,1.538,0,0,1,.3-.513,1.42,1.42,0,0,1,.476-.348,1.636,1.636,0,0,1,1.261-.005,1.441,1.441,0,0,1,.479.34,1.532,1.532,0,0,1,.311.51,1.919,1.919,0,0,1,0,1.284Z" transform="translate(-205.51 -646.081)" fill="#161615"/>
        <path id="Path_1960" data-name="Path 1960" d="M244.207,650.661a2.72,2.72,0,0,0-1.289-.482l-.521-.079q-.174-.026-.326-.061a1.056,1.056,0,0,1-.263-.092.5.5,0,0,1-.176-.147.363.363,0,0,1-.066-.221.5.5,0,0,1,.25-.434,1.265,1.265,0,0,1,.7-.166,2.568,2.568,0,0,1,.466.042,3.792,3.792,0,0,1,.434.105,3.109,3.109,0,0,1,.374.139,3.058,3.058,0,0,1,.284.145l.474-.858a3.235,3.235,0,0,0-.921-.392,4.369,4.369,0,0,0-1.121-.139,3.08,3.08,0,0,0-.869.113,1.993,1.993,0,0,0-.655.321,1.4,1.4,0,0,0-.416.508,1.531,1.531,0,0,0-.145.674,1.243,1.243,0,0,0,.434.987,2.42,2.42,0,0,0,1.276.492l.527.069a1.657,1.657,0,0,1,.663.2.415.415,0,0,1,.211.355.5.5,0,0,1-.29.45,1.766,1.766,0,0,1-.858.166,3.3,3.3,0,0,1-.555-.042,2.811,2.811,0,0,1-.448-.113,2.176,2.176,0,0,1-.363-.163,2.672,2.672,0,0,1-.3-.2l-.51.826a2.7,2.7,0,0,0,.574.332,3.949,3.949,0,0,0,.59.2,3.718,3.718,0,0,0,.547.095q.258.024.453.024a3.581,3.581,0,0,0,.971-.121,2.185,2.185,0,0,0,.721-.34,1.505,1.505,0,0,0,.448-.521,1.439,1.439,0,0,0,.155-.666A1.205,1.205,0,0,0,244.207,650.661Z" transform="translate(-224.955 -646.098)" fill="#161615"/>
        <path id="Path_1961" data-name="Path 1961" d="M285.737,648.734a2.155,2.155,0,0,0-.753-.542,2.388,2.388,0,0,0-.966-.192,2.622,2.622,0,0,0-1.018.192,2.291,2.291,0,0,0-.792.542,2.464,2.464,0,0,0-.516.839,3.041,3.041,0,0,0-.184,1.079,3,3,0,0,0,.189,1.09,2.419,2.419,0,0,0,.532.837,2.358,2.358,0,0,0,.816.537,2.78,2.78,0,0,0,1.042.19,3.726,3.726,0,0,0,1.092-.158,2.744,2.744,0,0,0,.982-.553l-.547-.784a2.459,2.459,0,0,1-.7.392,2.2,2.2,0,0,1-.761.139,1.791,1.791,0,0,1-.516-.074,1.35,1.35,0,0,1-.447-.229,1.38,1.38,0,0,1-.342-.4,1.635,1.635,0,0,1-.195-.584h3.727q.011-.095.016-.2t.005-.211a3.138,3.138,0,0,0-.176-1.076A2.533,2.533,0,0,0,285.737,648.734Zm-3.077,1.487a1.891,1.891,0,0,1,.147-.5,1.355,1.355,0,0,1,.271-.395,1.14,1.14,0,0,1,.395-.255,1.429,1.429,0,0,1,.524-.089,1.171,1.171,0,0,1,.858.326,1.575,1.575,0,0,1,.421.916Z" transform="translate(-256.185 -646.081)" fill="#161615"/>
        <path id="Path_1962" data-name="Path 1962" d="M346.081,648.741a1.972,1.972,0,0,0-.653-.539,2,2,0,0,0-.932-.2,2.458,2.458,0,0,0-1.79.748,2.549,2.549,0,0,0-.537.839,3.014,3.014,0,0,0,0,2.132,2.553,2.553,0,0,0,.537.84,2.46,2.46,0,0,0,1.79.747,2.018,2.018,0,0,0,.932-.2,1.94,1.94,0,0,0,.653-.537v.605h1.1v-5.043h-1.1Zm-.042,2.553a1.534,1.534,0,0,1-.311.511,1.444,1.444,0,0,1-.479.34,1.637,1.637,0,0,1-1.261-.005,1.423,1.423,0,0,1-.476-.347,1.539,1.539,0,0,1-.3-.513,1.915,1.915,0,0,1,0-1.253,1.538,1.538,0,0,1,.3-.513,1.42,1.42,0,0,1,.476-.348,1.636,1.636,0,0,1,1.261-.005,1.441,1.441,0,0,1,.479.34,1.532,1.532,0,0,1,.311.51,1.923,1.923,0,0,1,0,1.284Z" transform="translate(-301.912 -646.081)" fill="#161615"/>
        <path id="Path_1963" data-name="Path 1963" d="M265.3,647.841a1.485,1.485,0,0,1-.524.1.907.907,0,0,1-.313-.053.645.645,0,0,1-.253-.166.8.8,0,0,1-.171-.292,1.3,1.3,0,0,1-.063-.432v-2.2h1.767v-1h-1.767v-1.526h-1.105V643.8h-1.005v1h1.005v2.216a2.021,2.021,0,0,0,.476,1.482,1.8,1.8,0,0,0,1.334.476,2.374,2.374,0,0,0,.861-.148,3.6,3.6,0,0,0,.47-.221l-.376-.921A2.848,2.848,0,0,1,265.3,647.841Z" transform="translate(-241.329 -641.754)" fill="#161615"/>
        <path id="Path_1964" data-name="Path 1964" d="M309.061,648a2.017,2.017,0,0,0-.837.168,1.779,1.779,0,0,0-.626.625v-.662h-1v5.043h1.009V650.4a1.71,1.71,0,0,1,.089-.574,1.236,1.236,0,0,1,.247-.426,1.024,1.024,0,0,1,.379-.263,1.278,1.278,0,0,1,.484-.09,2.153,2.153,0,0,1,.432.048,1.794,1.794,0,0,1,.221.059l.325-1.053a2.017,2.017,0,0,0-.27-.067A2.744,2.744,0,0,0,309.061,648Z" transform="translate(-275.16 -646.081)" fill="#161615"/>
        <path id="Path_1965" data-name="Path 1965" d="M371.8,648a2.017,2.017,0,0,0-.837.168,1.778,1.778,0,0,0-.626.625v-.662h-1v5.043h1.009V650.4a1.71,1.71,0,0,1,.089-.574,1.24,1.24,0,0,1,.247-.426,1.026,1.026,0,0,1,.379-.263,1.278,1.278,0,0,1,.484-.09,2.149,2.149,0,0,1,.431.048,1.807,1.807,0,0,1,.221.059l.325-1.053a2.015,2.015,0,0,0-.27-.067A2.741,2.741,0,0,0,371.8,648Z" transform="translate(-322.605 -646.081)" fill="#161615"/>
        <path id="Path_1966" data-name="Path 1966" d="M387.78,640.131v2.66a1.973,1.973,0,0,0-.653-.539,2,2,0,0,0-.932-.2,2.459,2.459,0,0,0-1.79.748,2.549,2.549,0,0,0-.537.839,3.014,3.014,0,0,0,0,2.132,2.553,2.553,0,0,0,.537.84,2.461,2.461,0,0,0,1.79.747,2.018,2.018,0,0,0,.932-.2,1.942,1.942,0,0,0,.653-.537v.605h1.1v-7.092Zm-.042,5.213a1.533,1.533,0,0,1-.311.511,1.445,1.445,0,0,1-.479.34,1.636,1.636,0,0,1-1.26-.005,1.424,1.424,0,0,1-.477-.347,1.54,1.54,0,0,1-.3-.513,1.915,1.915,0,0,1,0-1.253,1.538,1.538,0,0,1,.3-.513,1.422,1.422,0,0,1,.477-.348,1.634,1.634,0,0,1,1.26-.005,1.441,1.441,0,0,1,.479.34,1.533,1.533,0,0,1,.311.51,1.919,1.919,0,0,1,0,1.284Z" transform="translate(-333.447 -640.131)" fill="#161615"/>
        <path id="Path_1967" data-name="Path 1967" d="M322.585,649.486a1.481,1.481,0,0,1,.5-.332,1.638,1.638,0,0,1,.626-.118h0a1.963,1.963,0,0,1,.689.118,1.657,1.657,0,0,1,.534.318l.529-.881a2.7,2.7,0,0,0-.671-.39,2.987,2.987,0,0,0-2.163,0,2.608,2.608,0,0,0-.858.558,2.579,2.579,0,0,0-.566.84,2.8,2.8,0,0,0,0,2.106,2.578,2.578,0,0,0,.566.839,2.609,2.609,0,0,0,.858.558,2.99,2.99,0,0,0,2.163,0,2.7,2.7,0,0,0,.671-.39l-.529-.881a1.657,1.657,0,0,1-.534.318,1.963,1.963,0,0,1-.689.118h0a1.638,1.638,0,0,1-.626-.118,1.477,1.477,0,0,1-.5-.332,1.541,1.541,0,0,1-.332-.51,1.833,1.833,0,0,1,0-1.311A1.546,1.546,0,0,1,322.585,649.486Z" transform="translate(-286.05 -646.081)" fill="#161615"/>
      </g>
      <g id="Group_5621" data-name="Group 5621" transform="translate(60.33 46.88)">
        <path id="Path_1968" data-name="Path 1968" d="M412.89,666.2a.525.525,0,0,1,.206.041.536.536,0,0,1,.168.11.519.519,0,0,1,.113.163.5.5,0,0,1,0,.4.527.527,0,0,1-.113.164.533.533,0,0,1-.168.111.52.52,0,0,1-.206.041.535.535,0,0,1-.21-.041.527.527,0,0,1-.169-.111.518.518,0,0,1-.112-.164.512.512,0,0,1,0-.4.51.51,0,0,1,.112-.163.53.53,0,0,1,.169-.11A.54.54,0,0,1,412.89,666.2Zm0,.886a.36.36,0,0,0,.144-.029.367.367,0,0,0,.2-.2.381.381,0,0,0,0-.29.364.364,0,0,0-.078-.118.373.373,0,0,0-.117-.079.359.359,0,0,0-.144-.029.369.369,0,0,0-.147.029.381.381,0,0,0-.118.079.36.36,0,0,0-.079.118.384.384,0,0,0,0,.29.366.366,0,0,0,.079.118.374.374,0,0,0,.118.079A.37.37,0,0,0,412.89,667.081Zm.03-.6a.213.213,0,0,1,.143.042.14.14,0,0,1,.049.112.125.125,0,0,1-.035.091.178.178,0,0,1-.1.047l.142.164h-.153l-.127-.159h-.015v.159h-.128v-.456Zm-.1.111v.084h.1a.1.1,0,0,0,.046-.009.034.034,0,0,0,.016-.032.035.035,0,0,0-.016-.032.083.083,0,0,0-.046-.01Z" transform="translate(-412.359 -666.195)" fill="#161615"/>
      </g>
      <g id="Group_5622" data-name="Group 5622" transform="translate(0 0)">
        <path id="Path_1969" data-name="Path 1969" d="M188.438,492.88a18.966,18.966,0,0,1,7.216-14.9,19,19,0,1,0,0,29.8A18.965,18.965,0,0,1,188.438,492.88Z" transform="translate(-164.862 -473.875)" fill="#d90010"/>
        <ellipse id="Ellipse_158" data-name="Ellipse 158" cx="7.216" cy="14.901" rx="7.216" ry="14.901" transform="translate(23.576 4.104)" fill="#e54800"/>
        <path id="Path_1970" data-name="Path 1970" d="M411.525,591.809v-.556H411.3V591.1h.616v.153h-.225v.556Zm1.191,0v-.492l-.159.424h-.176l-.16-.423v.491h-.166V591.1h.238l.176.454.175-.454h.238v.709Z" transform="translate(-351.228 -562.525)" fill="#f78b00"/>
        <path id="Path_1971" data-name="Path 1971" d="M302.973,473.875a18.919,18.919,0,0,0-11.788,4.1,18.993,18.993,0,0,1,0,29.8,19,19,0,1,0,11.788-33.906Z" transform="translate(-260.392 -473.875)" fill="#f78b00"/>
      </g>
    </g>
  </g>
</svg>
