<svg xmlns="http://www.w3.org/2000/svg" width="93.667" height="22.726" viewBox="0 0 93.667 22.726">
  <g id="payment_paypal" transform="translate(-762 -1797)">
    <g id="Group_5631" data-name="Group 5631" transform="translate(762 1797)">
      <g id="Group_5629" data-name="Group 5629" transform="translate(27.454 5.082)">
        <g id="Group_5628" data-name="Group 5628">
          <g id="Group_5627" data-name="Group 5627">
            <g id="Group_5626" data-name="Group 5626">
              <path id="Path_1994" data-name="Path 1994" d="M479.1,278.492h-5.151a.715.715,0,0,0-.707.6L471.155,292.3a.429.429,0,0,0,.424.5h2.643a.5.5,0,0,0,.495-.423l.591-3.744a.716.716,0,0,1,.707-.6h1.63c3.392,0,5.35-1.642,5.862-4.9a3.967,3.967,0,0,0-.657-3.324A4.778,4.778,0,0,0,479.1,278.492Zm.594,4.823c-.281,1.849-1.693,1.849-3.059,1.849h-.777l.545-3.452a.429.429,0,0,1,.424-.362h.356c.93,0,1.808,0,2.26.53A1.719,1.719,0,0,1,479.69,283.315Z" transform="translate(-434.416 -278.492)" fill="#008ad8"/>
              <path id="Path_1995" data-name="Path 1995" d="M320.4,278.492h-5.15a.716.716,0,0,0-.707.6L312.459,292.3a.429.429,0,0,0,.424.5h2.459a.715.715,0,0,0,.707-.6l.562-3.563a.715.715,0,0,1,.707-.6h1.63c3.392,0,5.35-1.642,5.862-4.9a3.967,3.967,0,0,0-.657-3.324A4.778,4.778,0,0,0,320.4,278.492Zm.594,4.823c-.281,1.849-1.693,1.849-3.059,1.849h-.777l.545-3.452a.429.429,0,0,1,.424-.362h.356c.93,0,1.808,0,2.26.53A1.719,1.719,0,0,1,320.993,283.315Z" transform="translate(-312.454 -278.492)" fill="#002575"/>
              <path id="Path_1996" data-name="Path 1996" d="M374.558,298.3h-2.466a.429.429,0,0,0-.424.363l-.108.69-.172-.25a3.51,3.51,0,0,0-2.913-1.034,5.671,5.671,0,0,0-5.505,4.961,4.657,4.657,0,0,0,.918,3.789,3.86,3.86,0,0,0,3.106,1.254,4.722,4.722,0,0,0,3.414-1.411l-.11.685a.429.429,0,0,0,.424.5h2.221a.715.715,0,0,0,.707-.6l1.333-8.442A.429.429,0,0,0,374.558,298.3Zm-3.437,4.8a2.749,2.749,0,0,1-2.783,2.355,1.91,1.91,0,0,1-2.043-2.4,2.76,2.76,0,0,1,2.764-2.373,2.078,2.078,0,0,1,1.644.672A2.123,2.123,0,0,1,371.121,303.1Z" transform="translate(-351.219 -293.539)" fill="#002575"/>
              <path id="Path_1997" data-name="Path 1997" d="M533.255,298.3h-2.466a.429.429,0,0,0-.424.363l-.109.69-.172-.25a3.51,3.51,0,0,0-2.913-1.034,5.671,5.671,0,0,0-5.5,4.961,4.655,4.655,0,0,0,.918,3.789,3.86,3.86,0,0,0,3.106,1.254,4.722,4.722,0,0,0,3.414-1.411l-.11.685a.429.429,0,0,0,.424.5h2.221a.715.715,0,0,0,.707-.6l1.333-8.442A.429.429,0,0,0,533.255,298.3Zm-3.437,4.8a2.75,2.75,0,0,1-2.784,2.355,1.911,1.911,0,0,1-2.042-2.4,2.76,2.76,0,0,1,2.764-2.373,2.078,2.078,0,0,1,1.644.672A2.124,2.124,0,0,1,529.818,303.1Z" transform="translate(-473.182 -293.539)" fill="#008ad8"/>
              <path id="Path_1998" data-name="Path 1998" d="M431.875,299.074H429.4a.716.716,0,0,0-.592.314l-3.419,5.036-1.449-4.839a.716.716,0,0,0-.686-.51h-2.437a.429.429,0,0,0-.406.568l2.729,8.012-2.568,3.622a.429.429,0,0,0,.35.678H423.4a.715.715,0,0,0,.588-.308l8.244-11.9A.429.429,0,0,0,431.875,299.074Z" transform="translate(-395.401 -294.31)" fill="#002575"/>
              <path id="Path_1999" data-name="Path 1999" d="M577.5,278.855,575.386,292.3a.429.429,0,0,0,.424.5h2.126a.715.715,0,0,0,.707-.6l2.084-13.206a.429.429,0,0,0-.424-.5h-2.379A.429.429,0,0,0,577.5,278.855Z" transform="translate(-514.52 -278.492)" fill="#008ad8"/>
            </g>
          </g>
        </g>
      </g>
      <g id="Group_5630" data-name="Group 5630" transform="translate(0 0)">
        <path id="Path_2000" data-name="Path 2000" d="M211.2,262.311a4.516,4.516,0,0,0-.958-4.06c-1.053-1.2-2.955-1.713-5.388-1.713h-7.063a1.011,1.011,0,0,0-1,.853l-2.941,18.65a.606.606,0,0,0,.6.7h4.36l-.3,1.909a.531.531,0,0,0,.524.613h3.675a.884.884,0,0,0,.873-.746l.036-.187.692-4.391.045-.243a.884.884,0,0,1,.873-.746h.55c3.561,0,6.349-1.447,7.163-5.63a4.794,4.794,0,0,0-.736-4.233,3.5,3.5,0,0,0-1.006-.776h0" transform="translate(-193.846 -256.537)" fill="#008ad8"/>
        <path id="Path_2001" data-name="Path 2001" d="M211.2,262.311a4.516,4.516,0,0,0-.958-4.06c-1.053-1.2-2.955-1.713-5.388-1.713h-7.063a1.011,1.011,0,0,0-1,.853l-2.941,18.65a.606.606,0,0,0,.6.7h4.36l1.1-6.946-.034.218a1.007,1.007,0,0,1,.995-.853h2.072c4.07,0,7.257-1.654,8.189-6.436.028-.141.051-.279.072-.414" transform="translate(-193.846 -256.537)" fill="#001a57"/>
        <path id="Path_2002" data-name="Path 2002" d="M201.085,262.334a.883.883,0,0,1,.873-.746H207.5a11.549,11.549,0,0,1,1.827.133q.24.038.466.089t.44.113q.107.031.209.065a4.988,4.988,0,0,1,.765.323,4.516,4.516,0,0,0-.958-4.06c-1.053-1.2-2.955-1.713-5.388-1.713h-7.063a1.011,1.011,0,0,0-1,.853l-2.941,18.65a.606.606,0,0,0,.6.7h4.361l1.1-6.946Z" transform="translate(-193.846 -256.537)" fill="#002575"/>
      </g>
    </g>
  </g>
</svg>
