<svg xmlns="http://www.w3.org/2000/svg" width="85" height="85" viewBox="0 0 85 85">
  <g id="photo_placeholder" data-name="photo placeholder" transform="translate(-2616 1226)">
    <g id="Rectangle_1894" data-name="Rectangle 1894" transform="translate(2616 -1226)" fill="#f8f8f8" stroke="#d6d6d6" stroke-width="1">
      <rect width="85" height="85" rx="5" stroke="none"/>
      <rect x="0.5" y="0.5" width="84" height="84" rx="4.5" fill="none"/>
    </g>
    <g id="photo-camera" transform="translate(2646 -1228.019)">
      <path id="Path_1857" data-name="Path 1857" d="M22.093,54.756H2.887A2.89,2.89,0,0,1,0,51.869V40.161a2.89,2.89,0,0,1,2.887-2.887H6.806l.343-1.157a1.424,1.424,0,0,1,1.4-1.1h7.883a1.452,1.452,0,0,1,1.4,1.1l.009.039.313,1.112h3.938a2.89,2.89,0,0,1,2.887,2.887V51.869A2.891,2.891,0,0,1,22.093,54.756ZM2.887,38.237A1.927,1.927,0,0,0,.962,40.161V51.869a1.927,1.927,0,0,0,1.925,1.925H22.093a1.927,1.927,0,0,0,1.925-1.925V40.161a1.927,1.927,0,0,0-1.925-1.925H17.427L16.9,36.358a.483.483,0,0,0-.469-.377H8.548a.478.478,0,0,0-.469.377l-.556,1.878Zm9.6,13.611A6.107,6.107,0,1,1,18.6,45.741,6.114,6.114,0,0,1,12.491,51.847Zm0-11.251a5.144,5.144,0,1,0,5.144,5.145A5.15,5.15,0,0,0,12.491,40.6Zm8.981-.574a.888.888,0,1,0,.887.888A.888.888,0,0,0,21.472,40.023Z" fill="#4d6978"/>
    </g>
  </g>
</svg>
