<svg xmlns="http://www.w3.org/2000/svg" viewBox="0 0 20.27 11.99"><defs><style>.cls-1{fill:#4d41ff;}</style></defs><title>Artboard 5</title><g id="Layer_3" data-name="Layer 3"><path class="cls-1" d="M19.71,4.42A12.43,12.43,0,0,0,10.14,0,12.46,12.46,0,0,0,.56,4.42,2.37,2.37,0,0,0,.68,7.61h0C2.35,9.24,5.79,12,10.14,12s7.79-2.75,9.45-4.38A2.36,2.36,0,0,0,19.71,4.42Zm-.82,2.47C17.34,8.42,14.13,11,10.14,11a5,5,0,0,1-5-5,.5.5,0,0,0-.5-.5.5.5,0,0,0-.5.5A5.93,5.93,0,0,0,5.6,9.9a15.84,15.84,0,0,1-4.21-3,1.34,1.34,0,0,1-.07-1.82A11.47,11.47,0,0,1,10.14,1a5,5,0,0,1,5,5,.51.51,0,0,0,.5.5.5.5,0,0,0,.5-.5,6,6,0,0,0-1.71-4.19A11.72,11.72,0,0,1,19,5.07,1.34,1.34,0,0,1,18.89,6.89Z"/><path class="cls-1" d="M10.14,3.42A2.58,2.58,0,1,0,12.71,6,2.59,2.59,0,0,0,10.14,3.42Zm0,4.15A1.58,1.58,0,1,1,11.71,6,1.57,1.57,0,0,1,10.14,7.57Z"/></g></svg>