<svg xmlns="http://www.w3.org/2000/svg" width="21.824" height="21.824" viewBox="0 0 21.824 21.824">
  <g id="production_inactive" opacity="0.3">
    <g id="Group_4988" data-name="Group 4988">
      <path id="Path_1933" data-name="Path 1933" d="M12.231,21.824H9.593a1.016,1.016,0,0,1-1.015-.918l-.27-1.621a8.745,8.745,0,0,1-1.473-.611l-1.357.969a1,1,0,0,1-.627.217,1.014,1.014,0,0,1-.722-.3L2.263,17.7A1.017,1.017,0,0,1,2.2,16.328L3.15,14.99a8.721,8.721,0,0,1-.611-1.473L.894,13.243A1.008,1.008,0,0,1,0,12.231V9.593A1.017,1.017,0,0,1,.918,8.578l1.621-.271A8.746,8.746,0,0,1,3.15,6.834L2.181,5.476a1.008,1.008,0,0,1,.082-1.348L4.128,2.263A1.046,1.046,0,0,1,5.5,2.194l1.339.955a8.7,8.7,0,0,1,1.473-.611L8.581.895A1.01,1.01,0,0,1,9.593,0h2.638a1.018,1.018,0,0,1,1.016.917l.271,1.621a8.728,8.728,0,0,1,1.472.611l1.358-.969a1,1,0,0,1,.626-.216,1.013,1.013,0,0,1,.721.3L19.56,4.129A1.016,1.016,0,0,1,19.63,5.5l-.955,1.339a8.693,8.693,0,0,1,.611,1.473l1.644.274a1.01,1.01,0,0,1,.894,1.012v2.638a1.014,1.014,0,0,1-.919,1.014l-1.62.271a8.713,8.713,0,0,1-.611,1.473l.969,1.357A1.009,1.009,0,0,1,19.56,17.7L17.7,19.56a1.045,1.045,0,0,1-1.368.068l-1.338-.955a8.711,8.711,0,0,1-1.472.611l-.275,1.645A1.01,1.01,0,0,1,12.231,21.824ZM6.808,17.889a.358.358,0,0,1,.176.046,8.036,8.036,0,0,0,1.74.722.361.361,0,0,1,.257.288l.31,1.867a.309.309,0,0,0,.3.292h2.638a.3.3,0,0,0,.3-.268l.315-1.89a.36.36,0,0,1,.258-.287,8.034,8.034,0,0,0,1.739-.722.36.36,0,0,1,.386.021l1.54,1.1a.3.3,0,0,0,.419-.006l1.865-1.865a.3.3,0,0,0,.021-.4l-1.115-1.559a.361.361,0,0,1-.021-.386,7.946,7.946,0,0,0,.721-1.739.361.361,0,0,1,.288-.258l1.867-.311a.308.308,0,0,0,.292-.3V9.594a.3.3,0,0,0-.268-.3l-1.89-.314a.361.361,0,0,1-.288-.258,7.941,7.941,0,0,0-.721-1.738.361.361,0,0,1,.021-.386l1.1-1.541a.305.305,0,0,0-.006-.418L17.185,2.774a.306.306,0,0,0-.4-.021l-1.56,1.115a.36.36,0,0,1-.386.021A8.015,8.015,0,0,0,13.1,3.168a.36.36,0,0,1-.258-.288l-.311-1.867a.307.307,0,0,0-.3-.293H9.593a.3.3,0,0,0-.3.268l-.314,1.89a.36.36,0,0,1-.257.288,7.977,7.977,0,0,0-1.739.722A.361.361,0,0,1,6.6,3.868l-1.542-1.1a.3.3,0,0,0-.419.006L2.773,4.639a.3.3,0,0,0-.02.4L3.868,6.6a.361.361,0,0,1,.021.386,8.01,8.01,0,0,0-.722,1.739.36.36,0,0,1-.288.258l-1.867.311a.306.306,0,0,0-.292.3v2.638a.3.3,0,0,0,.267.3l1.891.314a.36.36,0,0,1,.288.258,8.037,8.037,0,0,0,.722,1.74.36.36,0,0,1-.021.386l-1.1,1.54a.305.305,0,0,0,.005.419L4.638,19.05a.3.3,0,0,0,.4.021L6.6,17.956A.363.363,0,0,1,6.808,17.889Zm4.1-2.66a4.317,4.317,0,1,1,4.317-4.317A4.322,4.322,0,0,1,10.912,15.229Zm0-7.913a3.6,3.6,0,1,0,3.6,3.6A3.6,3.6,0,0,0,10.912,7.315Z" fill="#fff"/>
    </g>
  </g>
</svg>
