<?xml version="1.0" encoding="utf-8"?>
<!-- Generator: Adobe Illustrator 23.0.3, SVG Export Plug-In . SVG Version: 6.00 Build 0)  -->
<svg version="1.1" id="Layer_1" xmlns="http://www.w3.org/2000/svg" xmlns:xlink="http://www.w3.org/1999/xlink" x="0px" y="0px"
	 viewBox="0 0 24 25" style="enable-background:new 0 0 24 25;" xml:space="preserve">
<style type="text/css">
	.st0{fill:#FFFFFF;}
</style>
<title>Asset 5</title>
<g>
	<path class="st0" d="M22.5,6.1C22.5,6.1,22.5,6.1,22.5,6.1c0-0.1-0.1-0.2-0.1-0.3l-5.8-5.7C16.5,0.1,16.5,0,16.4,0c0,0,0,0-0.1,0
		c0,0,0,0-0.1,0H2C1.7,0,1.5,0.2,1.5,0.5v24C1.5,24.8,1.7,25,2,25H22c0.3,0,0.5-0.2,0.5-0.5L22.5,6.1C22.5,6.2,22.5,6.2,22.5,6.1z
		 M16.8,1.7l2.8,2.8l1.3,1.2h-4.1V1.7z M2.5,24V1h13.3v5.2c0,0.3,0.2,0.5,0.5,0.5h5.3V24H2.5z"/>
	<path class="st0" d="M6.5,10.5h-1C5.3,10.5,5,10.7,5,11s0.2,0.5,0.5,0.5h1C6.8,11.5,7,11.3,7,11S6.8,10.5,6.5,10.5z"/>
	<path class="st0" d="M6.5,14.3h-1c-0.3,0-0.5,0.2-0.5,0.5s0.2,0.5,0.5,0.5h1c0.3,0,0.5-0.2,0.5-0.5S6.8,14.3,6.5,14.3z"/>
	<path class="st0" d="M6.5,18.1h-1c-0.3,0-0.5,0.2-0.5,0.5s0.2,0.5,0.5,0.5h1c0.3,0,0.5-0.2,0.5-0.5S6.8,18.1,6.5,18.1z"/>
	<path class="st0" d="M18.5,10.5H9c-0.3,0-0.5,0.2-0.5,0.5s0.2,0.5,0.5,0.5h9.5c0.3,0,0.5-0.2,0.5-0.5S18.7,10.5,18.5,10.5z"/>
	<path class="st0" d="M18.5,14.3H9c-0.3,0-0.5,0.2-0.5,0.5s0.2,0.5,0.5,0.5h9.5c0.3,0,0.5-0.2,0.5-0.5S18.7,14.3,18.5,14.3z"/>
	<path class="st0" d="M18.5,18.1H9c-0.3,0-0.5,0.2-0.5,0.5s0.2,0.5,0.5,0.5h9.5c0.3,0,0.5-0.2,0.5-0.5S18.7,18.1,18.5,18.1z"/>
</g>
</svg>
