<?xml version="1.0" encoding="utf-8"?>
<!-- Generator: Adobe Illustrator 23.0.3, SVG Export Plug-In . SVG Version: 6.00 Build 0)  -->
<svg version="1.1" id="Layer_1" xmlns="http://www.w3.org/2000/svg" xmlns:xlink="http://www.w3.org/1999/xlink" x="0px" y="0px"
	 viewBox="0 0 20.8 14" style="enable-background:new 0 0 20.8 14;" xml:space="preserve">
<style type="text/css">
	.st0{fill:#FFFFFF;}
</style>
<g id="view" transform="translate(-1237.25 -508.916)">
	<g id="Path_792">
		<path class="st0" d="M1247.5,523c-6.6,0-10-6.4-10.2-6.7c-0.1-0.2-0.1-0.5,0-0.7c0.1-0.3,3.6-6.7,10.2-6.7
			c6.5,0,10.2,6.4,10.4,6.6c0.1,0.2,0.1,0.5,0,0.7C1257.8,516.6,1254.1,523,1247.5,523z M1238.9,515.9c0.8,1.3,3.8,5.5,8.7,5.5
			c4.8,0,8-4.2,8.8-5.5c-0.9-1.3-4-5.5-8.8-5.5C1242.7,510.4,1239.7,514.7,1238.9,515.9z"/>
	</g>
	<g id="Ellipse_68">
		<path class="st0" d="M1247.5,520.1c-2.4,0-4.4-2-4.4-4.4c0-2.4,2-4.4,4.4-4.4c2.4,0,4.4,2,4.4,4.4
			C1251.9,518.2,1249.9,520.1,1247.5,520.1z M1247.5,512.9c-1.6,0-2.9,1.3-2.9,2.9c0,1.6,1.3,2.9,2.9,2.9c1.6,0,2.9-1.3,2.9-2.9
			C1250.4,514.2,1249.1,512.9,1247.5,512.9z"/>
	</g>
	<g id="Path_793">
		<path class="st0" d="M1247.5,518C1247.5,518,1247.5,518,1247.5,518c-0.4,0-0.7-0.1-1-0.2l-0.1,0c-0.5-0.3-0.9-0.8-1-1.4
			c-0.1-0.6-0.1-1.1,0.2-1.6c0.2-0.4,0.7-0.5,1-0.3c0.4,0.2,0.5,0.7,0.3,1c-0.1,0.2-0.1,0.3-0.1,0.5c0,0.2,0.2,0.3,0.3,0.4
			c0.1,0,0.3,0.1,0.5,0.1c0.4,0,0.7,0.4,0.7,0.8C1248.3,517.7,1247.9,518,1247.5,518z"/>
	</g>
</g>
</svg>
