<?xml version="1.0" encoding="utf-8"?>
<!-- Generator: Adobe Illustrator 23.0.3, SVG Export Plug-In . SVG Version: 6.00 Build 0)  -->
<svg version="1.1" id="Layer_1" xmlns="http://www.w3.org/2000/svg" xmlns:xlink="http://www.w3.org/1999/xlink" x="0px" y="0px"
	 viewBox="0 0 20 20" style="enable-background:new 0 0 20 20;" xml:space="preserve">
<style type="text/css">
	.st0{fill:#4D41FF;}
</style>
<path class="st0" d="M14.6,9.5h-4v-4c0-0.3-0.3-0.6-0.6-0.4c-0.3,0-0.5,0.2-0.5,0.5v4h-4C5.2,9.5,5,9.7,5,10s0.2,0.5,0.5,0.5h4v4.1
	c0,0.3,0.2,0.5,0.5,0.5c0.3,0,0.6-0.3,0.6-0.6v-4h4c0.3,0,0.5-0.2,0.5-0.5S14.8,9.5,14.6,9.5z"/>
<path class="st0" d="M10,1c-5,0-9,4-9,9s4,9,9,9s9-4,9-9S15,1,10,1 M10,0c5.5,0,10,4.5,10,10s-4.5,10-10,10S0,15.5,0,10S4.5,0,10,0z
	"/>
</svg>
