<?xml version="1.0" encoding="utf-8"?>
<!-- Generator: Adobe Illustrator 23.0.3, SVG Export Plug-In . SVG Version: 6.00 Build 0)  -->
<svg version="1.1" id="Layer_1" xmlns="http://www.w3.org/2000/svg" xmlns:xlink="http://www.w3.org/1999/xlink" x="0px" y="0px"
	 viewBox="0 0 25 25" style="enable-background:new 0 0 25 25;" xml:space="preserve">
<style type="text/css">
	.st0{opacity:0.3;fill:#F8F7FF;enable-background:new    ;}
	.st1{opacity:0.3;fill:#F8F7FF;}
</style>
<path class="st0" d="M24.5,3.4h-4.3V3.3V0.5C20.2,0.2,20,0,19.7,0c-0.3,0-0.5,0.2-0.5,0.5v2.8v0.1H13V3.3V0.5C13,0.2,12.8,0,12.5,0
	C12.2,0,12,0.2,12,0.5v2.8v0.1H5.7V3.3V0.5C5.7,0.2,5.5,0,5.2,0C4.9,0,4.7,0.2,4.7,0.5v2.8v0.1H0.5C0.2,3.4,0,3.6,0,3.9v20.6
	C0,24.8,0.2,25,0.5,25h24c0.3,0,0.5-0.2,0.5-0.5V3.9C25,3.6,24.8,3.4,24.5,3.4z M24,24H1V4.4h23V24z"/>
<path class="st1" d="M12.4,10.7H4.2c-0.3,0-0.5,0.2-0.5,0.5v4.1c0,0.3,0.2,0.5,0.5,0.5h8.2c0.3,0,0.5-0.2,0.5-0.5v-4.1
	C12.9,10.9,12.7,10.7,12.4,10.7z M11.9,14.8H4.7v-3.1h7.2V14.8z"/>
<path class="st1" d="M20.7,16.8h-4.1c-0.3,0-0.5,0.2-0.5,0.5v4.1c0,0.3,0.2,0.5,0.5,0.5h4.1c0.3,0,0.5-0.2,0.5-0.5v-4.1
	C21.2,17,21,16.8,20.7,16.8z M20.2,20.9h-3.1v-3.1h3.1V20.9z"/>
</svg>
