<?xml version="1.0" encoding="utf-8"?>
<!-- Generator: Adobe Illustrator 23.0.3, SVG Export Plug-In . SVG Version: 6.00 Build 0)  -->
<svg version="1.1" id="Layer_1" xmlns="http://www.w3.org/2000/svg" xmlns:xlink="http://www.w3.org/1999/xlink" x="0px" y="0px"
	 viewBox="0 0 21.7 21.7" style="enable-background:new 0 0 21.7 21.7;" xml:space="preserve">
<style type="text/css">
	.st0{fill:#FFFFFF;}
</style>
<g id="Path_1927">
	<path class="st0" d="M21.2,21.7c-0.3,0-0.5-0.2-0.5-0.5v-16l-9.8-4.1L1,5.2v16c0,0.3-0.2,0.5-0.5,0.5S0,21.5,0,21.2V4.9
		c0-0.2,0.1-0.4,0.3-0.5l10.4-4.3C10.8,0,11,0,11.1,0.1l10.3,4.3c0.2,0.1,0.3,0.3,0.3,0.5v16.3C21.7,21.5,21.5,21.7,21.2,21.7z"/>
</g>
<path class="st0" d="M9.5,16.1H3.8c-0.3,0-0.5,0.2-0.5,0.5v4c0,0.3,0.2,0.5,0.5,0.5h5.7c0.2,0,0.5-0.2,0.5-0.5v-4
	C10,16.3,9.8,16.1,9.5,16.1z M9,20.1H4.3v-3H9V20.1z"/>
<path class="st0" d="M9.5,9.5H3.8c-0.3,0-0.5,0.2-0.5,0.5v4c0,0.3,0.2,0.5,0.5,0.5h5.7c0.2,0,0.5-0.2,0.5-0.5v-4
	C10,9.7,9.8,9.5,9.5,9.5z M9,13.5H4.3v-3H9V13.5z"/>
<path class="st0" d="M17.9,16.1h-5.7c-0.3,0-0.5,0.2-0.5,0.5v4c0,0.3,0.2,0.5,0.5,0.5h5.7c0.2,0,0.5-0.2,0.5-0.5v-4
	C18.4,16.3,18.2,16.1,17.9,16.1z M17.4,20.1h-4.7v-3h4.7V20.1z"/>
</svg>
