<?xml version="1.0" encoding="utf-8"?>
<!-- Generator: Adobe Illustrator 23.0.3, SVG Export Plug-In . SVG Version: 6.00 Build 0)  -->
<svg version="1.1" id="Layer_1" xmlns="http://www.w3.org/2000/svg" xmlns:xlink="http://www.w3.org/1999/xlink" x="0px" y="0px"
	 viewBox="0 0 16 15.3" style="enable-background:new 0 0 16 15.3;" xml:space="preserve">
<style type="text/css">
	.st0{fill:#4D41FF;}
</style>
<g>
	<path class="st0" d="M2.3,13.3L6,12.5c0.1,0,0.2-0.1,0.2-0.1l6.9-6.9l0,0l1.3-1.3c0.4-0.4,0.6-1,0.6-1.6S14.8,1.4,14.3,1l-0.1-0.1
		c-0.9-0.8-2.2-1.1-3.1-0.4C11,0.6,9.7,2,9.7,2l0,0L2.8,8.9C2.6,9.1,2.5,9.2,2.5,9.3c0,0-0.6,2.4-0.8,3.4c-0.1,0.2-0.1,0.3,0.1,0.5
		C1.9,13.4,2.3,13.3,2.3,13.3z M11.7,1.5c0.4-0.4,1.4-0.4,1.8,0l0.1,0.1l0.1,0.1c0.2,0.2,0.4,0.5,0.4,0.9c0,0.3,0,0.6-0.3,0.9l-1,1
		l-2-2C10.8,2.5,11.5,1.8,11.7,1.5z M10,3.1l2.1,2.1l-6.2,6.2L3.8,9.2L10,3.1z M3.4,10.2l1.5,1.5l-2,0.4L3.4,10.2z"/>
	<path class="st0" d="M15.5,14.3h-15c-0.3,0-0.5,0.2-0.5,0.5s0.2,0.5,0.5,0.5h15c0.3,0,0.5-0.2,0.5-0.5S15.8,14.3,15.5,14.3z"/>
</g>
</svg>
