<?xml version="1.0" encoding="utf-8"?>
<!-- Generator: Adobe Illustrator 23.0.6, SVG Export Plug-In . SVG Version: 6.00 Build 0)  -->
<svg version="1.1" id="Layer_1" xmlns="http://www.w3.org/2000/svg" xmlns:xlink="http://www.w3.org/1999/xlink" x="0px" y="0px"
	 viewBox="0 0 26.5 25" style="enable-background:new 0 0 26.5 25;" xml:space="preserve">
<style type="text/css">
	.st0{fill:#FFFFFF;}
</style>
<path class="st0" d="M23.5,16.7c0.3,0,0.7,0.1,0.9,0.3c0.1,0.1,0.5,0.2,0.6,0.1c0.2-0.1,0.3-0.3,0.3-0.6v-4.4c0-0.3-0.2-0.6-0.6-0.6
	H13.8V8.1c0-0.2-0.1-0.5-0.3-0.6s-0.5,0-0.7,0.1c-0.2,0.3-0.6,0.5-1,0.5c-0.7,0-1.3-0.6-1.3-1.3s0.6-1.4,1.4-1.4
	c0.3,0,0.7,0.1,1,0.5C13,6.1,13.4,6.1,13.6,6c0.2-0.1,0.3-0.3,0.3-0.6V1.1c0-0.3-0.2-0.6-0.6-0.6H1.8c-0.3,0-0.6,0.2-0.6,0.6v4.4
	c-0.1,0.2,0,0.5,0.2,0.5C1.7,6,2,5.9,2.2,5.8C2.4,5.5,2.7,5.4,3,5.4c0.7,0,1.4,0.6,1.4,1.4c0,0.7-0.6,1.4-1.4,1.4
	C2.7,8.1,2.4,8,2.1,7.7C2,7.6,1.7,7.5,1.5,7.6C1.3,7.7,1.2,8,1.2,8.2v4c0,0,0,0,0,0.1v11.5c0,0.3,0.2,0.6,0.6,0.6h4.4
	c0.2,0,0.5-0.1,0.6-0.3c0.1-0.2,0-0.5-0.1-0.7c-0.2-0.2-0.3-0.6-0.3-0.9c0-0.7,0.6-1.4,1.4-1.4c0.7,0,1.4,0.6,1.4,1.4
	c0,0.3-0.1,0.7-0.3,0.9c-0.1,0.1-0.2,0.5-0.1,0.7s0.3,0.3,0.6,0.3h4.4H25c0.3,0,0.6-0.2,0.6-0.6v-4.4c0-0.2-0.1-0.5-0.3-0.6
	c-0.2-0.1-0.5,0-0.7,0.1c-0.2,0.2-0.6,0.3-0.9,0.3c-0.7,0-1.4-0.6-1.4-1.4C22.1,17.4,22.8,16.7,23.5,16.7z M2.3,9.2
	c0.2,0,0.5,0.1,0.7,0.1c1.4,0,2.5-1.2,2.5-2.5S4.4,4.3,3,4.3c-0.2,0-0.5,0-0.7,0.1V1.6h10.4v2.9c-0.2-0.1-0.6-0.1-0.8-0.1
	c-1.4-0.1-2.5,1-2.5,2.4s1.2,2.5,2.5,2.5c0.3,0,0.6,0,0.8-0.1v2.6H9H8.8c-0.2,0-0.5,0.1-0.6,0.3c-0.1,0.2,0,0.5,0.1,0.7
	c0.3,0.2,0.5,0.6,0.5,1c0,0.1,0,0.3-0.1,0.5c-0.2,0.5-0.7,0.8-1.3,0.8c-0.7,0-1.4-0.6-1.4-1.4l0,0c0-0.3,0.1-0.7,0.5-0.9
	c0.2-0.1,0.2-0.5,0.1-0.7C6.5,12,6.2,11.9,6,11.9h0H2.3V9.2z M7.5,20C6.1,20,5,21.2,5,22.6c0,0.2,0,0.5,0.1,0.7H2.3V12.9h2.8
	c0,0.1,0,0.2-0.1,0.3c0,0.1,0,0.3,0,0.5c0,1.4,1.2,2.5,2.5,2.5c1,0,2-0.7,2.3-1.6c0.1-0.3,0.2-0.6,0.2-1c0-0.2,0-0.5-0.1-0.8h2.8
	v3.7l0,0c0,0.2,0.1,0.5,0.3,0.6c0.2,0.1,0.5,0.1,0.6,0c0.2-0.2,0.5-0.2,0.8-0.2c0.7,0,1.4,0.6,1.4,1.3c0,0.7-0.6,1.3-1.4,1.3
	c-0.2,0-0.6-0.1-0.8-0.2c-0.2-0.1-0.5-0.1-0.6,0c-0.2,0.1-0.3,0.3-0.3,0.6l0,0v3.6H9.9C10,23,10,22.8,10,22.6C10,21.2,8.9,20,7.5,20
	z M23.5,20.6c0.2,0,0.5,0,0.7-0.1v2.8H13.8v-2.6c0.2,0,0.3,0.1,0.6,0.1c1.4,0,2.5-1.2,2.5-2.5l0,0l0,0c0-1.4-1.2-2.5-2.5-2.5
	c-0.2,0-0.3,0-0.6,0.1V13h10.4v2.8c-0.2-0.1-0.5-0.1-0.7-0.1c-1.4,0-2.5,1.2-2.5,2.5C21,19.5,22.1,20.6,23.5,20.6z"/>
</svg>
