<?xml version="1.0" encoding="utf-8"?>
<!-- Generator: Adobe Illustrator 23.0.6, SVG Export Plug-In . SVG Version: 6.00 Build 0)  -->
<svg version="1.1" id="Layer_1" xmlns="http://www.w3.org/2000/svg" xmlns:xlink="http://www.w3.org/1999/xlink" x="0px" y="0px"
	 viewBox="0 0 25 25" style="enable-background:new 0 0 25 25;" xml:space="preserve">
<style type="text/css">
	.st0{fill:#FFFFFF;}
</style>
<g>
	<path id="XMLID_28_" class="st0" d="M12.5,1.7c0.6,0,1,0.5,1,1v4.1c0,0.6-0.5,1-1,1s-1-0.5-1-1V2.7C11.5,2.2,11.9,1.7,12.5,1.7
		 M12.5,0.7c-1.1,0-2,0.9-2,2v4.1c0,1.1,0.9,2,2,2s2-0.9,2-2V2.7C14.5,1.6,13.6,0.7,12.5,0.7L12.5,0.7z"/>
	<path id="XMLID_29_" class="st0" d="M12.5,19.2c0.6,0,1,0.5,1,1v2.1c0,0.6-0.5,1-1,1s-1-0.5-1-1v-2.1
		C11.5,19.6,11.9,19.2,12.5,19.2 M12.5,18.2c-1.1,0-2,0.9-2,2v2.1c0,1.1,0.9,2,2,2s2-0.9,2-2v-2.1C14.5,19.1,13.6,18.2,12.5,18.2
		L12.5,18.2z"/>
	<path id="XMLID_30_" class="st0" d="M22.8,12c0.6,0,1,0.5,1,1s-0.5,1-1,1h-4.1c-0.6,0-1-0.5-1-1s0.5-1,1-1H22.8 M22.8,11h-4.1
		c-1.1,0-2,0.9-2,2s0.9,2,2,2h4.1c1.1,0,2-0.9,2-2S23.9,11,22.8,11L22.8,11z"/>
	<path id="XMLID_31_" class="st0" d="M6.3,12c0.6,0,1,0.5,1,1s-0.5,1-1,1H2.2c-0.6,0-1-0.5-1-1s0.5-1,1-1H6.3 M6.3,11H2.2
		c-1.1,0-2,0.9-2,2s0.9,2,2,2h4.1c1.1,0,2-0.9,2-2S7.5,11,6.3,11L6.3,11z"/>
	<path id="XMLID_71_" class="st0" d="M19.8,4.7c0.3,0,0.5,0.1,0.7,0.3c0.4,0.4,0.4,1.1,0,1.5l-2.9,2.9c-0.2,0.2-0.5,0.3-0.7,0.3
		c-0.3,0-0.5-0.1-0.7-0.3c-0.4-0.4-0.4-1.1,0-1.5L19,5C19.2,4.8,19.5,4.7,19.8,4.7 M19.8,3.7c-0.5,0-1.1,0.2-1.4,0.6l-2.9,2.9
		c-0.8,0.8-0.8,2.1,0,2.9c0.4,0.4,0.9,0.6,1.4,0.6c0.5,0,1.1-0.2,1.4-0.6l2.9-2.9c0.4-0.4,0.6-0.9,0.6-1.4c0-0.5-0.2-1.1-0.6-1.4
		C20.8,3.9,20.3,3.7,19.8,3.7L19.8,3.7z"/>
	<path id="XMLID_85_" class="st0" d="M8.1,16.3c0.3,0,0.5,0.1,0.7,0.3c0.4,0.4,0.4,1.1,0,1.5L6,21c-0.2,0.2-0.5,0.3-0.7,0.3
		S4.7,21.2,4.5,21c-0.4-0.4-0.4-1.1,0-1.5l2.9-2.9C7.6,16.4,7.9,16.3,8.1,16.3 M8.1,15.3c-0.5,0-1.1,0.2-1.4,0.6l-2.9,2.9
		c-0.8,0.8-0.8,2.1,0,2.9c0.4,0.4,0.9,0.6,1.4,0.6c0.5,0,1.1-0.2,1.4-0.6l2.9-2.9c0.8-0.8,0.8-2.1,0-2.9C9.2,15.6,8.7,15.3,8.1,15.3
		L8.1,15.3z"/>
	<path id="XMLID_86_" class="st0" d="M5.2,4.7C5.5,4.7,5.8,4.8,6,5l2.9,2.9c0.4,0.4,0.4,1.1,0,1.5C8.7,9.6,8.4,9.7,8.1,9.7
		c-0.3,0-0.5-0.1-0.7-0.3L4.5,6.5C4.1,6.1,4.1,5.4,4.5,5C4.7,4.8,5,4.7,5.2,4.7 M5.2,3.7c-0.5,0-1.1,0.2-1.4,0.6
		C3,5.1,3,6.4,3.8,7.2l2.9,2.9c0.4,0.4,0.9,0.6,1.4,0.6c0.5,0,1.1-0.2,1.4-0.6c0.8-0.8,0.8-2.1,0-2.9L6.7,4.3
		C6.3,3.9,5.8,3.7,5.2,3.7L5.2,3.7z"/>
</g>
</svg>
