<?xml version="1.0" encoding="utf-8"?>
<!-- Generator: Adobe Illustrator 23.0.6, SVG Export Plug-In . SVG Version: 6.00 Build 0)  -->
<svg version="1.1" id="Layer_1" xmlns="http://www.w3.org/2000/svg" xmlns:xlink="http://www.w3.org/1999/xlink" x="0px" y="0px"
	 viewBox="0 0 25 25" style="enable-background:new 0 0 25 25;" xml:space="preserve">
<style type="text/css">
	.st0{fill:#FFFFFF;}
</style>
<g>
	<path class="st0" d="M24.5,14l-0.2-0.5c0,0,0-0.1-0.1-0.1c-0.4-0.5-1-0.7-1.5-0.5L16.5,15c0,0,0,0,0,0c-0.1-0.2-0.3-0.3-0.5-0.4
		l-5.2-2.1c-0.9-0.3-1.8-0.3-2.6,0.2L4,15l-0.3-0.5c-0.1-0.1-0.2-0.2-0.3-0.2c-0.1,0-0.3,0-0.4,0.1l-2.4,1.4
		c-0.2,0.1-0.3,0.4-0.2,0.7c0.1,0.2,0.4,0.3,0.7,0.2l1.9-1.1l3.6,6.2l-1.9,1.1c-0.2,0.1-0.3,0.4-0.2,0.7c0.1,0.2,0.3,0.2,0.4,0.2
		c0.1,0,0.2,0,0.3-0.1l2.4-1.4c0.2-0.1,0.3-0.4,0.2-0.7l-0.5-0.8l1.9-1l5.7,0.5c0.1,0,0.2,0,0.3-0.1l8.8-4.7
		c0.3-0.1,0.5-0.4,0.6-0.7C24.6,14.5,24.6,14.2,24.5,14z M23.6,14.5l-8.7,4.7l-5.7-0.5c-0.1,0-0.2,0-0.3,0.1l-2.1,1.1l-2.3-3.9
		l4-2.3c0.5-0.3,1.2-0.3,1.7-0.1l5.2,2.1c0.1,0,0.2,0.1,0.3,0.3c0,0.1,0,0.2,0,0.4c-0.1,0.2-0.3,0.3-0.5,0.3l-3-0.6
		c-0.3-0.1-0.5,0.1-0.6,0.4c-0.1,0.3,0.1,0.5,0.4,0.6l3,0.6c0.1,0,0.2,0,0.3,0c0.6,0,1.1-0.3,1.3-0.9c0.1-0.2,0.1-0.4,0.1-0.6
		l6.2-2.1c0.1,0,0.3,0,0.4,0.1L23.6,14.5C23.6,14.5,23.6,14.5,23.6,14.5z"/>
	<path class="st0" d="M14.9,9.7c-0.9,0-1.6-0.6-1.6-1.4c0-0.3-0.2-0.5-0.5-0.5S12.4,8,12.4,8.2c0,1,0.7,1.9,1.8,2.2l0.3,0.1v0.3
		c0,0.3,0.2,0.5,0.5,0.5s0.5-0.2,0.5-0.5v-0.3l0.3-0.1c1.1-0.3,1.8-1.2,1.8-2.2c0-1.3-1.1-2.3-2.5-2.3c-0.9,0-1.6-0.6-1.6-1.4
		c0-0.8,0.7-1.4,1.6-1.4s1.6,0.6,1.6,1.4C16.6,4.7,16.8,5,17,5s0.5-0.2,0.5-0.5c0-1-0.7-1.9-1.8-2.2l-0.3-0.1V1.8
		c0-0.3-0.2-0.5-0.5-0.5s-0.5,0.2-0.5,0.5v0.4l-0.3,0.1c-1.1,0.3-1.8,1.2-1.8,2.2c0,1.3,1.1,2.3,2.5,2.3c0.9,0,1.6,0.6,1.6,1.4
		C16.6,9,15.8,9.7,14.9,9.7z"/>
</g>
</svg>
