<?xml version="1.0" encoding="utf-8"?>
<!-- Generator: Adobe Illustrator 23.0.6, SVG Export Plug-In . SVG Version: 6.00 Build 0)  -->
<svg version="1.1" id="Layer_1" xmlns="http://www.w3.org/2000/svg" xmlns:xlink="http://www.w3.org/1999/xlink" x="0px" y="0px"
	 viewBox="0 0 25 25" style="enable-background:new 0 0 25 25;" xml:space="preserve">
<style type="text/css">
	.st0{fill:none;}
	.st1{fill:#FFFFFF;}
</style>
<g>
	<rect x="0.9" y="14.6" class="st0" width="9.5" height="9.5"/>
	<g>
		<path class="st1" d="M9.9,24.1H1.4c-0.3,0-0.5-0.2-0.5-0.5v-8.5c0-0.3,0.2-0.5,0.5-0.5h8.5c0.3,0,0.5,0.2,0.5,0.5v8.5
			C10.4,23.9,10.2,24.1,9.9,24.1z M1.9,23.1h7.4v-7.4H1.9V23.1z"/>
	</g>
	<circle class="st0" cx="19.4" cy="19.4" r="4.8"/>
	<g>
		<path class="st1" d="M19.4,24.1c-2.6,0-4.8-2.1-4.8-4.8s2.1-4.8,4.8-4.8s4.8,2.1,4.8,4.8S22,24.1,19.4,24.1z M19.4,15.7
			c-2,0-3.7,1.7-3.7,3.7s1.7,3.7,3.7,3.7s3.7-1.7,3.7-3.7S21.4,15.7,19.4,15.7z"/>
	</g>
	<path class="st0" d="M12.5,0.9l5.3,9.5H7.2L12.5,0.9z"/>
	<path class="st1" d="M12.5,3.1L9,9.3h7L12.5,3.1 M12.9,1.5l4.6,8.3c0.2,0.3,0,0.6-0.4,0.6H7.9c-0.3,0-0.5-0.3-0.4-0.6l4.6-8.3
		C12.3,1.3,12.7,1.3,12.9,1.5z"/>
</g>
</svg>
