<?xml version="1.0" encoding="utf-8"?>
<!-- Generator: Adobe Illustrator 23.0.6, SVG Export Plug-In . SVG Version: 6.00 Build 0)  -->
<svg version="1.1" id="Layer_1" xmlns="http://www.w3.org/2000/svg" xmlns:xlink="http://www.w3.org/1999/xlink" x="0px" y="0px"
	 viewBox="0 0 25 25" style="enable-background:new 0 0 25 25;" xml:space="preserve">
<style type="text/css">
	.st0{fill:#FFFFFF;}
</style>
<g>
	<path class="st0" d="M10.6,9.6l-2.3,2.5L7,10.9c-0.2-0.2-0.5-0.2-0.7,0c-0.2,0.2-0.2,0.5,0,0.7l1.6,1.6c0.1,0.1,0.2,0.1,0.4,0.1
		l0,0c0.1,0,0.3-0.1,0.4-0.2l2.6-2.9c0.2-0.2,0.2-0.5,0-0.7C11,9.3,10.7,9.4,10.6,9.6z"/>
	<path class="st0" d="M10.6,16.4l-2.2,2.5l-1.3-1.3c-0.2-0.2-0.5-0.2-0.7,0c-0.2,0.2-0.2,0.5,0,0.7L8,20.1c0.1,0.1,0.2,0.1,0.4,0.1
		l0,0c0.1,0,0.3-0.1,0.4-0.2l2.5-2.9c0.2-0.2,0.2-0.5,0-0.7C11,16.2,10.7,16.2,10.6,16.4z"/>
	<path class="st0" d="M22,2.5h-7.4V0.6c0-0.3-0.2-0.5-0.5-0.5h-3.2c-0.3,0-0.5,0.2-0.5,0.5v1.9H3C2.7,2.5,2.5,2.7,2.5,3v21.4
		c0,0.3,0.2,0.5,0.5,0.5h19c0.3,0,0.5-0.2,0.5-0.5V3C22.5,2.7,22.3,2.5,22,2.5z M11.4,1.1h2.2v3h-2.2V1.1z M21.5,23.9h-18V3.5h6.9
		v1.1c0,0.3,0.2,0.5,0.5,0.5h3.2c0.3,0,0.5-0.2,0.5-0.5V3.5h6.9V23.9z"/>
	<path class="st0" d="M17.2,17.7h-2.9c-0.3,0-0.5,0.2-0.5,0.5s0.2,0.5,0.5,0.5h2.9c0.3,0,0.5-0.2,0.5-0.5S17.5,17.7,17.2,17.7z"/>
	<path class="st0" d="M14.3,11.4c-0.3,0-0.5,0.2-0.5,0.5s0.2,0.5,0.5,0.5h4.4c0.3,0,0.5-0.2,0.5-0.5s-0.2-0.5-0.5-0.5H14.3z"/>
</g>
</svg>
