<?xml version="1.0" encoding="utf-8"?>
<!-- Generator: Adobe Illustrator 23.0.6, SVG Export Plug-In . SVG Version: 6.00 Build 0)  -->
<svg version="1.1" id="Layer_1" xmlns="http://www.w3.org/2000/svg" xmlns:xlink="http://www.w3.org/1999/xlink" x="0px" y="0px"
	 viewBox="0 0 25 25" style="enable-background:new 0 0 25 25;" xml:space="preserve">
<style type="text/css">
	.st0{fill:#FFFFFF;}
</style>
<g>
	<g>
		<g>
			<path class="st0" d="M9.4,14.6c-3,0-5.4-2.4-5.4-5.4s2.4-5.4,5.4-5.4s5.4,2.4,5.4,5.4C14.9,12.1,12.4,14.6,9.4,14.6z M9.4,4.7
				C7,4.7,5,6.7,5,9.1s2,4.4,4.4,4.4s4.4-2,4.4-4.4S11.9,4.7,9.4,4.7z"/>
		</g>
		<g>
			<path class="st0" d="M17.3,24.5H1.5C1.2,24.5,1,24.3,1,24v-2.6c0-3,2.1-5.5,5.1-6.1c0.2,0,0.3,0,0.4,0.1c1.6,1.5,4.3,1.5,5.9,0
				c0.1-0.1,0.3-0.1,0.4-0.1c2.9,0.5,5.1,3.1,5.1,6.1V24C17.8,24.3,17.7,24.5,17.3,24.5z M2,23.5h14.9v-2.1c0-2.4-1.7-4.5-4-5
				c-1.9,1.6-4.9,1.6-6.9,0c-2.3,0.5-4,2.6-4,5C1.9,21.5,1.9,23.5,2,23.5z"/>
		</g>
	</g>
	<g>
		<path class="st0" d="M16.5,10.4c-0.3,0-0.5-0.2-0.5-0.5s0.2-0.5,0.5-0.5c2.2-0.1,3.9-2,3.8-4.2c-0.1-2.2-2-3.9-4.2-3.8
			C15,1.6,14.1,2,13.3,2.8c-0.2,0.2-0.6,0.3-0.8,0.1c-0.2-0.2-0.2-0.5-0.1-0.7c0.9-1,2.2-1.7,3.5-1.7c2.7-0.1,5.1,2,5.2,4.7
			C21.5,8,19.3,10.3,16.5,10.4L16.5,10.4z"/>
	</g>
	<g>
		<path class="st0" d="M16.4,13.3c-0.3,0-0.6,0-0.9-0.1c-0.3,0-0.5-0.3-0.4-0.6s0.3-0.5,0.6-0.4c0.2,0,0.5,0.1,0.7,0.1
			c0.3,0,0.5,0.2,0.5,0.5S16.5,13.3,16.4,13.3z"/>
	</g>
	<g>
		<path class="st0" d="M23.5,19.5h-3.8c-0.3,0-0.5-0.2-0.5-0.5s0.2-0.5,0.5-0.5H23v-1.8c0-2.2-1.5-4-3.6-4.5c-0.9,0.7-2,1.1-3.1,1.1
			c-0.3,0-0.5-0.2-0.5-0.5s0.2-0.5,0.5-0.5c1,0,1.9-0.4,2.7-1c0.1-0.1,0.3-0.1,0.4-0.1c2.7,0.5,4.6,2.8,4.6,5.5V19
			C24,19.3,23.8,19.5,23.5,19.5z"/>
	</g>
</g>
</svg>
