<?xml version="1.0" encoding="utf-8"?>
<!-- Generator: Adobe Illustrator 23.0.6, SVG Export Plug-In . SVG Version: 6.00 Build 0)  -->
<svg version="1.1" id="Layer_1" xmlns="http://www.w3.org/2000/svg" xmlns:xlink="http://www.w3.org/1999/xlink" x="0px" y="0px"
	 viewBox="0 0 25 25" style="enable-background:new 0 0 25 25;" xml:space="preserve">
<style type="text/css">
	.st0{fill:#FFFFFF;}
</style>
<g>
	<g>
		<path class="st0" d="M21.5,20.8c-0.1,0-0.3-0.1-0.4-0.1l-6.8-6.8c-0.1-0.1-0.2-0.4-0.1-0.5c0.1-0.2,0.3-0.3,0.5-0.3h9.7
			c0.3,0,0.5,0.2,0.5,0.5c0,2.7-1.1,5.3-3,7.2C21.7,20.7,21.6,20.8,21.5,20.8L21.5,20.8z M15.8,13.9l5.6,5.6
			c1.4-1.6,2.2-3.5,2.3-5.6H15.8z"/>
	</g>
	<g>
		<path class="st0" d="M23.4,11.4h-9.7c-0.3,0-0.5-0.2-0.5-0.5V1.1c0-0.3,0.2-0.5,0.5-0.5c5.6,0,10.2,4.6,10.2,10.2
			C23.9,11.1,23.7,11.4,23.4,11.4z M14.2,10.4h8.7c-0.2-4.7-4-8.5-8.7-8.8V10.4z"/>
	</g>
	<g>
		<path class="st0" d="M10.5,24.4c-5.6,0-10.2-4.6-10.2-10.2S4.8,3.9,10.5,3.9c0.3,0,0.5,0.2,0.5,0.5V14l6.7,6.7
			c0.1,0.1,0.1,0.2,0.1,0.4c0,0.1,0,0.3-0.1,0.4C15.8,23.3,13.2,24.4,10.5,24.4z M10,4.9c-4.9,0.3-8.7,4.3-8.7,9.2
			c0,5.1,4.1,9.2,9.2,9.2c2.3,0,4.5-0.8,6.2-2.4l-6.5-6.5C10,14.4,10,14.3,10,14.2V4.9z"/>
	</g>
</g>
</svg>
