<?xml version="1.0" encoding="utf-8"?>
<!-- Generator: Adobe Illustrator 23.0.6, SVG Export Plug-In . SVG Version: 6.00 Build 0)  -->
<svg version="1.1" id="Layer_1" xmlns="http://www.w3.org/2000/svg" xmlns:xlink="http://www.w3.org/1999/xlink" x="0px" y="0px"
	 viewBox="0 0 25 25" style="enable-background:new 0 0 25 25;" xml:space="preserve">
<style type="text/css">
	.st0{fill:#FFFFFF;}
</style>
<path class="st0" d="M24.1,23.2l-2.1-6.2c-0.1-0.4-0.4-0.6-0.8-0.6H13V14l3.3-3.3c0.2-0.2,0.3-0.4,0.3-0.7l0-2.5l2.1-2.1
	C18.9,5.2,19,5,19,4.7V1c0-0.3-0.2-0.5-0.5-0.5S18,0.8,18,1l0,3.7l-2.1,2.1c-0.1,0.1-0.1,0.2-0.2,0.3c0,0-0.1,0-0.1,0h-6
	c0,0-0.1,0-0.1,0c0-0.1-0.1-0.2-0.2-0.3L7,4.7V1c0-0.3-0.2-0.5-0.5-0.5S6,0.8,6,1v3.7c0,0.3,0.1,0.5,0.3,0.7l2.1,2.1V10
	c0,0.3,0.1,0.5,0.3,0.7L12,14v2.5H3.8c-0.3,0-0.6,0.2-0.8,0.6l-2.1,6.2c-0.1,0.3-0.1,0.6,0.1,0.9c0.2,0.2,0.4,0.3,0.6,0.3h21.6
	c0.3,0,0.5-0.1,0.6-0.3C24.1,23.9,24.2,23.5,24.1,23.2z M9.4,8.1C9.5,8.1,9.5,8.1,9.4,8.1l6.1,0c0,0,0,0,0,0l0,1.9l-3,3h-0.2l-3-3
	V8.1z M4,17.5h8v2.7H3.1L4,17.5z M1.9,23.5l0.8-2.3h9.8c0.3,0,0.5-0.2,0.5-0.5v-3.2h8l2.1,6H1.9z"/>
</svg>
