<?xml version="1.0" encoding="utf-8"?>
<!-- Generator: Adobe Illustrator 23.0.6, SVG Export Plug-In . SVG Version: 6.00 Build 0)  -->
<svg version="1.1" id="Layer_1" xmlns="http://www.w3.org/2000/svg" xmlns:xlink="http://www.w3.org/1999/xlink" x="0px" y="0px"
	 viewBox="0 0 25 25" style="enable-background:new 0 0 25 25;" xml:space="preserve">
<style type="text/css">
	.st0{fill:#FFFFFF;}
</style>
<g>
	<path class="st0" d="M23.5,1h-22C1.2,1,1,1.2,1,1.5v22C1,23.8,1.2,24,1.5,24h22c0.3,0,0.5-0.2,0.5-0.5v-22C24,1.2,23.8,1,23.5,1z
		 M16.5,23v-2c0-0.3-0.2-0.5-0.5-0.5s-0.5,0.2-0.5,0.5v2H2V9.6h2c0.3,0,0.5-0.2,0.5-0.5S4.3,8.6,4,8.6H2V2h13.5v2
		c0,0.3,0.2,0.5,0.5,0.5s0.5-0.2,0.5-0.5V2H23v6.6h-2c-0.3,0-0.5,0.2-0.5,0.5s0.2,0.5,0.5,0.5h2V23H16.5z"/>
	<path class="st0" d="M16,13.5c-0.3,0-0.5,0.2-0.5,0.5v3.9c0,0.3,0.2,0.5,0.5,0.5s0.5-0.2,0.5-0.5V14C16.5,13.8,16.3,13.5,16,13.5z"
		/>
	<path class="st0" d="M11,8.6H7.1c-0.3,0-0.5,0.2-0.5,0.5s0.2,0.5,0.5,0.5H11c0.3,0,0.5-0.2,0.5-0.5S11.2,8.6,11,8.6z"/>
	<path class="st0" d="M17.9,8.6h-1.4V7.1c0-0.3-0.2-0.5-0.5-0.5s-0.5,0.2-0.5,0.5v1.5H14c-0.3,0-0.5,0.2-0.5,0.5s0.2,0.5,0.5,0.5
		h1.4V11c0,0.3,0.2,0.5,0.5,0.5s0.5-0.2,0.5-0.5V9.6h1.4c0.3,0,0.5-0.2,0.5-0.5S18.2,8.6,17.9,8.6z"/>
</g>
</svg>
