<?xml version="1.0" encoding="utf-8"?>
<!-- Generator: Adobe Illustrator 23.0.6, SVG Export Plug-In . SVG Version: 6.00 Build 0)  -->
<svg version="1.1" id="Layer_1" xmlns="http://www.w3.org/2000/svg" xmlns:xlink="http://www.w3.org/1999/xlink" x="0px" y="0px"
	 viewBox="0 0 25 25" style="enable-background:new 0 0 25 25;" xml:space="preserve">
<style type="text/css">
	.st0{fill:#FFFFFF;}
</style>
<g>
	<path class="st0" d="M11,13.1c2.3,0,4-1.1,4-2.5S13.3,8,11,8s-4,1.1-4,2.5S8.8,13.1,11,13.1z M11,9c1.8,0,3,0.8,3,1.5
		s-1.2,1.5-3,1.5s-3-0.8-3-1.5S9.2,9,11,9z"/>
	<path class="st0" d="M23.3,16h-1.6v-5.4C21.7,7,17,4.2,11,4.2C5,4.2,0.3,7,0.3,10.6c0,0,0,0,0,0h0l0,3.9C0.3,18,5,20.8,11,20.8
		h12.3c0.8,0,1.4-0.6,1.4-1.4v-2.1C24.7,16.6,24.1,16,23.3,16z M20.7,16h-3.9c1.7-0.6,3-1.6,3.9-2.7V16z M11,5.2
		c5.4,0,9.7,2.4,9.7,5.4S16.4,16,11,16s-9.7-2.4-9.7-5.4l0,0C1.3,7.6,5.7,5.2,11,5.2z M23.7,19.5c0,0.2-0.2,0.4-0.4,0.4H11
		c-5.4,0-9.7-2.4-9.7-5.4l0-1.1C3,15.5,6.7,17,11,17c0,0,0,0,0,0v0h12.3c0.2,0,0.4,0.2,0.4,0.4V19.5z"/>
</g>
</svg>
