<?xml version="1.0" encoding="utf-8"?>
<!-- Generator: Adobe Illustrator 23.0.6, SVG Export Plug-In . SVG Version: 6.00 Build 0)  -->
<svg version="1.1" id="Layer_1" xmlns="http://www.w3.org/2000/svg" xmlns:xlink="http://www.w3.org/1999/xlink" x="0px" y="0px"
	 viewBox="0 0 25 25" style="enable-background:new 0 0 25 25;" xml:space="preserve">
<style type="text/css">
	.st0{fill:#FFFFFF;}
</style>
<g>
	<path class="st0" d="M9.4,8.2c0.1,0,0.3,0,0.4-0.1L13,4.9c0.2-0.2,0.2-0.5,0-0.8c-0.2-0.2-0.5-0.2-0.8,0L9.1,7.2
		C8.9,7.4,8.9,7.7,9.1,8C9.2,8.1,9.3,8.2,9.4,8.2z"/>
	<path class="st0" d="M7.4,6c0.1,0,0.3,0,0.4-0.1l0.7-0.7c0.2-0.2,0.2-0.5,0-0.8s-0.5-0.2-0.8,0L7,5.1C6.8,5.3,6.8,5.7,7,5.9
		C7.1,6,7.2,6,7.4,6z"/>
	<path class="st0" d="M17.1,13.2c-0.2-0.2-0.5-0.2-0.8,0l-0.7,0.7c-0.2,0.2-0.2,0.5,0,0.8c0.1,0.1,0.2,0.1,0.4,0.1
		c0.2,0,0.3,0,0.4-0.1l0.7-0.7C17.3,13.8,17.3,13.4,17.1,13.2z"/>
	<path class="st0" d="M11.3,10.1c0.1,0.1,0.2,0.1,0.4,0.1s0.3,0,0.4-0.1l3.7-3.7c0.2-0.2,0.2-0.5,0-0.8c-0.2-0.2-0.5-0.2-0.8,0
		l-3.7,3.7C11.1,9.6,11.1,9.9,11.3,10.1z"/>
	<path class="st0" d="M13.5,12.3c0.1,0.1,0.2,0.1,0.4,0.1s0.3,0,0.4-0.1l3.2-3.2c0.2-0.2,0.2-0.5,0-0.8s-0.5-0.2-0.8,0l-3.2,3.2
		C13.3,11.8,13.3,12.1,13.5,12.3z"/>
	<path class="st0" d="M6,6.2C5.9,6,5.5,6,5.3,6.2S5.1,6.8,5.3,7l9.2,9.2c0.1,0.1,0.2,0.1,0.4,0.1s0.3,0,0.4-0.1
		c0.2-0.2,0.2-0.5,0-0.8L6,6.2z"/>
	<path class="st0" d="M4.8,9.2c-0.2-0.2-0.5-0.2-0.8,0c-0.2,0.2-0.2,0.5,0,0.8l7.6,7.7c0.1,0.1,0.2,0.1,0.4,0.1c0.1,0,0.3,0,0.4-0.1
		c0.2-0.2,0.2-0.5,0-0.8L4.8,9.2z"/>
	<path class="st0" d="M5.8,14.1c-0.2-0.2-0.5-0.2-0.8,0s-0.2,0.5,0,0.8l1.8,1.8c0.1,0.1,0.2,0.1,0.4,0.1s0.3,0,0.4-0.1
		c0.2-0.2,0.2-0.5,0-0.8L5.8,14.1z"/>
	<path class="st0" d="M23.5,20.7L19,16.2c1.1-1.5,1.6-3.5,1.6-5.5c0-5.5-4.4-9.9-9.9-9.9s-9.9,4.4-9.9,9.9s4.4,9.9,9.9,9.9
		c2,0,3.7-0.5,5.3-1.5l4.5,4.5c0.4,0.4,1,0.7,1.4,0.7c0.5,0,1.1-0.2,1.4-0.7C24.3,22.7,24.3,21.4,23.5,20.7z M2,10.7
		c0-4.8,3.9-8.8,8.8-8.8s8.8,3.9,8.8,8.8s-3.9,8.8-8.8,8.8S2,15.5,2,10.7z M22.7,22.8c-0.3,0.3-1,0.3-1.4,0L17,18.6l1.4-1.4l4.3,4.3
		C23.1,21.8,23.1,22.4,22.7,22.8z"/>
</g>
</svg>
