<?xml version="1.0" encoding="utf-8"?>
<!-- Generator: Adobe Illustrator 23.0.6, SVG Export Plug-In . SVG Version: 6.00 Build 0)  -->
<svg version="1.1" id="Layer_1" xmlns="http://www.w3.org/2000/svg" xmlns:xlink="http://www.w3.org/1999/xlink" x="0px" y="0px"
	 viewBox="0 0 25 25" style="enable-background:new 0 0 25 25;" xml:space="preserve">
<style type="text/css">
	.st0{fill:#FFFFFF;}
</style>
<g id="Line_810_6_">
	<path class="st0" d="M17.9,17.8H7.1c-0.3,0-0.5-0.2-0.5-0.5s0.2-0.5,0.5-0.5h10.7c0.3,0,0.5,0.2,0.5,0.5S18.1,17.8,17.9,17.8z"/>
</g>
<g id="Line_810_7_">
	<path class="st0" d="M15.5,20.4h-6c-0.3,0-0.5-0.2-0.5-0.5s0.2-0.5,0.5-0.5h6c0.3,0,0.5,0.2,0.5,0.5S15.8,20.4,15.5,20.4z"/>
</g>
<g>
	<path class="st0" d="M21.4,24H3.6c-0.3,0-0.5-0.2-0.5-0.5V1.6c0-0.3,0.2-0.5,0.5-0.5h17.8c0.3,0,0.5,0.2,0.5,0.5v21.9
		C21.9,23.7,21.7,24,21.4,24z M4.1,23h16.8V2.1H4.1V23z"/>
</g>
<path class="st0" d="M14.8,11.3c0-1.2-1-2.1-2.3-2.1c-0.8,0-1.5-0.6-1.5-1.3s0.7-1.3,1.5-1.3c0.8,0,1.5,0.6,1.5,1.3
	c0,0.2,0.2,0.4,0.4,0.4s0.4-0.2,0.4-0.4c0-0.9-0.7-1.8-1.6-2l-0.3-0.1V5.4c0-0.2-0.2-0.4-0.4-0.4c-0.2,0-0.4,0.2-0.4,0.4v0.4
	l-0.3,0.1c-1,0.3-1.6,1.1-1.6,2c0,1.2,1,2.1,2.3,2.1c0.8,0,1.5,0.6,1.5,1.3c0,0.7-0.7,1.3-1.5,1.3c-0.8,0-1.5-0.6-1.5-1.3
	c0-0.2-0.2-0.4-0.4-0.4c-0.2,0-0.4,0.2-0.4,0.4c0,0.9,0.7,1.8,1.6,2l0.3,0.1v0.3c0,0.3,0.2,0.5,0.4,0.5c0.2,0,0.4-0.2,0.4-0.4v-0.3
	l0.3-0.1C14.1,13.1,14.8,12.2,14.8,11.3z"/>
</svg>
