<?xml version="1.0" encoding="utf-8"?>
<!-- Generator: Adobe Illustrator 23.0.6, SVG Export Plug-In . SVG Version: 6.00 Build 0)  -->
<svg version="1.1" id="Layer_1" xmlns="http://www.w3.org/2000/svg" xmlns:xlink="http://www.w3.org/1999/xlink" x="0px" y="0px"
	 viewBox="0 0 322.2 38.3" style="enable-background:new 0 0 322.2 38.3;" xml:space="preserve">
<style type="text/css">
	.st0{fill:#535BA8;}
	.st1{clip-path:url(#SVGID_2_);}
	.st2{fill:url(#Rectangle_1913_2_);}
	.st3{fill:url(#Rectangle_1913_3_);}
</style>
<g>
	<path class="st0" d="M4.8,7.8h13.7v4.1H9.9v4.4h6.4v4H9.9v8.5H4.8V7.8z"/>
	<path class="st0" d="M40,28.8h-5.1v-2.3C33.8,28,32,29,29.8,29c-3.9,0-6.5-2.7-6.5-7.1v-9.8h5.1v9.1c0,2.3,1.3,3.5,3.2,3.5
		c2,0,3.2-1.3,3.2-3.5v-9.1H40V28.8z"/>
	<path class="st0" d="M51.5,28.8h-5.1V12.1h5.1v2.8c1.2-1.8,3-3,5.3-3v5.4h-1.4c-2.4,0-3.8,0.8-3.8,3.7V28.8z"/>
	<path class="st0" d="M73.3,19.7c0-2.3-1.3-3.5-3.2-3.5c-2,0-3.2,1.3-3.2,3.5v9.1h-5.1V12.1h5.1v2.2c1-1.4,2.8-2.4,5.1-2.4
		c3.9,0,6.5,2.6,6.5,7.1v9.8h-5.1V19.7z"/>
	<path class="st0" d="M84.1,7.6c0-1.6,1.2-2.8,3.1-2.8c1.8,0,3,1.2,3,2.8c0,1.5-1.2,2.8-3,2.8C85.3,10.4,84.1,9.1,84.1,7.6z
		 M84.6,12.1h5.1v16.7h-5.1V12.1z"/>
	<path class="st0" d="M96.8,16.4h-2v-4.3h2V8h5.1v4.1h3.4v4.3h-3.4v6.7c0,1,0.4,1.4,1.6,1.4h1.8v4.4h-2.6c-3.5,0-5.9-1.5-5.9-5.8
		V16.4z"/>
	<path class="st0" d="M127.4,28.8h-5.1v-2.3c-1,1.4-2.8,2.5-5.1,2.5c-3.9,0-6.5-2.7-6.5-7.1v-9.8h5.1v9.1c0,2.3,1.3,3.5,3.2,3.5
		c2,0,3.2-1.3,3.2-3.5v-9.1h5.1V28.8z"/>
	<path class="st0" d="M141.6,12.2c5.2,0,7.7,3,7.7,6.6c0,2.6-1.4,5.1-4.7,6.1l4.9,8.3h-5.8l-4.4-8h-1.2v8H133V12.2H141.6z
		 M141.3,16.4h-3.2v5.2h3.2c1.9,0,2.8-1,2.8-2.6C144.1,17.4,143.2,16.4,141.3,16.4z"/>
	<path class="st0" d="M162.4,33.5c-4.9,0-8.5-3.3-8.5-8.6s3.5-8.6,8.5-8.6c4.9,0,8.3,3.2,8.3,8.3c0,0.5,0,1-0.1,1.5H159
		c0.2,2.2,1.5,3.2,3.2,3.2c1.4,0,2.3-0.7,2.7-1.6h5.5C169.5,31,166.5,33.5,162.4,33.5z M159,23.2h6.4c0-1.8-1.4-2.9-3.2-2.9
		C160.6,20.4,159.3,21.4,159,23.2z"/>
	<path class="st0" d="M179.3,16.5l3.6,11.9l3.6-11.9h5.5l-5.9,16.7h-6.3l-5.9-16.7H179.3z"/>
	<path class="st0" d="M203.7,33.5c-4.9,0-8.6-3.3-8.6-8.6s3.8-8.6,8.7-8.6c4.9,0,8.7,3.3,8.7,8.6S208.7,33.5,203.7,33.5z M203.7,29
		c1.8,0,3.5-1.4,3.5-4.2c0-2.9-1.7-4.2-3.5-4.2c-1.9,0-3.5,1.3-3.5,4.2C200.3,27.7,201.9,29,203.7,29z"/>
	<path class="st0" d="M218,11h5.1v22.2H218V11z"/>
	<path class="st0" d="M246,33.2h-5.1V31c-1,1.4-2.8,2.5-5.1,2.5c-3.9,0-6.5-2.7-6.5-7.1v-9.8h5.1v9.1c0,2.3,1.3,3.5,3.2,3.5
		c2,0,3.2-1.3,3.2-3.5v-9.1h5.1V33.2z"/>
	<path class="st0" d="M253.3,20.8h-2v-4.3h2v-4.1h5.1v4.1h3.4v4.3h-3.4v6.7c0,1,0.4,1.4,1.6,1.4h1.8v4.4h-2.6
		c-3.5,0-5.9-1.5-5.9-5.8V20.8z"/>
	<path class="st0" d="M267,12c0-1.6,1.2-2.8,3.1-2.8c1.8,0,3,1.2,3,2.8c0,1.5-1.2,2.8-3,2.8C268.2,14.7,267,13.5,267,12z
		 M267.5,16.5h5.1v16.7h-5.1V16.5z"/>
	<path class="st0" d="M286.6,33.5c-4.9,0-8.6-3.3-8.6-8.6s3.8-8.6,8.7-8.6c4.9,0,8.7,3.3,8.7,8.6S291.5,33.5,286.6,33.5z M286.6,29
		c1.8,0,3.5-1.4,3.5-4.2c0-2.9-1.7-4.2-3.5-4.2c-1.9,0-3.5,1.3-3.5,4.2C283.1,27.7,284.7,29,286.6,29z"/>
	<path class="st0" d="M312.3,24.1c0-2.3-1.3-3.5-3.2-3.5c-2,0-3.2,1.3-3.2,3.5v9.1h-5.1V16.5h5.1v2.2c1-1.4,2.8-2.4,5.1-2.4
		c3.9,0,6.5,2.6,6.5,7.1v9.8h-5.1V24.1z"/>
</g>
</svg>
