<svg xmlns="http://www.w3.org/2000/svg" width="25.1" height="23.432" viewBox="0 0 25.1 23.432">
  <g id="Symbol_31_16" data-name="Symbol 31 – 16" transform="translate(-961.002 -629)">
    <path id="Path_1713" data-name="Path 1713" d="M24.959,4.34h0c0-.04-.04-.081-.081-.121l-.04-.04c-.04-.04-.04-.04-.081-.04a.04.04,0,0,1-.04-.04h-.04L12.551.055a.258.258,0,0,0-.243,0L.183,4.1H.143a.04.04,0,0,0-.04.04c-.04,0-.04.04-.081.04l-.04.04c-.04.04-.04.081-.081.121h0a.148.148,0,0,1,.04.121v14.55a.388.388,0,0,0,.283.364l12.125,4.042c.04,0,.081.04.121.04a.148.148,0,0,0,.121-.04l12.125-4.042A.388.388,0,0,0,25,19.011V4.461A.148.148,0,0,0,24.959,4.34ZM12.47.864,23.3,4.461,12.47,8.058,1.638,4.461ZM.749,5.027,12.066,8.786v13.7L.749,18.728ZM12.874,22.487V8.786L24.191,5.027v13.7Z" transform="translate(961.101 628.975)" fill="#202020"/>
    <path id="Path_1714" data-name="Path 1714" d="M43.9,16.3a.393.393,0,0,0-.364-.04l-8.649,2.951a.388.388,0,0,0-.283.364V30.326a.5.5,0,0,0,.162.323.575.575,0,0,0,.243.081.148.148,0,0,0,.121-.04l8.649-2.951a.388.388,0,0,0,.283-.364V16.625A.3.3,0,0,0,43.9,16.3Z" transform="translate(940.426 619.317)" fill="#202020"/>
  </g>
</svg>
