<?xml version="1.0" encoding="utf-8"?>
<!-- Generator: Adobe Illustrator 23.0.3, SVG Export Plug-In . SVG Version: 6.00 Build 0)  -->
<svg version="1.1" id="Layer_1" xmlns="http://www.w3.org/2000/svg" xmlns:xlink="http://www.w3.org/1999/xlink" x="0px" y="0px"
	 viewBox="0 0 18.1 18" style="enable-background:new 0 0 18.1 18;" xml:space="preserve">
<style type="text/css">
	.st0{fill:#FFFFFF;}
</style>
<g id="Group_5009" transform="translate(-265.201 -26.154)">
	<path id="Rectangle_590" class="st0" d="M266.2,26.2h1.6c0.6,0,1,0.4,1,1v1.6c0,0.6-0.4,1-1,1h-1.6c-0.6,0-1-0.4-1-1v-1.6
		C265.2,26.6,265.6,26.2,266.2,26.2z"/>
	<path id="Rectangle_591" class="st0" d="M266.2,33.4h1.6c0.6,0,1,0.4,1,1V36c0,0.6-0.4,1-1,1h-1.6c-0.6,0-1-0.4-1-1v-1.6
		C265.2,33.9,265.6,33.4,266.2,33.4z"/>
	<path id="Rectangle_592" class="st0" d="M266.2,40.6h1.6c0.6,0,1,0.4,1,1v1.6c0,0.6-0.4,1-1,1h-1.6c-0.6,0-1-0.4-1-1v-1.6
		C265.2,41,265.6,40.6,266.2,40.6z"/>
	<g id="Line_418">
		<path class="st0" d="M282.3,29h-9.1c-0.6,0-1-0.4-1-1s0.4-1,1-1h9.1c0.6,0,1,0.4,1,1S282.8,29,282.3,29z"/>
	</g>
	<g id="Line_419">
		<path class="st0" d="M274.1,43.5h-0.9c-0.6,0-1-0.4-1-1s0.4-1,1-1h0.9c0.6,0,1,0.4,1,1S274.7,43.5,274.1,43.5z"/>
	</g>
	<g id="Line_420">
		<path class="st0" d="M277.7,36.2h-4.5c-0.6,0-1-0.4-1-1s0.4-1,1-1h4.5c0.6,0,1,0.4,1,1S278.3,36.2,277.7,36.2z"/>
	</g>
</g>
</svg>
