<svg xmlns="http://www.w3.org/2000/svg" width="74" height="31.488" viewBox="0 0 74 31.488">
  <g id="payment_apple-pay" transform="translate(0.026)">
    <path id="Path_2003" data-name="Path 2003" d="M14.012,4.059A5.665,5.665,0,0,0,15.3,0a5.845,5.845,0,0,0-3.751,1.906A5.346,5.346,0,0,0,10.2,5.781a4.417,4.417,0,0,0,3.813-1.722M15.3,6.15c-2.091-.123-3.874,1.168-4.858,1.168S7.923,6.211,6.263,6.211a6.17,6.17,0,0,0-5.227,3.2C-1.179,13.284.42,19,2.634,22.14c1.045,1.537,2.337,3.259,4,3.2,1.6-.062,2.214-1.045,4.12-1.045s2.46,1.045,4.182.984,2.829-1.537,3.874-3.136a12.386,12.386,0,0,0,1.722-3.567,5.571,5.571,0,0,1-.676-9.9A5.726,5.726,0,0,0,15.3,6.15" transform="translate(0)"/>
    <g id="Group_5634" data-name="Group 5634" transform="translate(24.651 1.783)">
      <path id="Path_2004" data-name="Path 2004" d="M48.833,2.9a7.313,7.313,0,0,1,7.687,7.626,7.394,7.394,0,0,1-7.81,7.687H43.728v7.933H40.1V2.9Zm-5.1,12.3h4.12c3.136,0,4.92-1.722,4.92-4.612,0-2.952-1.783-4.612-4.92-4.612H43.667V15.2Zm13.714,6.211c0-2.952,2.275-4.8,6.334-5.043l4.674-.246V14.831c0-1.906-1.291-3.013-3.382-3.013-2.029,0-3.259.984-3.567,2.46H58.181c.185-3.075,2.829-5.35,7.011-5.35,4.12,0,6.765,2.152,6.765,5.6V26.208H68.636V23.441h-.062a6.026,6.026,0,0,1-5.35,3.075C59.78,26.516,57.443,24.425,57.443,21.411Zm11.008-1.537V18.521l-4.182.246c-2.091.123-3.259,1.045-3.259,2.521s1.23,2.46,3.075,2.46C66.545,23.748,68.451,22.088,68.451,19.874Zm6.58,12.607V29.652a6.684,6.684,0,0,0,1.107.062c1.6,0,2.46-.676,3.013-2.4,0-.061.307-1.045.307-1.045L73.31,9.3h3.751l4.3,13.837h.061L85.733,9.3h3.69l-6.334,17.9c-1.476,4.12-3.136,5.412-6.642,5.412C76.2,32.543,75.339,32.543,75.032,32.481Z" transform="translate(-40.1 -2.9)"/>
    </g>
  </g>
</svg>
