<svg xmlns="http://www.w3.org/2000/svg" width="73.94" height="29.363" viewBox="0 0 73.94 29.363">
  <g id="payment_google-pay" transform="translate(0 0.024)">
    <g id="Group_5635" data-name="Group 5635" transform="translate(32.239 1.673)">
      <path id="Path_2005" data-name="Path 2005" d="M1043.632,67.4v8.6H1040.9V54.754h7.241a6.542,6.542,0,0,1,4.689,1.84,6.148,6.148,0,0,1,0,9,6.52,6.52,0,0,1-4.689,1.809l-4.51,0Zm0-10.032v7.421h4.578a3.7,3.7,0,0,0,2.772-6.222c-.025-.025-.047-.05-.071-.071a3.562,3.562,0,0,0-2.7-1.127Zm17.45,3.621a6.771,6.771,0,0,1,4.779,1.617,5.74,5.74,0,0,1,1.75,4.435v8.963H1065V73.988h-.118a5.216,5.216,0,0,1-4.513,2.493,5.857,5.857,0,0,1-4.02-1.425,4.55,4.55,0,0,1-1.617-3.562,4.32,4.32,0,0,1,1.707-3.59,7.2,7.2,0,0,1,4.556-1.335,8.078,8.078,0,0,1,4,.889v-.626a3.109,3.109,0,0,0-1.127-2.416,3.865,3.865,0,0,0-2.636-.994,4.184,4.184,0,0,0-3.621,1.93l-2.4-1.515a6.683,6.683,0,0,1,5.869-2.846Zm-3.534,10.565a2.185,2.185,0,0,0,.9,1.781,3.332,3.332,0,0,0,2.122.712,4.363,4.363,0,0,0,3.073-1.276,3.989,3.989,0,0,0,1.357-3,5.579,5.579,0,0,0-3.562-1.019,4.611,4.611,0,0,0-2.775.8,2.4,2.4,0,0,0-1.118,2ZM1082.6,61.465l-9.115,20.953h-2.819l3.382-7.331-6-13.622h2.967l4.333,10.447h.059l4.215-10.447Z" transform="translate(-1040.9 -54.752)" fill="#5f6368"/>
    </g>
    <path id="Path_2006" data-name="Path 2006" d="M405.926,325.484a14.513,14.513,0,0,0-.211-2.484H394.2v4.7h6.594a5.648,5.648,0,0,1-2.438,3.711v3.054h3.937a11.933,11.933,0,0,0,3.633-8.982Z" transform="translate(-381.991 -313.019)" fill="#4285f4"/>
    <path id="Path_2007" data-name="Path 2007" d="M52.909,479.574A11.676,11.676,0,0,0,61,476.625l-3.937-3.054A7.4,7.4,0,0,1,46.054,469.7H42v3.147A12.206,12.206,0,0,0,52.909,479.574Z" transform="translate(-40.699 -455.175)" fill="#34a853"/>
    <path id="Path_2008" data-name="Path 2008" d="M5.355,225.021a7.316,7.316,0,0,1,0-4.674V217.2H1.3a12.209,12.209,0,0,0,0,10.967Z" transform="translate(0 -210.496)" fill="#fbbc04"/>
    <path id="Path_2009" data-name="Path 2009" d="M52.909,4.812a6.632,6.632,0,0,1,4.683,1.83l3.487-3.484A11.746,11.746,0,0,0,52.909-.023,12.212,12.212,0,0,0,42,6.7l4.054,3.147A7.3,7.3,0,0,1,52.909,4.812Z" transform="translate(-40.699 0)" fill="#ea4335"/>
  </g>
</svg>
