<svg id="payment_americanex" xmlns="http://www.w3.org/2000/svg" width="49.943" height="49.943" viewBox="0 0 49.943 49.943">
  <path id="Path_1976" data-name="Path 1976" d="M330,208.276h49.943v49.943H330V208.276Z" transform="translate(-330 -208.276)" fill="#016fd0" fill-rule="evenodd"/>
  <path id="Path_1977" data-name="Path 1977" d="M364.942,313.286v-7.841h8.3l.891,1.161.92-1.161H405.19v7.3a3.479,3.479,0,0,1-1.7.541H386.8l-1-1.236v1.236h-3.291v-2.11a2.762,2.762,0,0,1-1.421.294h-1.12v1.815h-4.983l-.89-1.186-.9,1.186Z" transform="translate(-355.247 -278.484)" fill="#fff" fill-rule="evenodd"/>
  <path id="Path_1978" data-name="Path 1978" d="M330,272.78l1.872-4.365h3.238l1.062,2.445v-2.445H340.2l.632,1.767.613-1.767H359.51v.888a3.9,3.9,0,0,1,2.511-.888l5.862.021,1.044,2.413v-2.433h3.368l.927,1.386v-1.386h3.4v7.841h-3.4l-.888-1.391v1.391h-4.949l-.5-1.236h-1.33l-.489,1.236h-3.356a3.318,3.318,0,0,1-2.2-.87v.87h-5.06l-1-1.236v1.236H334.63l-.5-1.236h-1.326l-.494,1.236H330V272.78Z" transform="translate(-330 -251.729)" fill="#fff" fill-rule="evenodd"/>
  <path id="Path_1979" data-name="Path 1979" d="M332.56,271.9l-2.525,5.871h1.644l.466-1.176h2.709l.463,1.176H337l-2.523-5.871Zm.934,1.366.826,2.055h-1.654l.828-2.055Z" transform="translate(-330.025 -254.246)" fill="#016fd0" fill-rule="evenodd"/>
  <path id="Path_1980" data-name="Path 1980" d="M355.754,277.766V271.9l2.336.009,1.359,3.785,1.326-3.794h2.318v5.871h-1.468V273.44l-1.556,4.326h-1.287l-1.56-4.326v4.326Z" transform="translate(-348.608 -254.243)" fill="#016fd0" fill-rule="evenodd"/>
  <path id="Path_1981" data-name="Path 1981" d="M385.824,277.766V271.9h4.789v1.313h-3.306v1h3.229v1.236h-3.229v1.043h3.306v1.275Z" transform="translate(-370.335 -254.243)" fill="#016fd0" fill-rule="evenodd"/>
  <path id="Path_1982" data-name="Path 1982" d="M406.149,271.9v5.871h1.468v-2.086h.618l1.76,2.086h1.793l-1.931-2.163a1.788,1.788,0,0,0,1.61-1.8,1.9,1.9,0,0,0-2.052-1.9Zm1.468,1.313h1.678a.674.674,0,0,1,.7.618.663.663,0,0,1-.673.618h-1.7v-1.236Z" transform="translate(-385.021 -254.246)" fill="#016fd0" fill-rule="evenodd"/>
  <path id="Path_1983" data-name="Path 1983" d="M428.974,277.766h-1.5V271.9h1.5v5.871Z" transform="translate(-400.43 -254.243)" fill="#016fd0" fill-rule="evenodd"/>
  <path id="Path_1984" data-name="Path 1984" d="M438.291,277.766h-.324c-1.565,0-2.516-1.233-2.516-2.911a2.69,2.69,0,0,1,2.916-2.96h1.622v1.391h-1.682a1.412,1.412,0,0,0-1.37,1.583,1.437,1.437,0,0,0,1.584,1.615h.386l-.618,1.282Z" transform="translate(-406.193 -254.243)" fill="#016fd0" fill-rule="evenodd"/>
  <path id="Path_1985" data-name="Path 1985" d="M450.62,271.9l-2.525,5.871h1.644l.466-1.176h2.709l.464,1.176h1.68l-2.523-5.871Zm.934,1.366.825,2.055h-1.654l.828-2.055Z" transform="translate(-415.328 -254.246)" fill="#016fd0" fill-rule="evenodd"/>
  <path id="Path_1986" data-name="Path 1986" d="M473.805,277.766V271.9h1.866l2.383,3.689V271.9h1.468v5.871h-1.806l-2.443-3.785v3.785Z" transform="translate(-433.905 -254.243)" fill="#016fd0" fill-rule="evenodd"/>
  <path id="Path_1987" data-name="Path 1987" d="M368.562,314.8v-5.871h4.79v1.313h-3.306v1h3.229v1.236h-3.229v1.043h3.306V314.8Z" transform="translate(-357.862 -280.999)" fill="#016fd0" fill-rule="evenodd"/>
  <path id="Path_1988" data-name="Path 1988" d="M453.146,314.8v-5.871h4.79v1.313h-3.306v1h3.214v1.236h-3.214v1.043h3.306V314.8Z" transform="translate(-418.978 -280.999)" fill="#016fd0" fill-rule="evenodd"/>
  <path id="Path_1989" data-name="Path 1989" d="M386.349,314.8l2.332-2.9-2.387-2.972h1.849l1.422,1.837,1.427-1.837h1.777l-2.356,2.936,2.336,2.936H390.9l-1.381-1.808-1.347,1.808Z" transform="translate(-370.674 -280.999)" fill="#016fd0" fill-rule="evenodd"/>
  <path id="Path_1990" data-name="Path 1990" d="M410.186,308.929V314.8h1.506v-1.854h1.545a2.031,2.031,0,0,0,2.3-2.042,1.932,1.932,0,0,0-2.108-1.975Zm1.506,1.328h1.627a.663.663,0,0,1,.724.676.677.677,0,0,1-.729.676h-1.622v-1.352Z" transform="translate(-387.938 -281.002)" fill="#016fd0" fill-rule="evenodd"/>
  <path id="Path_1991" data-name="Path 1991" d="M431.763,308.925V314.8h1.468V312.71h.618l1.76,2.086H437.4l-1.931-2.163a1.788,1.788,0,0,0,1.61-1.8,1.9,1.9,0,0,0-2.052-1.9Zm1.468,1.314h1.678a.674.674,0,0,1,.7.618.663.663,0,0,1-.673.618h-1.7v-1.236Z" transform="translate(-403.528 -280.999)" fill="#016fd0" fill-rule="evenodd"/>
  <path id="Path_1992" data-name="Path 1992" d="M472.373,314.8v-1.275h2.938c.435,0,.623-.235.623-.492s-.188-.5-.623-.5h-1.327a1.641,1.641,0,0,1-1.8-1.759c0-.941.589-1.849,2.3-1.849h2.858l-.618,1.321h-2.472c-.472,0-.618.248-.618.485a.512.512,0,0,0,.541.512h1.39a1.611,1.611,0,0,1,1.845,1.685A1.761,1.761,0,0,1,475.5,314.8Z" transform="translate(-432.736 -280.999)" fill="#016fd0" fill-rule="evenodd"/>
  <path id="Path_1993" data-name="Path 1993" d="M491.789,314.8v-1.275H494.6c.435,0,.623-.235.623-.492s-.188-.5-.623-.5h-1.2a1.641,1.641,0,0,1-1.8-1.759c0-.941.588-1.849,2.3-1.849h2.8l-.618,1.321h-2.415c-.473,0-.618.248-.618.485a.512.512,0,0,0,.541.512h1.266a1.61,1.61,0,0,1,1.844,1.685,1.76,1.76,0,0,1-1.914,1.869Z" transform="translate(-446.765 -280.999)" fill="#016fd0" fill-rule="evenodd"/>
</svg>
