<svg id="pdf" xmlns="http://www.w3.org/2000/svg" width="37.387" height="39.676" viewBox="0 0 37.387 39.676">
  <g id="Group_5527" data-name="Group 5527" transform="translate(0)">
    <g id="Group_5526" data-name="Group 5526">
      <path id="Path_2079" data-name="Path 2079" d="M51.943,10.737,41.835.234A.763.763,0,0,0,41.285,0H26.22a3.061,3.061,0,0,0-3.058,3.056V13.734H17.057a2.29,2.29,0,0,0-2.288,2.287V27.47a2.29,2.29,0,0,0,2.288,2.287h6.105v6.868a3.058,3.058,0,0,0,3.058,3.051H49.1a3.057,3.057,0,0,0,3.058-3.049V11.266A.763.763,0,0,0,51.943,10.737ZM41.474,2.06l8.3,8.622h-8.3ZM17.057,28.231a.762.762,0,0,1-.762-.761V16.021a.762.762,0,0,1,.762-.761h20.6a.762.762,0,0,1,.762.761V27.47a.762.762,0,0,1-.762.761Zm33.573,8.4A1.529,1.529,0,0,1,49.1,38.15H26.22a1.53,1.53,0,0,1-1.532-1.525V29.757H37.66a2.29,2.29,0,0,0,2.288-2.287V16.021a2.29,2.29,0,0,0-2.288-2.287H24.688V3.056a1.533,1.533,0,0,1,1.532-1.53H39.948v9.919a.763.763,0,0,0,.763.763H50.63V36.626Z" transform="translate(-14.769)" fill="#ff4141"/>
    </g>
  </g>
  <g id="Group_5529" data-name="Group 5529" transform="translate(4.481 18.625)">
    <g id="Group_5528" data-name="Group 5528">
      <path id="Path_2080" data-name="Path 2080" d="M77.237,241.086a1.718,1.718,0,0,0-.943-.642,7.7,7.7,0,0,0-1.574-.1H72.6V246.9h1.323v-2.472h.863a7.551,7.551,0,0,0,1.373-.094,1.918,1.918,0,0,0,.686-.311,1.8,1.8,0,0,0,.557-.646,2.138,2.138,0,0,0,.219-1.015A2.035,2.035,0,0,0,77.237,241.086Zm-1.133,1.8a.869.869,0,0,1-.414.322,3.421,3.421,0,0,1-1.046.1h-.724v-1.86h.639a6.356,6.356,0,0,1,.952.045.915.915,0,0,1,.532.291.847.847,0,0,1,.21.59A.881.881,0,0,1,76.1,242.89Z" transform="translate(-72.596 -240.346)" fill="#ff4141"/>
    </g>
  </g>
  <g id="Group_5531" data-name="Group 5531" transform="translate(10.584 18.625)">
    <g id="Group_5530" data-name="Group 5530">
      <path id="Path_2081" data-name="Path 2081" d="M156.626,242.137a2.864,2.864,0,0,0-.626-1.062,2.192,2.192,0,0,0-.988-.6,4.723,4.723,0,0,0-1.247-.125h-2.419V246.9h2.49a4,4,0,0,0,1.171-.139,2.325,2.325,0,0,0,.93-.523,2.89,2.89,0,0,0,.7-1.158,4.307,4.307,0,0,0,.2-1.395A4.837,4.837,0,0,0,156.626,242.137Zm-1.288,2.691a1.387,1.387,0,0,1-.346.633,1.221,1.221,0,0,1-.534.273,3.6,3.6,0,0,1-.8.063h-.988v-4.341h.595a6,6,0,0,1,1.086.063,1.259,1.259,0,0,1,.613.308,1.5,1.5,0,0,1,.376.635,3.914,3.914,0,0,1,.134,1.167A4.275,4.275,0,0,1,155.338,244.828Z" transform="translate(-151.346 -240.346)" fill="#ff4141"/>
    </g>
  </g>
  <g id="Group_5533" data-name="Group 5533" transform="translate(17.209 18.625)">
    <g id="Group_5532" data-name="Group 5532">
      <path id="Path_2082" data-name="Path 2082" d="M241.339,241.455v-1.109h-4.493V246.9h1.323v-2.785h2.736v-1.109h-2.736v-1.551Z" transform="translate(-236.846 -240.346)" fill="#ff4141"/>
    </g>
  </g>
</svg>
