<?xml version="1.0" encoding="utf-8"?>
<!-- Generator: Adobe Illustrator 23.0.3, SVG Export Plug-In . SVG Version: 6.00 Build 0)  -->
<svg version="1.1" id="Layer_1" xmlns="http://www.w3.org/2000/svg" xmlns:xlink="http://www.w3.org/1999/xlink" x="0px" y="0px"
	 viewBox="0 0 13.8 13.8" style="enable-background:new 0 0 13.8 13.8;" xml:space="preserve">
<style type="text/css">
	.st0{fill:#4D41FF;}
</style>
<path class="st0" d="M13.6,12.5l-3-3c0.8-1,1.2-2.2,1.2-3.6C11.8,2.6,9.1,0,5.9,0S0,2.6,0,5.9s2.6,5.9,5.9,5.9
	c1.3,0,2.6-0.5,3.6-1.2l3,3c0.1,0.1,0.3,0.2,0.5,0.2c0.2,0,0.4-0.1,0.5-0.2C13.9,13.3,13.9,12.8,13.6,12.5z M1.5,5.9
	c0-2.4,2-4.3,4.3-4.3s4.3,2,4.3,4.3s-2,4.3-4.3,4.3S1.5,8.3,1.5,5.9z"/>
</svg>
