<?xml version="1.0" encoding="utf-8"?>
<!-- Generator: Adobe Illustrator 23.0.3, SVG Export Plug-In . SVG Version: 6.00 Build 0)  -->
<svg version="1.1" id="Layer_1" xmlns="http://www.w3.org/2000/svg" xmlns:xlink="http://www.w3.org/1999/xlink" x="0px" y="0px"
	 viewBox="0 0 20 20" style="enable-background:new 0 0 20 20;" xml:space="preserve">
<style type="text/css">
	.st0{fill:#4D41FF;}
</style>
<path class="st0" d="M15,0H5C2.2,0,0,2.2,0,5v10c0,2.8,2.2,5,5,5h10c2.8,0,5-2.2,5-5V5C20,2.2,17.8,0,15,0z M19,15c0,2.2-1.8,4-4,4
	H5c-2.2,0-4-1.8-4-4V5c0-2.2,1.8-4,4-4h10c2.2,0,4,1.8,4,4V15z"/>
</svg>
