<?xml version="1.0" encoding="utf-8"?>
<!-- Generator: Adobe Illustrator 23.0.3, SVG Export Plug-In . SVG Version: 6.00 Build 0)  -->
<svg version="1.1" id="Layer_1" xmlns="http://www.w3.org/2000/svg" xmlns:xlink="http://www.w3.org/1999/xlink" x="0px" y="0px"
	 viewBox="0 0 20 20" style="enable-background:new 0 0 20 20;" xml:space="preserve">
<style type="text/css">
	.st0{fill:none;}
	.st1{fill:#4D41FF;}
</style>
<g id="upload" transform="translate(-531 -164)">
	<g id="Path_1840" transform="translate(531 164)">
		<path class="st0" d="M10,0c5.5,0,10,4.5,10,10s-4.5,10-10,10S0,15.5,0,10S4.5,0,10,0z"/>
		<path class="st1" d="M10,1c-5,0-9,4-9,9s4,9,9,9s9-4,9-9S15,1,10,1 M10,0c5.5,0,10,4.5,10,10s-4.5,10-10,10S0,15.5,0,10
			S4.5,0,10,0z"/>
	</g>
	<path class="st1" d="M545.3,172.7l-4-4c-0.2-0.2-0.5-0.2-0.7,0l-4,4c-0.2,0.2-0.2,0.5,0,0.7c0.2,0.2,0.5,0.2,0.7,0l3.2-3.2v8.4
		c0,0.3,0.2,0.5,0.5,0.5s0.5-0.2,0.5-0.5v-8.2l3,3c0.1,0.1,0.3,0.1,0.4,0.1s0.3-0.1,0.4-0.1C545.5,173.2,545.5,172.9,545.3,172.7z"
		/>
</g>
</svg>
