<?xml version="1.0" encoding="utf-8"?>
<!-- Generator: Adobe Illustrator 23.0.3, SVG Export Plug-In . SVG Version: 6.00 Build 0)  -->
<svg version="1.1" id="Layer_1" xmlns="http://www.w3.org/2000/svg" xmlns:xlink="http://www.w3.org/1999/xlink" x="0px" y="0px"
	 viewBox="0 0 15.2 15.5" style="enable-background:new 0 0 15.2 15.5;" xml:space="preserve">
<style type="text/css">
	.st0{fill:#4D41FF;}
</style>
<polygon class="st0" points="1,3.2 1,3.7 1,3.7 "/>
<path class="st0" d="M14.2,2.7h-1.5V0.5c0-0.3-0.2-0.5-0.5-0.5s-0.5,0.2-0.5,0.5v2.2H8.1V0.5C8.1,0.2,7.8,0,7.6,0
	C7.4,0,7.1,0.2,7.1,0.5v2.2H3.5V0.5C3.5,0.2,3.3,0,3,0S2.5,0.2,2.5,0.5v2.2H1c-0.6,0-1,0.4-1,1v9.7c0,1.1,0.9,2,2,2h11.2
	c1.1,0,2-0.9,2-2V3.7C15.2,3.2,14.8,2.7,14.2,2.7z M14.2,13.5c0,0.6-0.4,1-1,1H2c-0.6,0-1-0.4-1-1V3.7h13.2V13.5z"/>
<path class="st0" d="M8,5.2H2.8c-0.3,0-0.5,0.2-0.5,0.5v2.6c0,0.3,0.2,0.5,0.5,0.5H8c0.3,0,0.5-0.2,0.5-0.5V5.7
	C8.5,5.4,8.3,5.2,8,5.2z M7.6,7.8H3.3V6.2h4.3V7.8z"/>
<path class="st0" d="M12.2,9.3H9.6c-0.3,0-0.5,0.2-0.5,0.5v2.6c0,0.3,0.2,0.5,0.5,0.5h2.6c0.3,0,0.5-0.3,0.5-0.5V9.8
	C12.7,9.5,12.5,9.3,12.2,9.3z M11.7,11.9h-1.6v-1.6h1.6V11.9z"/>
</svg>
