<?xml version="1.0" encoding="utf-8"?>
<!-- Generator: Adobe Illustrator 23.0.3, SVG Export Plug-In . SVG Version: 6.00 Build 0)  -->
<svg version="1.1" id="Layer_1" xmlns="http://www.w3.org/2000/svg" xmlns:xlink="http://www.w3.org/1999/xlink" x="0px" y="0px"
	 viewBox="0 0 15 15" style="enable-background:new 0 0 15 15;" xml:space="preserve">
<style type="text/css">
	.st0{fill:#4D41FF;}
</style>
<path class="st0" d="M7.5,1C3.9,1,1,3.9,1,7.5S3.9,14,7.5,14S14,11.1,14,7.5S11.1,1,7.5,1 M7.5,0C11.6,0,15,3.4,15,7.5
	S11.6,15,7.5,15S0,11.6,0,7.5S3.4,0,7.5,0z"/>
<path class="st0" d="M10.9,8.2H4.2C3.9,8.2,3.7,8,3.7,7.7s0.2-0.5,0.5-0.5h6.7c0.3,0,0.5,0.2,0.5,0.5S11.2,8.2,10.9,8.2z"/>
</svg>
