<svg xmlns="http://www.w3.org/2000/svg" width="100.367" height="89.311" viewBox="0 0 100.367 89.311"><defs><style>.a{fill:#d6d6d6;}</style></defs><g transform="matrix(0.985, 0.174, -0.174, 0.985, 26.374, -78.353)"><g transform="translate(43.46 107.504)"><path class="a" d="M266.088,249.262l-12.062-7.411a1.331,1.331,0,0,0-.487-.178l-3.776-.666a1.3,1.3,0,0,0-.452,2.564l3.564.629,11.851,7.282a1.3,1.3,0,0,0,1.363-2.218Z" transform="translate(-248.236 -240.986)"/></g><g transform="translate(0.467 79.478)"><g transform="translate(0 0)"><path class="a" d="M88.8,116.2a1.3,1.3,0,0,0-1.84-.062l-5.277,4.932L57.5,97.21,75.124,81.73a1.3,1.3,0,0,0-1.78-1.9L54.735,96.236a1.315,1.315,0,0,0-.024,1.876l2.139,2.11-.683.6L41.872,99.594a1.3,1.3,0,0,0-.651.112l-11.326,5.158c-.033-.009-.066-.017-.1-.023l-6.515-1.15.527-1.347a1.3,1.3,0,0,0-.729-1.683L2.252,92.332a1.3,1.3,0,1,0-.967,2.417L20.911,102.6,9.346,132.156,2.2,129.626a1.3,1.3,0,1,0-.869,2.454l8.33,2.95a1.314,1.314,0,0,0,1.647-.753l1.933-4.939,5.065,2.838-.559.905a5.464,5.464,0,0,0,6.338,8.068,5.461,5.461,0,0,0,7.089,4.374,5.463,5.463,0,0,0,7.089,4.376,5.463,5.463,0,0,0,10.055,2.046l.888-1.439.731.449a5.457,5.457,0,0,0,7.52-1.8,5.435,5.435,0,0,0,.8-3.19,5.4,5.4,0,0,0,1.263.153,5.51,5.51,0,0,0,4.668-2.607,5.427,5.427,0,0,0,.8-3.189,5.4,5.4,0,0,0,1.26.152,5.51,5.51,0,0,0,4.668-2.607,5.426,5.426,0,0,0,.8-3.191,5.465,5.465,0,0,0,4.132-9.972l-.892-.548,2.991-3.125,2.8,2.761a1.315,1.315,0,0,0,1.8.024l6.19-5.785A1.3,1.3,0,0,0,88.8,116.2ZM24.839,137.456a2.864,2.864,0,0,1-4.874-3.007l7.29-11.815a2.877,2.877,0,0,1,3.893-.962,2.961,2.961,0,0,1,.932,4.049Zm7.089,4.374a2.863,2.863,0,1,1-4.874-3.007l5.832-9.452a2.878,2.878,0,0,1,3.893-.962,2.961,2.961,0,0,1,.932,4.049Zm7.09,4.374a2.864,2.864,0,0,1-3.941.933,2.89,2.89,0,0,1-.933-3.941l4.374-7.089a2.877,2.877,0,0,1,3.893-.962,2.961,2.961,0,0,1,.932,4.049Zm9.956-.272-2.867,4.646a2.864,2.864,0,0,1-4.874-3.007l2.916-4.726a2.877,2.877,0,0,1,3.893-.962A2.961,2.961,0,0,1,48.974,145.932Zm23.711-23.165L66.233,118.8a1.3,1.3,0,0,0-1.363,2.218l9.613,5.907a2.864,2.864,0,1,1-3,4.879l-10.309-6.335a1.3,1.3,0,0,0-1.363,2.218l7.944,4.881a2.863,2.863,0,0,1-3,4.879l-7.2-4.424a1.3,1.3,0,0,0-1.363,2.218l4.833,2.97a2.863,2.863,0,0,1-3,4.879s-4.251-2.609-4.29-2.628a1.3,1.3,0,0,0-1.246,2.281l1.808,1.111a2.864,2.864,0,0,1-3,4.879l-.727-.447.612-.992a5.635,5.635,0,0,0,.666-4.285,5.381,5.381,0,0,0-5.618-4.111,5.642,5.642,0,0,0-.013-2.627,5.382,5.382,0,0,0-5.618-4.111,5.54,5.54,0,0,0-2.5-6,5.418,5.418,0,0,0-3.129-.739,5.449,5.449,0,0,0-9.934-4.163l-5.364,8.693L14.2,126.89l8.11-20.726,4.416.779a5.466,5.466,0,0,0,6.517,8.409l7.622-3.472a1.3,1.3,0,0,0-1.079-2.369l-7.623,3.472a2.864,2.864,0,0,1-2.374-5.212l12.2-5.555,14.51,1.25q.056,0,.112,0a1.3,1.3,0,0,0,.861-.326l1.235-1.091,17.385,17.153Z" transform="translate(-0.467 -79.478)"/></g></g></g></svg>