<?xml version="1.0" encoding="utf-8"?>
<!-- Generator: Adobe Illustrator 23.0.6, SVG Export Plug-In . SVG Version: 6.00 Build 0)  -->
<svg version="1.1" id="Layer_1" xmlns="http://www.w3.org/2000/svg" xmlns:xlink="http://www.w3.org/1999/xlink" x="0px" y="0px"
	 viewBox="0 0 20 23" style="enable-background:new 0 0 20 23;" xml:space="preserve">
<style type="text/css">
	.st0{opacity:0.3;fill:#FFFFFF;}
</style>
<path class="st0" d="M19.1,9.8h-8.2V7.3h5.8c0.5,0,0.9-0.4,0.9-0.9V4.2c0-0.5-0.4-0.9-0.9-0.9h-5.8V0.8c0-0.3-0.2-0.5-0.5-0.5
	S9.9,0.5,9.9,0.8v2.5H0.9C0.4,3.3,0,3.7,0,4.2v2.2c0,0.5,0.4,0.9,0.9,0.9h8.9v2.4H7.1c-0.5,0-0.9,0.4-0.9,0.9v2.2
	c0,0.5,0.4,0.9,0.9,0.9h2.8v2.4H2.5c-0.5,0-0.9,0.4-0.9,0.9v2.2c0,0.5,0.4,0.9,0.9,0.9h7.4v2c0,0.3,0.2,0.5,0.5,0.5s0.5-0.2,0.5-0.5
	v-2h2.7c0.5,0,0.9-0.4,0.9-0.9v-2.2c0-0.5-0.4-0.9-0.9-0.9h-2.7v-2.4h8.2c0.5,0,0.9-0.4,0.9-0.9v-2.2C20,10.2,19.6,9.8,19.1,9.8z
	 M16.6,4.2v2.1l-5.8,0V4.2L16.6,4.2z M1,6.4L0.9,4.3l8.9,0v2.1L1,6.4z M2.6,19.3l-0.1-2.1l7.4,0v2.1L2.6,19.3z M13.5,17.1v2.1
	l-2.6,0v-2.1L13.5,17.1z M7.2,12.8l-0.1-2.1l2.8,0v2.1L7.2,12.8z M19,12.8l-8.2,0v-2.1l8.2,0V12.8z"/>
</svg>
