<?xml version="1.0" encoding="utf-8"?>
<!-- Generator: Adobe Illustrator 23.0.3, SVG Export Plug-In . SVG Version: 6.00 Build 0)  -->
<svg version="1.1" id="Layer_1" xmlns="http://www.w3.org/2000/svg" xmlns:xlink="http://www.w3.org/1999/xlink" x="0px" y="0px"
	 viewBox="0 0 28.5 18.5" style="enable-background:new 0 0 28.5 18.5;" xml:space="preserve">
<style type="text/css">
	.st0{fill:#FFFFFF;}
</style>
<g>
	<g>
		<path class="st0" d="M6.6,18.5c-0.9,0-1.7-0.8-1.7-1.7s0.8-1.7,1.7-1.7s1.7,0.8,1.7,1.7S7.5,18.5,6.6,18.5z M6.6,16.2
			c-0.4,0-0.7,0.3-0.7,0.7s0.3,0.7,0.7,0.7c0.4,0,0.7-0.3,0.7-0.7S6.9,16.2,6.6,16.2z"/>
	</g>
	<g>
		<path class="st0" d="M23.6,18.5c-0.9,0-1.7-0.8-1.7-1.7s0.8-1.7,1.7-1.7s1.7,0.8,1.7,1.7S24.6,18.5,23.6,18.5z M23.6,16.2
			c-0.4,0-0.7,0.3-0.7,0.7s0.3,0.7,0.7,0.7c0.4,0,0.7-0.3,0.7-0.7S24,16.2,23.6,16.2z"/>
	</g>
	<path class="st0" d="M28.3,8.2l-3-5.2c-0.2-0.3-0.6-0.6-0.9-0.6h-4.9c0,0-0.1,0-0.1,0V1.1c0-0.6-0.5-1.1-1.1-1.1H1.1
		C0.5,0,0,0.5,0,1.1v14c0,0.6,0.5,1.1,1.1,1.1h3.5L4.8,16c0.3-0.8,1-1.3,1.8-1.3c0.8,0,1.5,0.5,1.8,1.3l0.1,0.3h9.8
		c0.2,0,0.4-0.1,0.6-0.2c0.2,0.1,0.4,0.2,0.6,0.2h2.3l0.1-0.3c0.3-0.8,1-1.3,1.8-1.3s1.5,0.5,1.8,1.3l0.1,0.3h1.9
		c0.6,0,1.1-0.5,1.1-1.1V8.8C28.5,8.6,28.4,8.4,28.3,8.2z M27.2,8.3v0.8l-5.5,0l0-3l4.2,0L27.2,8.3z M18.2,15.3H9.1
		c-0.5-1-1.5-1.6-2.6-1.6c-1.1,0-2.1,0.6-2.6,1.6H1.1c-0.1,0-0.1-0.1-0.1-0.1v-14C1,1.1,1.1,1,1.1,1h17.1c0.1,0,0.1,0.1,0.1,0.1v2.5
		v11.6C18.4,15.3,18.3,15.3,18.2,15.3z M27.4,15.3h-1.2c-0.5-1-1.5-1.6-2.6-1.6s-2.1,0.6-2.6,1.6h-1.6c-0.1,0-0.1-0.1-0.1-0.1v0V3.6
		c0-0.1,0-0.1,0.1-0.1l5,0.1L25.4,5h-3.7c-0.5,0-1,0.4-1,1v3.1c0,0.5,0.4,1,1,1h5.8v5.2C27.5,15.3,27.4,15.3,27.4,15.3z"/>
</g>
</svg>
