<?xml version="1.0" encoding="utf-8"?>
<!-- Generator: Adobe Illustrator 23.0.6, SVG Export Plug-In . SVG Version: 6.00 Build 0)  -->
<svg version="1.1" id="Layer_1" xmlns="http://www.w3.org/2000/svg" xmlns:xlink="http://www.w3.org/1999/xlink" x="0px" y="0px"
	 viewBox="0 0 20.4 20.6" style="enable-background:new 0 0 20.4 20.6;" xml:space="preserve">
<style type="text/css">
	.st0{fill:#FFFFFF;}
</style>
<path class="st0" d="M20.3,19.5l-1.9-4.3c-0.1-0.3-0.4-0.5-0.7-0.5h-7.1v-3L13.5,9c0.2-0.2,0.3-0.4,0.3-0.7l0-2.1l1.9-1.9
	c0.2-0.2,0.3-0.4,0.3-0.7V0.5c0-0.3-0.2-0.5-0.5-0.5s-0.5,0.2-0.5,0.5l0,3.1l-1.9,1.9C13,5.6,13,5.6,12.9,5.7c0,0-0.1,0-0.1,0H7.6
	c0,0-0.1,0-0.1,0c0-0.1-0.1-0.2-0.1-0.2L5.5,3.7V0.5C5.5,0.2,5.3,0,5,0S4.5,0.2,4.5,0.5v3.2c0,0.2,0.1,0.5,0.3,0.7l1.8,1.8v2.2
	c0,0.2,0.1,0.5,0.3,0.7l2.8,2.8v3H2.6c-0.3,0-0.6,0.2-0.7,0.5l-1.9,4.3C0,19.6,0,19.7,0,19.8c0,0.2,0.1,0.4,0.2,0.6
	c0.1,0.1,0.3,0.2,0.5,0.2c0,0,0,0,0,0h18.8c0.1,0,0.2,0,0.3-0.1c0.2-0.1,0.3-0.2,0.4-0.4S20.4,19.7,20.3,19.5z M7.6,6.7h5.2l0,1.6
	l-2.6,2.6h-0.1L7.6,8.3V6.7z M2.8,15.8h6.9v1.3H2.2L2.8,15.8z M1.1,19.6l0.7-1.5c0,0,0.1,0,0.1,0h8.3c0.3,0,0.5-0.2,0.5-0.5v-1.8
	h6.9l1.7,3.8H1.1z"/>
</svg>
