<?xml version="1.0" encoding="utf-8"?>
<!-- Generator: Adobe Illustrator 23.0.3, SVG Export Plug-In . SVG Version: 6.00 Build 0)  -->
<svg version="1.1" id="Layer_1" xmlns="http://www.w3.org/2000/svg" xmlns:xlink="http://www.w3.org/1999/xlink" x="0px" y="0px"
	 viewBox="0 0 20 24.8" style="enable-background:new 0 0 20 24.8;" xml:space="preserve">
<style type="text/css">
	.st0{fill:#FFFFFF;}
</style>
<g>
	<path class="st0" d="M19.5,2.4h-7.4V0.5c0-0.3-0.2-0.5-0.5-0.5H8.4C8.1,0,7.9,0.2,7.9,0.5v1.9H0.5C0.2,2.4,0,2.6,0,2.9v21.4
		c0,0.3,0.2,0.5,0.5,0.5h19c0.3,0,0.5-0.2,0.5-0.5V2.9C20,2.6,19.8,2.4,19.5,2.4z M8.9,1h2.2v3H8.9V1z M19,23.8H1V3.4h6.9v1.1
		C7.9,4.8,8.1,5,8.4,5h3.2c0.3,0,0.5-0.2,0.5-0.5V3.4H19V23.8z"/>
	<path class="st0" d="M11.6,21.4H5.3c-0.3,0-0.5,0.2-0.5,0.5s0.2,0.5,0.5,0.5h6.3c0.3,0,0.5-0.2,0.5-0.5S11.9,21.4,11.6,21.4z"/>
	<path class="st0" d="M4.8,18.8c0,0.3,0.2,0.5,0.5,0.5h9.5c0.3,0,0.5-0.2,0.5-0.5s-0.2-0.5-0.5-0.5H5.3C5,18.3,4.8,18.5,4.8,18.8z"
		/>
	<path class="st0" d="M12.9,9.6c0-1.6-1.3-2.9-2.9-2.9C8.4,6.7,7.1,8,7.1,9.6c0,0.9,0.4,1.7,1.1,2.3c-1.6,0.7-2.7,2.3-2.7,4.1
		c0,0.3,0.2,0.5,0.5,0.5h8c0.3,0,0.5-0.2,0.5-0.5c0-1.8-1.1-3.4-2.7-4.1C12.5,11.3,12.9,10.5,12.9,9.6z M8.1,9.6
		c0-1,0.9-1.9,1.9-1.9s1.9,0.9,1.9,1.9S11,11.5,10,11.5S8.1,10.6,8.1,9.6z M13.5,15.5H6.5c0.2-1.7,1.7-3,3.5-3
		C11.8,12.5,13.2,13.8,13.5,15.5z"/>
</g>
</svg>
