<?xml version="1.0" encoding="utf-8"?>
<!-- Generator: Adobe Illustrator 23.0.3, SVG Export Plug-In . SVG Version: 6.00 Build 0)  -->
<svg version="1.1" id="Layer_1" xmlns="http://www.w3.org/2000/svg" xmlns:xlink="http://www.w3.org/1999/xlink" x="0px" y="0px"
	 viewBox="0 0 25 25" style="enable-background:new 0 0 25 25;" xml:space="preserve">
<style type="text/css">
	.st0{opacity:0.3;}
	.st1{opacity:0.3;enable-background:new    ;}
	.st2{fill:#F8F7FF;}
</style>
<g id="dashboard_inactive" transform="translate(281.3 -111.4)" class="st0">
	<g id="Ellipse_158" class="st1">
		<path class="st2" d="M-268.8,136.4c-6.9,0-12.5-5.6-12.5-12.5c0-6.9,5.6-12.5,12.5-12.5s12.5,5.6,12.5,12.5
			C-256.3,130.8-261.9,136.4-268.8,136.4z M-268.8,112.4c-6.3,0-11.5,5.2-11.5,11.5c0,6.3,5.2,11.5,11.5,11.5s11.5-5.2,11.5-11.5
			C-257.3,117.6-262.5,112.4-268.8,112.4z"/>
	</g>
	<g id="Path_1861" class="st1">
		<path class="st2" d="M-259.2,124.4h-2.4c-0.3,0-0.5-0.2-0.5-0.5s0.2-0.5,0.5-0.5h2.4c0.3,0,0.5,0.2,0.5,0.5
			S-258.9,124.4-259.2,124.4z M-276,124.4h-2.4c-0.3,0-0.5-0.2-0.5-0.5s0.2-0.5,0.5-0.5h2.4c0.3,0,0.5,0.2,0.5,0.5
			S-275.7,124.4-276,124.4z M-263.6,119.6c-0.1,0-0.3,0-0.4-0.1c-0.2-0.2-0.2-0.5,0-0.7l1.6-1.6c0.2-0.2,0.5-0.2,0.7,0
			s0.2,0.5,0,0.7l-1.6,1.6C-263.3,119.6-263.5,119.6-263.6,119.6z M-268.8,117.2c-0.3,0-0.5-0.2-0.5-0.5v-2.4c0-0.3,0.2-0.5,0.5-0.5
			s0.5,0.2,0.5,0.5v2.4C-268.3,117-268.5,117.2-268.8,117.2z"/>
	</g>
	<g id="Path_1862" class="st1">
		<path class="st2" d="M-268.9,126.8c-0.5,0-1.1-0.2-1.6-0.5c-0.3-0.2-0.6-0.4-0.8-0.7c0,0,0-0.1-0.1-0.1l-4.7-7.6c0,0,0,0,0-0.1
			c-0.1-0.1-0.1-0.2-0.1-0.4c0-0.5,0.4-0.9,0.9-0.9l0,0c0.3,0,0.4,0.1,0.5,0.2l7.5,4.7c1.3,0.9,1.7,2.7,0.9,4
			C-267,126.3-268,126.8-268.9,126.8z M-270.5,125c0.2,0.2,0.4,0.4,0.6,0.5c0.9,0.6,2,0.3,2.6-0.6s0.3-2-0.6-2.6l-7-4.4L-270.5,125z
			 M-276.1,117.7L-276.1,117.7L-276.1,117.7z"/>
	</g>
</g>
</svg>
