<?xml version="1.0" encoding="utf-8"?>
<!-- Generator: Adobe Illustrator 23.0.6, SVG Export Plug-In . SVG Version: 6.00 Build 0)  -->
<svg version="1.1" id="Layer_1" xmlns="http://www.w3.org/2000/svg" xmlns:xlink="http://www.w3.org/1999/xlink" x="0px" y="0px"
	 viewBox="0 0 20 20" style="enable-background:new 0 0 20 20;" xml:space="preserve">
<style type="text/css">
	.st0{fill:#FFFFFF;}
</style>
<g>
	<path class="st0" d="M19.5,6h-3C16.2,6,16,5.8,16,5.5S16.2,5,16.5,5h3C19.8,5,20,5.2,20,5.5S19.8,6,19.5,6z"/>
	<path class="st0" d="M13.5,6h-3C10.2,6,10,5.8,10,5.5S10.2,5,10.5,5h3C13.8,5,14,5.2,14,5.5S13.8,6,13.5,6z"/>
	<path class="st0" d="M7.5,6h-3C4.2,6,4,5.8,4,5.5S4.2,5,4.5,5h3C7.8,5,8,5.2,8,5.5S7.8,6,7.5,6z"/>
	<path class="st0" d="M1.5,6h-1C0.2,6,0,5.8,0,5.5v-2C0,3.2,0.2,3,0.5,3S1,3.2,1,3.5V5h0.5C1.8,5,2,5.2,2,5.5S1.8,6,1.5,6z"/>
	<path class="st0" d="M19.5,3C19.2,3,19,2.8,19,2.5V1h-0.5C18.2,1,18,0.8,18,0.5S18.2,0,18.5,0h1C19.8,0,20,0.2,20,0.5v2
		C20,2.8,19.8,3,19.5,3z"/>
	<path class="st0" d="M15.5,1h-3C12.2,1,12,0.8,12,0.5S12.2,0,12.5,0h3C15.8,0,16,0.2,16,0.5S15.8,1,15.5,1z"/>
	<path class="st0" d="M9.5,1h-3C6.2,1,6,0.8,6,0.5S6.2,0,6.5,0h3C9.8,0,10,0.2,10,0.5S9.8,1,9.5,1z"/>
	<path class="st0" d="M3.5,1h-3C0.2,1,0,0.8,0,0.5S0.2,0,0.5,0h3C3.8,0,4,0.2,4,0.5S3.8,1,3.5,1z"/>
	<path class="st0" d="M10.3,20h-3c-0.3,0-0.5-0.2-0.5-0.5S7,19,7.3,19h3c0.3,0,0.5,0.2,0.5,0.5S10.5,20,10.3,20z"/>
	<path class="st0" d="M4.3,20h-3c-0.3,0-0.5-0.2-0.5-0.5S1,19,1.3,19h3c0.3,0,0.5,0.2,0.5,0.5S4.5,20,4.3,20z"/>
	<path class="st0" d="M11.9,18.6c-0.3,0-0.5-0.2-0.5-0.5v-3c0-0.3,0.2-0.5,0.5-0.5s0.5,0.2,0.5,0.5v3C12.4,18.4,12.2,18.6,11.9,18.6
		z"/>
	<path class="st0" d="M0.5,17.8c-0.3,0-0.5-0.2-0.5-0.5v-3c0-0.3,0.2-0.5,0.5-0.5S1,14,1,14.3v3C1,17.5,0.8,17.8,0.5,17.8z"/>
	<path class="st0" d="M11.9,12.6c-0.3,0-0.5-0.2-0.5-0.5v-3c0-0.3,0.2-0.5,0.5-0.5s0.5,0.2,0.5,0.5v3C12.4,12.4,12.2,12.6,11.9,12.6
		z"/>
	<path class="st0" d="M0.5,11.8c-0.3,0-0.5-0.2-0.5-0.5V8.5C0,8.2,0.2,8,0.5,8h3C3.8,8,4,8.2,4,8.5S3.8,9,3.5,9H1v2.3
		C1,11.5,0.8,11.8,0.5,11.8z"/>
	<path class="st0" d="M9.5,9h-3C6.2,9,6,8.8,6,8.5S6.2,8,6.5,8h3C9.8,8,10,8.2,10,8.5S9.8,9,9.5,9z"/>
	<path class="st0" d="M17.2,20h-2.4c-0.3,0-0.5-0.2-0.5-0.5v-0.6c0-0.3,0.2-0.5,0.5-0.5s0.5,0.2,0.5,0.5V19h1.9
		c0.3,0,0.5,0.2,0.5,0.5S17.5,20,17.2,20z"/>
	<path class="st0" d="M19.5,19.3c-0.3,0-0.5-0.2-0.5-0.5v-3c0-0.3,0.2-0.5,0.5-0.5s0.5,0.2,0.5,0.5v3C20,19.1,19.8,19.3,19.5,19.3z"
		/>
	<path class="st0" d="M14.8,16.4c-0.3,0-0.5-0.2-0.5-0.5v-3c0-0.3,0.2-0.5,0.5-0.5s0.5,0.2,0.5,0.5v3C15.3,16.2,15.1,16.4,14.8,16.4
		z"/>
	<path class="st0" d="M19.5,13.3c-0.3,0-0.5-0.2-0.5-0.5v-3c0-0.3,0.2-0.5,0.5-0.5S20,9.5,20,9.8v3C20,13.1,19.8,13.3,19.5,13.3z"/>
	<path class="st0" d="M14.8,10.4c-0.3,0-0.5-0.2-0.5-0.5V8.5c0-0.3,0.2-0.5,0.5-0.5h3c0.3,0,0.5,0.2,0.5,0.5S18.1,9,17.8,9h-2.5v0.9
		C15.3,10.2,15.1,10.4,14.8,10.4z"/>
</g>
</svg>
