<?xml version="1.0" encoding="utf-8"?>
<!-- Generator: Adobe Illustrator 23.0.6, SVG Export Plug-In . SVG Version: 6.00 Build 0)  -->
<svg version="1.1" id="Layer_1" xmlns="http://www.w3.org/2000/svg" xmlns:xlink="http://www.w3.org/1999/xlink" x="0px" y="0px"
	 viewBox="0 0 22.8 21.5" style="enable-background:new 0 0 22.8 21.5;" xml:space="preserve">
<style type="text/css">
	.st0{opacity:0.3;}
	.st1{fill:#FFFFFF;}
</style>
<g class="st0">
	<path class="st1" d="M20.6,7.8c0,1.8-0.6,3.6-1.8,5.1c-2.3,2.9-6.3,2.9-8.4,2.9H2.2c-0.3,0-0.5-0.2-0.5-0.5s0.2-0.5,0.5-0.5h8.1
		c2,0,5.6,0,7.7-2.6c2.3-2.8,2.1-7.1-0.4-9.2c-1.5-1.3-3.9-1.9-5.9-1.5c-1.1,0.2-2.6,0.9-3.3,2.5C7.6,5.7,7.6,7.4,8.3,8.6
		c0.7,1.2,1.9,1.9,3.3,2c1.2,0.1,2.2-0.3,2.8-1.1c0.7-1,0.8-2.3,0.5-3.1c-0.3-0.9-1.1-1.6-1.9-1.7c-0.6-0.1-1.1,0.2-1.5,0.8
		c-0.3,0.5-0.2,1-0.1,1.3c0.2,0.5,0.6,0.8,0.8,0.9c0.3,0.1,0.4,0.3,0.4,0.6c-0.1,0.3-0.3,0.4-0.6,0.4c-0.6-0.1-1.2-0.7-1.5-1.4
		c-0.3-0.7-0.3-1.5,0.1-2.2c0.5-0.9,1.4-1.3,2.4-1.2c1.2,0.1,2.3,1,2.7,2.3c0.5,1.3,0.2,2.9-0.7,4c-0.8,1.1-2.1,1.6-3.7,1.5
		c-1.7-0.1-3.2-1.1-4-2.5c-0.9-1.5-0.9-3.5,0-5.4c0.7-1.6,2.2-2.7,4-3.1c2.3-0.5,5,0.2,6.7,1.7C19.8,3.7,20.6,5.7,20.6,7.8z"/>
</g>
<g class="st0">
	<path class="st1" d="M21.1,18.2v2.7c0,0.3-0.2,0.5-0.5,0.5c-0.3,0-0.5-0.2-0.5-0.5v-2.2H2.4v2.2c0,0.3-0.2,0.5-0.5,0.5
		s-0.5-0.2-0.5-0.5v-2.7c0-0.3,0.2-0.5,0.5-0.5h18.7C20.9,17.7,21.1,17.9,21.1,18.2z"/>
</g>
</svg>
