<?xml version="1.0" encoding="utf-8"?>
<!-- Generator: Adobe Illustrator 23.0.6, SVG Export Plug-In . SVG Version: 6.00 Build 0)  -->
<svg version="1.1" id="Layer_1" xmlns="http://www.w3.org/2000/svg" xmlns:xlink="http://www.w3.org/1999/xlink" x="0px" y="0px"
	 viewBox="0 0 22.8 21.5" style="enable-background:new 0 0 22.8 21.5;" xml:space="preserve">
<style type="text/css">
	.st0{opacity:0.3;}
	.st1{fill:#FFFFFF;}
</style>
<g class="st0">
	<rect x="10.9" y="4.9" transform="matrix(0.7071 -0.7071 0.7071 0.7071 1.3085 13.8713)" class="st1" width="13" height="1"/>
	<rect x="12.8" y="14.7" transform="matrix(0.7071 -0.7071 0.7071 0.7071 -9.0411 14.7346)" class="st1" width="1" height="7.2"/>
	<rect x="9" y="3.7" transform="matrix(0.7071 -0.7071 0.7071 0.7071 1.0977 11.0769)" class="st1" width="9.8" height="1"/>
	<rect x="13.7" y="8.3" transform="matrix(0.7071 -0.7071 0.7071 0.7071 -0.8008 15.7162)" class="st1" width="9.8" height="1"/>
	<rect x="8.5" y="16.4" transform="matrix(0.7071 -0.7071 0.7071 0.7071 -10.806 11.8878)" class="st1" width="1" height="5.1"/>
	<rect x="7.3" y="2.5" transform="matrix(0.7071 -0.7071 0.7071 0.7071 0.9553 8.3106)" class="st1" width="6.5" height="1"/>
	<rect x="16.5" y="11.8" transform="matrix(0.7071 -0.7071 0.7071 0.7071 -2.9099 17.562)" class="st1" width="6.5" height="1"/>
	<rect x="5.4" y="1.3" transform="matrix(0.7071 -0.7071 0.7071 0.7071 0.7789 5.5304)" class="st1" width="3.3" height="1"/>
	<rect x="19.3" y="15.2" transform="matrix(0.7071 -0.7071 0.7071 0.7071 -4.9847 19.4213)" class="st1" width="3.3" height="1"/>
	<g>
		<path class="st1" d="M4.2,3.5L1,0.3L0.3,1l3.2,3.2C3.8,3.9,3.8,3.9,4.2,3.5z"/>
		<path class="st1" d="M12.2,11.5c-0.4,0.4-0.7,0.6-0.7,0.7l8.9,8.9l0.7-0.7L12.2,11.5z"/>
	</g>
	<g>
		<path class="st1" d="M5.1,5.9c2.9,0,4.8,1.7,4.8,4.5c0,3-2.1,4.3-5,4.3l-0.1,1.7H2.7l-0.1-3.4h0.7c2.4,0,4.3-0.4,4.3-2.7
			C7.6,8.9,6.7,8,5.1,8c-1.5,0-2.5,0.9-2.5,2.4H0.3C0.3,7.7,2.2,5.9,5.1,5.9z M3.7,21.2c-0.9,0-1.6-0.7-1.6-1.6s0.7-1.6,1.6-1.6
			c0.9,0,1.5,0.7,1.5,1.6S4.6,21.2,3.7,21.2z"/>
	</g>
</g>
</svg>
