<?xml version="1.0" encoding="utf-8"?>
<!-- Generator: Adobe Illustrator 23.0.6, SVG Export Plug-In . SVG Version: 6.00 Build 0)  -->
<svg version="1.1" id="Layer_1" xmlns="http://www.w3.org/2000/svg" xmlns:xlink="http://www.w3.org/1999/xlink" x="0px" y="0px"
	 viewBox="0 0 22.8 21.5" style="enable-background:new 0 0 22.8 21.5;" xml:space="preserve">
<style type="text/css">
	.st0{opacity:0.3;}
	.st1{fill:#FFFFFF;}
</style>
<g class="st0">
	<path class="st1" d="M12.2,13c0-0.1,0-0.1,0-0.2c0-0.1-0.1-0.1-0.1-0.1c0,0,0,0,0,0c0,0,0,0,0,0c0,0,0,0-0.1-0.1l-5-2
		c-0.1,0-0.3,0-0.4,0l-5,2c0,0,0,0,0,0c0,0,0,0-0.1,0c0,0-0.1,0.1-0.1,0.1c0,0,0,0-0.1,0.1c0,0.1-0.1,0.2-0.1,0.3V19
		c0,0.2,0.1,0.4,0.3,0.5l5,2c0.1,0,0.1,0,0.2,0s0.1,0,0.2,0l5-2c0.2-0.1,0.3-0.3,0.3-0.5L12.2,13C12.2,13.1,12.2,13.1,12.2,13
		C12.2,13.1,12.2,13.1,12.2,13C12.2,13.1,12.2,13,12.2,13z M6.7,11.7l3.6,1.4l-3.6,1.4l0,0L3,13.1L6.7,11.7z M2.2,13.8l4,1.6v4.8
		l-4-1.6V13.8z M11.2,18.7l-4,1.6v-4.8l4-1.6V18.7z"/>
	<path class="st1" d="M22.3,7.2C22.3,7.1,22.2,7.1,22.3,7.2c0-0.1,0-0.2-0.1-0.2c0-0.1-0.1-0.1-0.1-0.1c0,0,0,0,0,0c0,0,0,0,0,0
		c0,0,0,0-0.1-0.1l-5-2c-0.1,0-0.3,0-0.4,0l-5,2c0,0,0,0,0,0c0,0,0,0-0.1,0c0,0-0.1,0.1-0.1,0.1c0,0,0,0-0.1,0.1
		c0,0.1-0.1,0.2-0.1,0.3V10c0,0.3,0.2,0.5,0.5,0.5c0.3,0,0.5-0.2,0.5-0.5V7.9l4,1.6v4.8l-0.5-0.2c-0.3-0.1-0.6,0-0.7,0.3
		c-0.1,0.3,0,0.6,0.3,0.7l1.2,0.5c0.1,0,0.1,0,0.2,0s0.1,0,0.2,0l5-2c0.2-0.1,0.3-0.3,0.3-0.5V7.2C22.3,7.2,22.3,7.2,22.3,7.2
		C22.3,7.2,22.3,7.2,22.3,7.2z M16.7,5.7l3.6,1.4l-3.6,1.4l-3.6-1.4L16.7,5.7z M21.2,12.8l-4,1.6V9.5l4-1.6V12.8z"/>
	<path class="st1" d="M1.5,9L3,9.6c0.1,0,0.1,0,0.2,0c0.2,0,0.4-0.1,0.5-0.3c0.1-0.3,0-0.6-0.3-0.7L2.2,8.2V3.3l1.5,0.6l2.5,1v2.9
		v0.1c0,0.3,0.2,0.5,0.5,0.5c0.3,0,0.5-0.2,0.5-0.5V7.8V4.9l4-1.6v0.7c0,0.3,0.2,0.5,0.5,0.5c0.3,0,0.5-0.2,0.5-0.5V2.6c0,0,0,0,0,0
		c0,0,0,0,0,0c0,0,0,0,0-0.1c0-0.1,0-0.1,0-0.2c0-0.1-0.1-0.1-0.1-0.1c0,0,0,0,0,0c0,0,0,0,0,0c0,0,0,0-0.1-0.1l-5-2
		c-0.1,0-0.3,0-0.4,0l-5,2c0,0,0,0,0,0c0,0,0,0-0.1,0c0,0-0.1,0.1-0.1,0.1c0,0,0,0-0.1,0.1c0,0.1-0.1,0.2-0.1,0.3v5.9
		C1.2,8.7,1.3,8.9,1.5,9z M6.7,1.2l3.6,1.4L6.7,4L3,2.6L6.7,1.2z"/>
</g>
</svg>
