<svg id="jpg" xmlns="http://www.w3.org/2000/svg" width="37.387" height="39.676" viewBox="0 0 37.387 39.676">
  <g id="Group_5519" data-name="Group 5519" transform="translate(0)">
    <g id="Group_5518" data-name="Group 5518">
      <path id="Path_2075" data-name="Path 2075" d="M51.943,10.737,41.835.234A.763.763,0,0,0,41.285,0H26.22a3.061,3.061,0,0,0-3.058,3.056V13.734H17.057a2.29,2.29,0,0,0-2.288,2.287V27.47a2.29,2.29,0,0,0,2.288,2.287h6.105v6.868a3.058,3.058,0,0,0,3.058,3.051H49.1a3.057,3.057,0,0,0,3.058-3.049V11.266A.763.763,0,0,0,51.943,10.737ZM41.474,2.06l8.3,8.622h-8.3ZM17.057,28.231a.762.762,0,0,1-.762-.761V16.021a.762.762,0,0,1,.762-.761h20.6a.762.762,0,0,1,.762.761V27.47a.762.762,0,0,1-.762.761Zm33.573,8.4A1.529,1.529,0,0,1,49.1,38.15H26.22a1.53,1.53,0,0,1-1.532-1.525V29.757H37.66a2.29,2.29,0,0,0,2.288-2.287V16.021a2.29,2.29,0,0,0-2.288-2.287H24.688V3.056a1.533,1.533,0,0,1,1.532-1.53H39.948v9.919a.763.763,0,0,0,.763.763H50.63V36.626Z" transform="translate(-14.769)" fill="#4d41ff"/>
    </g>
  </g>
  <g id="Group_5521" data-name="Group 5521" transform="translate(14.689 18.513)">
    <g id="Group_5520" data-name="Group 5520">
      <path id="Path_2076" data-name="Path 2076" d="M207.6,242.055v1.1h1.516v.832a2.865,2.865,0,0,1-.718.4,2.28,2.28,0,0,1-.834.163,1.731,1.731,0,0,1-1.359-.583,2.566,2.566,0,0,1-.519-1.75,2.317,2.317,0,0,1,.512-1.632,1.793,1.793,0,0,1,1.379-.55,1.575,1.575,0,0,1,.954.279,1.39,1.39,0,0,1,.521.762l1.314-.246a2.311,2.311,0,0,0-.883-1.415,3.13,3.13,0,0,0-1.907-.512,3.389,3.389,0,0,0-1.569.326,2.89,2.89,0,0,0-1.256,1.22,3.773,3.773,0,0,0-.429,1.82,3.988,3.988,0,0,0,.384,1.746,2.743,2.743,0,0,0,1.149,1.234,3.587,3.587,0,0,0,1.793.431,4.383,4.383,0,0,0,1.6-.306,3.594,3.594,0,0,0,1.205-.708v-2.611H207.6Z" transform="translate(-204.328 -238.903)" fill="#4d41ff"/>
    </g>
  </g>
  <g id="Group_5523" data-name="Group 5523" transform="translate(8.81 18.625)">
    <g id="Group_5522" data-name="Group 5522">
      <path id="Path_2077" data-name="Path 2077" d="M133.1,241.087a1.719,1.719,0,0,0-.943-.642,7.7,7.7,0,0,0-1.574-.1h-2.124V246.9h1.323v-2.472h.863a7.558,7.558,0,0,0,1.372-.094,1.921,1.921,0,0,0,.686-.311,1.8,1.8,0,0,0,.557-.646,2.138,2.138,0,0,0,.219-1.015A2.034,2.034,0,0,0,133.1,241.087Zm-1.133,1.8a.869.869,0,0,1-.414.322,3.426,3.426,0,0,1-1.046.1h-.724v-1.86h.639a6.369,6.369,0,0,1,.952.045.915.915,0,0,1,.532.291.847.847,0,0,1,.21.59A.881.881,0,0,1,131.968,242.891Z" transform="translate(-128.461 -240.347)" fill="#4d41ff"/>
    </g>
  </g>
  <g id="Group_5525" data-name="Group 5525" transform="translate(3.208 18.625)">
    <g id="Group_5524" data-name="Group 5524">
      <path id="Path_2078" data-name="Path 2078" d="M59.048,240.347v4.234a1.989,1.989,0,0,1-.183,1.048.722.722,0,0,1-.626.253.712.712,0,0,1-.653-.353,1.746,1.746,0,0,1-.165-.8l-1.247.143a2.225,2.225,0,0,0,.528,1.594,1.976,1.976,0,0,0,1.493.543,2.315,2.315,0,0,0,1.332-.346,1.773,1.773,0,0,0,.7-.919,4.232,4.232,0,0,0,.143-1.252v-4.149Z" transform="translate(-56.173 -240.347)" fill="#4d41ff"/>
    </g>
  </g>
</svg>
