<svg xmlns="http://www.w3.org/2000/svg" width="25.1" height="23.432" viewBox="0 0 25.1 23.432">
  <g id="Symbol_28_12" data-name="Symbol 28 – 12" transform="translate(-961.002 -412)">
    <path id="Path_1715" data-name="Path 1715" d="M24.959,4.34h0c0-.04-.04-.081-.081-.121l-.04-.04c-.04-.04-.04-.04-.081-.04a.04.04,0,0,1-.04-.04h-.04L12.551.055a.258.258,0,0,0-.243,0L.183,4.1H.143a.04.04,0,0,0-.04.04c-.04,0-.04.04-.081.04l-.04.04c-.04.04-.04.081-.081.121h0a.148.148,0,0,1,.04.121v14.55a.388.388,0,0,0,.283.364l12.125,4.042c.04,0,.081.04.121.04a.148.148,0,0,0,.121-.04l12.125-4.042A.388.388,0,0,0,25,19.011V4.461A.148.148,0,0,0,24.959,4.34ZM12.47,8.058,1.638,4.461,12.47.864,23.3,4.461Z" transform="translate(961.101 411.975)" fill="#202020"/>
    <path id="Path_1716" data-name="Path 1716" d="M44.29,27.951,35.6,30.9V20.191L44.29,17.2Z" transform="translate(939.83 401.741)" fill="#fff"/>
  </g>
</svg>
