<?xml version="1.0" encoding="utf-8"?>
<!-- Generator: Adobe Illustrator 23.0.3, SVG Export Plug-In . SVG Version: 6.00 Build 0)  -->
<svg version="1.1" id="Layer_1" xmlns="http://www.w3.org/2000/svg" xmlns:xlink="http://www.w3.org/1999/xlink" x="0px" y="0px"
	 viewBox="0 0 12 16" style="enable-background:new 0 0 12 16;" xml:space="preserve">
<style type="text/css">
	.st0{fill:#4D41FF;}
	.st1{fill:none;}
</style>
<path class="st0" d="M6,1C3.2,1,1,3.2,1,5.8C1,6.4,1.4,8,3.8,11.5c0.8,1.2,1.6,2.2,2.2,2.9c0.6-0.7,1.4-1.8,2.2-2.9
	C10.6,8,11,6.4,11,5.8C11,3.2,8.8,1,6,1 M6,0c3.3,0,6,2.6,6,5.8S6,16,6,16S0,9,0,5.8S2.7,0,6,0z"/>
<g id="Ellipse_205" transform="translate(1474 500)">
	<circle class="st1" cx="-1468" cy="-494" r="3"/>
	<g>
		<path class="st0" d="M-1468-491c-1.7,0-3-1.3-3-3s1.3-3,3-3s3,1.3,3,3S-1466.3-491-1468-491z M-1468-496c-1.1,0-2,0.9-2,2
			s0.9,2,2,2s2-0.9,2-2S-1466.9-496-1468-496z"/>
	</g>
</g>
</svg>
