<?xml version="1.0" encoding="utf-8"?>
<!-- Generator: Adobe Illustrator 23.0.3, SVG Export Plug-In . SVG Version: 6.00 Build 0)  -->
<svg version="1.1" id="Layer_1" xmlns="http://www.w3.org/2000/svg" xmlns:xlink="http://www.w3.org/1999/xlink" x="0px" y="0px"
	 viewBox="0 0 14.6 14.6" style="enable-background:new 0 0 14.6 14.6;" xml:space="preserve">
<style type="text/css">
	.st0{fill:#4D41FF;}
</style>
<g id="time" transform="translate(-793.1 -488.5)">
	<g id="Ellipse_202">
		<path class="st0" d="M800.4,503.1c-4,0-7.3-3.3-7.3-7.3c0-4,3.3-7.3,7.3-7.3c4,0,7.3,3.3,7.3,7.3
			C807.7,499.8,804.4,503.1,800.4,503.1z M800.4,489.5c-3.5,0-6.3,2.8-6.3,6.3s2.8,6.3,6.3,6.3s6.3-2.8,6.3-6.3
			S803.8,489.5,800.4,489.5z"/>
	</g>
	<g id="Path_2070">
		<path class="st0" d="M804.6,496.3h-4.2c-0.3,0-0.5-0.2-0.5-0.5v-4.4c0-0.3,0.2-0.5,0.5-0.5s0.5,0.2,0.5,0.5v3.9h3.7
			c0.3,0,0.5,0.2,0.5,0.5S804.8,496.3,804.6,496.3z"/>
	</g>
</g>
</svg>
