<svg xmlns="http://www.w3.org/2000/svg" width="76.198" height="83.011" viewBox="0 0 76.198 83.011"><defs><style>.a{fill:#d6d6d6;}</style></defs><g transform="translate(0.001 0.001)"><g transform="translate(-0.001 -0.001)"><path class="a" d="M3.838,11.853a4.126,4.126,0,0,0,3.168-.224l1.224-.613L26.1,65.915a4.166,4.166,0,0,0,1.937,2.332A9.683,9.683,0,1,0,39.75,65.589L74.314,53.325A4.15,4.15,0,1,0,71.547,45.5l-3.678,1.3L59.111,21.874a1.383,1.383,0,0,0-1.764-.847l-4.219,1.48L47.392,6.163a1.383,1.383,0,0,0-1.764-.847l-7,2.462L33.369,9.622l-7,2.457a1.383,1.383,0,0,0-.847,1.764L31.27,30.187l-2.637.925a1.383,1.383,0,0,0-.847,1.762l8.791,25.037-3.9,1.383L14.628,3.865a4.15,4.15,0,0,0-5.8-2.428L3.294,4.2a4.15,4.15,0,0,0,.544,7.649ZM46.518,27.761l2.352,6.7-2.327-.595a1.383,1.383,0,0,0-1.448.508l-1.446,1.92-2.352-6.7,2.612-.917ZM39.383,14.1l-.736-.187a1.383,1.383,0,0,0-1.448.508l-.455.606L35.6,11.769l1.32-.463,1.318-.463Zm-6.392-1.412,2,5.694a1.383,1.383,0,0,0,2.411.372l1.455-1.937,2.352.6a1.383,1.383,0,0,0,1.647-1.8L40.85,9.925l4.39-1.541,5.226,14.887L33.827,29.114,28.6,14.226Zm5.695,17.825,3.208,9.136a1.383,1.383,0,0,0,2.41.373l2.446-3.248,3.937,1.007a1.383,1.383,0,0,0,1.649-1.8l-3.206-9.13,7.831-2.75,8.247,23.488L39.1,56.746,30.855,33.258ZM35.582,67.4a7.008,7.008,0,1,1-3.132.784l1.844-.654A6.928,6.928,0,0,1,35.582,67.4ZM4.531,6.679l5.533-2.767A1.383,1.383,0,0,1,12,4.721L30.485,61.5a1.383,1.383,0,0,0,1.777.876L72.468,48.11a1.383,1.383,0,0,1,1.707,1.9,1.366,1.366,0,0,1-.786.708L33.621,64.827a9.585,9.585,0,0,0-2.423.86l-.692.245a1.383,1.383,0,0,1-1.777-.876L10.362,8.633a1.383,1.383,0,0,0-.786-.848,1.4,1.4,0,0,0-.534-.107,1.383,1.383,0,0,0-.618.138L5.769,9.161A1.386,1.386,0,0,1,4.524,6.685Z" transform="translate(-0.999 -0.999)"/><path class="a" d="M23,55.15A4.15,4.15,0,1,0,27.15,51,4.15,4.15,0,0,0,23,55.15Zm4.15-1.383a1.383,1.383,0,1,1-1.383,1.383A1.383,1.383,0,0,1,27.15,53.767Z" transform="translate(7.433 18.164)"/></g></g></svg>