<svg xmlns="http://www.w3.org/2000/svg" width="37.387" height="39.676" viewBox="0 0 37.387 39.676">
  <g id="Group_5879" data-name="Group 5879" transform="translate(16566 16674.057)">
    <g id="Group_5876" data-name="Group 5876" transform="translate(-16566 -16674.057)">
      <g id="Group_5526" data-name="Group 5526">
        <path id="Path_2079" data-name="Path 2079" d="M51.943,10.737,41.835.234A.763.763,0,0,0,41.285,0H26.22a3.061,3.061,0,0,0-3.058,3.056V13.734H17.057a2.29,2.29,0,0,0-2.288,2.287V27.47a2.29,2.29,0,0,0,2.288,2.287h6.105v6.868a3.058,3.058,0,0,0,3.058,3.051H49.1a3.057,3.057,0,0,0,3.058-3.049V11.266A.763.763,0,0,0,51.943,10.737ZM41.474,2.06l8.3,8.622h-8.3ZM17.057,28.231a.762.762,0,0,1-.762-.761V16.021a.762.762,0,0,1,.762-.761h20.6a.762.762,0,0,1,.762.761V27.47a.762.762,0,0,1-.762.761Zm33.573,8.4A1.529,1.529,0,0,1,49.1,38.15H26.22a1.53,1.53,0,0,1-1.532-1.525V29.757H37.66a2.29,2.29,0,0,0,2.288-2.287V16.021a2.29,2.29,0,0,0-2.288-2.287H24.688V3.056a1.533,1.533,0,0,1,1.532-1.53H39.948v9.919a.763.763,0,0,0,.763.763H50.63V36.626Z" transform="translate(-14.769)" fill="#5cd26c"/>
      </g>
    </g>
    <text id="xls" transform="translate(-16562 -16649)" fill="#5cd26c" font-size="9" font-family="Arial-BoldMT, Arial" font-weight="700"><tspan x="0" y="0">XLS</tspan></text>
  </g>
</svg>
